<svg width="489" height="377" viewBox="0 0 489 377" fill="none" xmlns="http://www.w3.org/2000/svg">
<g clip-path="url(#clip0_17_134)">
<path opacity="0.18" d="M59.068 219.221V317.482C33.2293 288.659 40.8852 252.015 59.068 219.221Z" fill="#C4C4C4"/>
<path opacity="0.18" d="M443.702 208.356C437.715 223.866 422.701 233.263 411.016 244.88C387.623 268.113 376.415 301.885 356.691 328.022C352.042 334.281 346.748 340.009 340.9 345.109C317.975 364.84 287.033 371.475 257.249 374.999C226.268 378.794 194.884 377.254 164.4 370.441C135.484 363.905 107.866 352.385 82.7268 336.375L211.75 261.891L242.065 244.39L243.607 243.498V8.44037L170.908 40.9837C175.508 34.4492 180.695 28.3681 186.4 22.8195C208.071 1.96869 243.043 -8.48389 267.84 8.36423C282.726 18.4144 290.903 35.8607 303.301 48.9346C327.758 74.7561 365.761 81.1408 395.066 101.034C420.315 118.339 438.081 144.922 444.68 175.268C446.977 186.21 447.732 197.946 443.702 208.356Z" fill="#C4C4C4"/>
<path opacity="0.18" d="M356.691 328.022C352.042 334.281 346.748 340.009 340.9 345.109C317.975 364.84 287.033 371.475 257.249 374.999C226.268 378.794 194.884 377.254 164.4 370.441C162.435 366.823 161.389 362.758 161.359 358.618C161.359 330.861 210.123 308.357 270.275 308.357C305.481 308.357 336.785 316.057 356.691 328.022Z" fill="#C4C4C4"/>
<path d="M271.934 91.8217C268.443 91.6138 264.971 92.4796 261.965 94.3076C258.96 96.1356 256.558 98.8421 255.069 102.079C251.762 109.616 253.91 118.905 250.061 126.171C248.243 129.597 245.276 132.196 242.448 134.807C242.203 134.994 242.018 135.252 241.916 135.546C241.767 136.09 242.193 136.634 242.597 136.993C244.73 138.793 247.113 140.259 249.668 141.344C251.94 142.646 254.454 143.447 257.047 143.693C258.618 143.661 260.178 143.43 261.694 143.008C264.267 142.388 265.798 145.542 268.371 144.879C271.129 144.293 273.927 143.929 276.74 143.791C278.866 143.65 280.674 139.821 282.779 139.56C287.171 139.016 291.01 136.384 294.667 133.828C291.669 132.033 290.053 128.563 288.968 125.126C287.405 120.208 286.605 115.07 286.597 109.899C286.597 106.636 286.916 103.123 285.661 100.11C285.113 98.8173 284.309 97.6546 283.301 96.6945C282.293 95.7344 281.102 94.9975 279.802 94.5301C277.218 93.5403 274.719 92.0393 271.934 91.8217Z" fill="#FF979A"/>
<path d="M282.79 114.587C282.796 112.263 282.657 109.942 282.375 107.637C282.227 106.481 281.85 105.369 281.267 104.369C280.684 103.368 279.907 102.5 278.983 101.818C276.378 100.132 272.986 100.817 270.052 101.818C268.585 102.253 267.181 102.882 265.873 103.688C262.566 105.864 260.801 109.888 259.929 113.836C259.057 117.785 258.865 121.863 257.802 125.801C256.739 129.738 254.612 133.556 250.986 135.264C249.589 135.76 248.222 136.341 246.892 137.004C246.732 137.074 246.591 137.182 246.482 137.321C246.373 137.459 246.298 137.623 246.265 137.798C246.27 138.091 246.384 138.371 246.584 138.581C248.796 141.409 252.666 142.149 256.154 142.453C259.854 142.779 263.597 142.866 267.287 142.943C270.232 143.008 273.284 143.062 276.017 141.92C278.749 140.778 280.919 138.581 283.715 137.733C285.204 137.276 287.766 137.113 288.224 135.209C288.628 133.556 286.82 130.793 286.256 129.314C284.363 124.618 283.194 119.65 282.79 114.587Z" fill="url(#paint0_linear_17_134)"/>
<path d="M287.182 349.166C288.366 350.773 289.908 352.067 291.679 352.941C295.128 354.545 298.887 355.33 302.674 355.236C304.216 355.236 305.864 355.149 307.023 354.083C307.504 353.58 307.853 352.962 308.039 352.286C308.225 351.609 308.241 350.895 308.086 350.211C307.762 348.843 307.086 347.589 306.13 346.578C302.313 342.227 296.454 340.715 291.01 339.899C288.777 339.562 286.565 339.062 285.597 341.607C284.736 343.924 285.863 347.274 287.182 349.166Z" fill="#3F3D56"/>
<path d="M236.206 345.011C235.249 345.917 234.557 347.077 234.207 348.361C233.782 350.754 235.866 353.028 238.184 353.561C240.502 354.094 242.916 353.332 245.117 352.386C248.33 351.001 251.379 349.25 254.208 347.165C254.98 346.654 255.66 346.01 256.218 345.262C257.451 343.423 257.164 340.976 256.76 338.79C256.759 338.539 256.7 338.291 256.586 338.069C256.472 337.846 256.308 337.655 256.107 337.511C255.905 337.367 255.673 337.275 255.43 337.242C255.186 337.209 254.939 337.236 254.708 337.322C252.581 337.441 250.37 337.626 248.2 337.637C246.98 337.493 245.746 337.519 244.532 337.713C241.374 338.572 238.397 342.597 236.206 345.011Z" fill="#3F3D56"/>
<path opacity="0.46" d="M243.607 8.44037V243.509L242.065 244.401L211.75 261.891L82.7268 336.386L59.068 350.036V91.0604L170.908 40.9946L243.607 8.44037Z" fill="#C4C4C4"/>
<path opacity="0.56" d="M175.108 131.326L155.894 140.811V108.974L175.108 99.4899V131.326Z" fill="#C4C4C4"/>
<path opacity="0.56" d="M207.167 169.232L187.963 178.716V146.88L207.167 137.395V169.232Z" fill="#C4C4C4"/>
<path opacity="0.46" d="M243.065 189.865C242.841 204.483 242.001 219.134 243.065 233.709C243.309 237.288 243.49 241.323 242.065 244.39L211.75 261.891C211.412 262.065 211.034 262.137 210.657 262.101C210.281 262.064 209.923 261.92 209.623 261.684C209.336 261.274 209.197 260.774 209.23 260.27C208.73 250.405 210.293 240.573 211.42 230.762C213.09 215.784 213.621 200.513 210.74 185.732C210.132 181.926 208.91 178.251 207.124 174.855C204.828 170.831 201.329 167.698 198.288 164.218C193.875 159.149 190.409 153.341 186.964 147.489C184.561 143.432 171.79 127.302 176.99 123.56C185.103 117.654 188.027 134.894 189.335 138.788C190.813 143.204 193.737 146.934 196.853 150.339C204.296 158.507 213.122 165.273 222.021 171.799C223.429 170.258 224.45 168.392 224.999 166.36C226.572 162.01 228.189 157.376 227.37 152.786C226.765 150.273 225.899 147.834 224.786 145.51C222.021 138.668 220.894 130.924 222.904 123.756C224.914 116.588 230.4 110.356 237.461 108.746C238.01 108.561 238.602 108.561 239.152 108.746C239.566 108.953 241.523 108.518 243.564 108.072V178.107C243.309 182.121 243.118 186.036 243.065 189.865Z" fill="#C4C4C4"/>
<path d="M258.674 121.918C258.525 122.94 257.228 124.539 257.717 125.453C258.78 127.334 260.109 128.389 261.13 130.271C261.896 131.663 263.257 130.065 263.725 131.598C264.485 134.394 264.962 137.262 265.15 140.158C265.15 141.67 264.99 143.312 265.841 144.509C266.158 144.932 266.554 145.286 267.007 145.549C267.46 145.813 267.96 145.98 268.478 146.042C269.512 146.15 270.558 146.042 271.551 145.727C272.159 145.622 272.737 145.382 273.246 145.025C273.754 144.669 274.181 144.203 274.496 143.66C274.782 142.835 274.873 141.951 274.762 141.083C274.675 139.986 274.772 138.883 275.049 137.82C275.191 137.282 275.436 136.78 275.77 136.341C276.104 135.902 276.521 135.536 276.995 135.264C277.675 134.976 278.391 134.786 279.122 134.698C281.372 134.309 283.42 133.133 284.917 131.37C286.799 128.999 287.203 125.768 287.288 122.723C287.395 118.437 286.999 114.153 286.108 109.964C285.044 105.113 283.364 101.034 279.249 98.4022C274.624 95.4328 268.201 96.5314 264.012 100.121C259.822 103.71 257.632 109.322 257.164 114.891C256.92 117.556 256.771 120.058 258.674 121.918Z" fill="#FFDAD2"/>
<path d="M263.502 124.681C263.216 124.039 262.859 123.433 262.438 122.875C262.145 122.431 261.702 122.114 261.194 121.983C260.857 121.97 260.524 122.068 260.246 122.265C259.968 122.461 259.76 122.743 259.652 123.071C259.441 123.719 259.393 124.411 259.514 125.083C259.585 126.095 259.864 127.081 260.333 127.976C260.571 128.418 260.907 128.797 261.312 129.084C261.718 129.371 262.184 129.558 262.672 129.629C262.891 129.619 263.109 129.66 263.31 129.749C263.436 129.842 263.54 129.963 263.615 130.102C263.691 130.241 263.735 130.395 263.746 130.554C263.937 131.326 263.906 132.447 263.129 132.555C262.922 132.548 262.719 132.493 262.535 132.395C262.351 132.298 262.191 132.159 262.066 131.99C260.762 130.803 259.595 129.467 258.589 128.009C257.323 125.747 256.426 123.289 255.931 120.732C255.622 119.503 255.356 118.078 256.122 117.078C256.491 116.652 256.949 116.317 257.462 116.099C259.11 115.294 263.48 113.282 263.895 116.251C264.214 118.861 262.268 122.037 263.502 124.681Z" fill="#FF979A"/>
<path d="M276.41 108.191C273.836 111.701 270.302 114.35 266.255 115.805C264.896 116.373 263.463 116.739 262.002 116.893C261.029 116.871 260.057 116.977 259.11 117.208C257.985 117.714 257.002 118.499 256.25 119.492C255.282 117.012 254.304 114.445 254.41 111.781C254.562 109.994 254.989 108.243 255.675 106.592C256.983 103.068 258.685 99.5008 261.662 97.271C264.021 95.6274 266.804 94.7343 269.658 94.7041C271.73 94.6639 273.8 94.8425 275.836 95.2371C278.026 95.6395 278.43 95.9332 278.792 98.239C279.264 101.746 278.412 105.304 276.41 108.191Z" fill="#FF979A"/>
<path d="M293.2 171.483C292.055 173.17 291.223 175.058 290.744 177.052C290.637 177.596 290.52 178.14 290.414 178.673C289.493 183.19 288.578 187.701 287.671 192.204C287.139 194.77 286.48 197.555 284.428 199.121C283.265 199.9 281.952 200.416 280.578 200.633C279.334 200.894 278.069 201.123 276.804 201.307C270.432 202.213 263.956 201.977 257.664 200.611C256.133 200.274 254.474 199.774 253.57 198.436C252.666 197.098 252.815 195.347 252.677 193.748C252.092 186.852 245.893 180.391 248.253 173.898C248.934 172.06 250.21 169.895 250.093 168.155C250.08 167.823 250 167.498 249.859 167.198C249.719 166.899 249.52 166.632 249.274 166.415C248.653 165.926 247.922 165.604 247.148 165.479C241.459 164.044 235.696 162.64 230.411 160.041C225.743 157.581 221.317 154.667 217.194 151.339L201.489 139.44C200.969 139.149 200.513 138.753 200.148 138.276C199.782 137.8 199.515 137.252 199.362 136.667C199.346 136.54 199.346 136.412 199.362 136.286C199.439 135.506 199.706 134.758 200.138 134.111L200.202 133.98C200.532 133.393 200.872 132.795 201.265 132.218C202.627 130.043 204.307 128.085 206.699 127.552C210.197 126.78 213.409 129.423 216.184 131.74C223.499 137.82 231.421 144.65 240.64 146.336C245.986 147.139 251.393 147.438 256.792 147.228C257.439 147.299 258.09 147.146 258.642 146.793C259.652 145.945 259.184 144.237 259.854 143.095C260.524 141.953 262.353 141.779 263.82 141.855C267.903 142.033 271.992 141.73 276.006 140.952C275.762 139.962 277.218 140.419 278.048 140.952C278.421 141.3 278.712 141.731 278.896 142.212C279.081 142.693 279.154 143.211 279.111 143.726C279.019 144.751 279.218 145.782 279.685 146.695C280.465 147.552 281.516 148.099 282.652 148.24C286.008 149.067 289.131 150.679 291.775 152.949C293.274 154.279 294.503 155.898 295.39 157.713C296.042 159.044 296.466 160.478 296.645 161.955C297.07 165.773 295.039 168.503 293.2 171.483Z" fill="#C4C4C4"/>
<path d="M250.348 167.981L250.082 168.177C250.069 167.845 249.99 167.519 249.849 167.22C249.708 166.921 249.509 166.654 249.264 166.436C248.642 165.948 247.911 165.626 247.137 165.501C241.448 164.065 235.685 162.662 230.4 160.063C225.732 157.602 221.306 154.689 217.183 151.361L201.489 139.44C200.969 139.149 200.513 138.753 200.148 138.276C199.782 137.8 199.515 137.252 199.362 136.667C199.346 136.54 199.346 136.412 199.362 136.286C199.564 135.541 199.824 134.814 200.138 134.111L200.202 133.98C200.211 133.616 200.314 133.262 200.501 132.952C200.688 132.643 200.952 132.389 201.265 132.218C202.786 131.391 206.795 134.622 215.95 143.247C231.783 158.137 247.435 155.723 250.348 160.367C253.262 165.012 250.348 167.981 250.348 167.981Z" fill="url(#paint1_linear_17_134)"/>
<path d="M328.577 201.264C328.153 203.554 327.574 205.811 326.843 208.018C326.843 208.105 326.79 208.203 326.758 208.301C326.545 209.179 326.1 209.981 325.472 210.618C324.935 210.98 324.333 211.227 323.701 211.345C323.068 211.463 322.419 211.449 321.793 211.303C316.172 210.612 310.948 207.984 306.981 203.853C305.448 202.195 304.027 200.432 302.727 198.577C298.166 192.301 293.487 185.764 290.382 178.673C288.632 174.82 287.47 170.715 286.937 166.502C286.937 166.143 286.863 165.751 286.831 165.327C286.65 162.608 286.831 158.801 289.096 157.365C290.871 156.201 293.349 156.745 295.38 157.844C296.311 158.327 297.162 158.959 297.9 159.715C300.324 162.26 301.515 165.751 302.695 169.101C304.907 175.334 307.417 181.533 311.287 186.83C315.157 192.127 320.527 196.554 326.822 198.066C327.279 198.138 327.715 198.312 328.098 198.577C328.393 198.947 328.592 199.388 328.675 199.858C328.759 200.327 328.725 200.811 328.577 201.264Z" fill="#C4C4C4"/>
<path d="M322.728 208.105C322.728 209.345 324.174 210.912 325.248 210.335C325.865 210.009 326.769 208.258 326.758 208.301C326.545 209.179 326.1 209.981 325.472 210.618C324.935 210.98 324.333 211.228 323.701 211.345C323.068 211.463 322.419 211.449 321.793 211.303C316.172 210.612 310.948 207.984 306.981 203.853C305.448 202.195 304.027 200.432 302.727 198.577C298.166 192.301 293.487 185.764 290.382 178.673C289.461 183.19 288.546 187.701 287.639 192.204C287.107 194.77 286.448 197.555 284.396 199.121C283.233 199.9 281.92 200.416 280.546 200.633C279.302 200.894 278.037 201.123 276.772 201.307C276.403 200.861 276.134 200.338 275.985 199.774C275.219 196.859 277.835 194.335 279.526 191.845C281.929 188.364 282.716 184.002 283.035 179.75C283.354 175.497 283.311 171.211 284.289 167.078C284.379 166.553 284.603 166.061 284.938 165.653C285.192 165.423 285.504 165.27 285.839 165.212C286.173 165.154 286.517 165.194 286.831 165.327C287.45 165.527 288.027 165.844 288.532 166.262C290.296 167.785 291.855 169.541 293.168 171.483C295.05 174.17 296.666 177.128 298.485 179.858C303.429 187.309 306.013 193.618 312.563 199.632C315.168 202.025 319.634 204.135 322.654 205.8C323.079 206.017 322.696 207.355 322.728 208.105Z" fill="url(#paint2_linear_17_134)"/>
<path d="M205.551 127.476C203.669 127.367 202.254 125.768 201.053 124.278L196.172 118.209C195.469 117.192 194.549 116.352 193.482 115.751C193.334 115.662 193.159 115.635 192.993 115.675C192.909 115.725 192.837 115.793 192.78 115.873C192.723 115.954 192.684 116.045 192.663 116.142C192.387 117.001 192.271 117.905 192.323 118.807C192.377 119.078 192.336 119.359 192.206 119.601C192.075 119.717 191.919 119.798 191.75 119.838C191.581 119.878 191.406 119.875 191.238 119.829L184.582 119.112C183.484 119.19 182.385 118.976 181.392 118.492C180.8 118.247 180.161 118.14 179.523 118.177C178.885 118.215 178.264 118.397 177.702 118.709C176.426 119.666 176.363 121.602 176.745 123.18C177.394 125.712 178.784 127.981 180.731 129.68C182.678 131.38 185.087 132.429 187.634 132.686C190.356 132.903 193.089 132.185 195.8 132.534C197.544 132.762 199.309 133.425 201.01 132.958C203.201 132.316 204.498 129.466 205.551 127.476Z" fill="#FFDAD2"/>
<path d="M258.196 322.91C257.653 325.716 256.707 329.044 253.74 329.534C253.072 329.622 252.393 329.557 251.753 329.342C251.113 329.128 250.527 328.77 250.04 328.294C247.977 326.39 247.477 323.628 247.052 320.974C240.534 280.436 240.863 238.017 254.091 199.23C263.661 199.23 273.518 199.132 283.035 199.11C283.436 199.02 283.852 199.02 284.253 199.109C284.655 199.198 285.033 199.374 285.362 199.626C285.691 199.878 285.963 200.199 286.159 200.568C286.356 200.937 286.472 201.345 286.501 201.764C298.389 242.193 304.29 285.515 295.412 326.728C294.646 330.295 292.966 334.591 289.266 334.635C288.549 334.621 287.843 334.454 287.193 334.145C286.543 333.836 285.963 333.392 285.491 332.84C283.577 330.665 283.194 327.848 282.865 325.096C280.376 304.039 277.473 262.946 270.913 242.824C269.499 243.651 262.002 303.255 258.196 322.91Z" fill="#3F3D56"/>
<path d="M339.412 196.293C339.529 196.291 339.643 196.334 339.731 196.413C339.755 196.468 339.767 196.527 339.767 196.587C339.767 196.647 339.755 196.706 339.731 196.761C339.359 198.425 336.924 198.828 336.424 200.448C336.392 200.528 336.392 200.618 336.424 200.698C336.458 200.752 336.504 200.797 336.557 200.831C336.61 200.864 336.67 200.886 336.732 200.894C338.965 201.384 341.23 200.437 343.463 199.948C345.217 199.603 346.995 199.403 348.78 199.35C349.865 199.241 350.958 199.241 352.044 199.35C352.339 199.364 352.622 199.475 352.852 199.665C352.971 199.815 353.048 199.996 353.076 200.187C353.104 200.378 353.082 200.573 353.012 200.753C352.835 201.117 352.585 201.44 352.278 201.699C350.081 203.852 347.672 205.765 345.09 207.409C343.37 208.67 341.387 209.504 339.298 209.843C337.208 210.183 335.07 210.02 333.053 209.367C330.554 208.812 328.098 208.008 325.61 207.692C325.392 207.682 325.179 207.626 324.983 207.529C324.785 207.396 324.63 207.207 324.536 206.985C324.29 206.469 324.154 205.906 324.136 205.333C324.117 204.759 324.217 204.188 324.43 203.657C325.259 201.481 326.556 200.644 328.683 200.057C331.075 199.371 333.159 197.881 335.467 196.989C336.72 196.478 338.064 196.24 339.412 196.293Z" fill="#FFDAD2"/>
<path d="M286.023 341.444C286.045 342.189 286.193 342.925 286.459 343.619C287.1 344.789 288.124 345.691 289.351 346.164C291.684 347.272 294.222 347.855 296.794 347.872C297.235 347.928 297.682 347.881 298.102 347.734C298.522 347.587 298.904 347.344 299.218 347.024C299.439 346.703 299.572 346.327 299.601 345.936C299.621 345.204 299.49 344.477 299.217 343.8C298.944 343.124 298.535 342.514 298.017 342.009C297.049 340.922 295.89 340.073 294.912 338.997C293.799 337.734 293.016 336.203 292.636 334.548C292.583 334.14 292.449 333.748 292.243 333.395C292.003 333.103 291.696 332.875 291.35 332.732C289.893 332.046 286.267 331.122 285.363 332.993C284.938 333.863 285.544 335.929 285.64 336.886L286.023 341.444Z" fill="#FFDAD2"/>
<path d="M244.266 338.322C243.33 339.41 242.288 340.737 242.629 342.14C242.831 342.737 243.215 343.253 243.723 343.613C244.232 343.973 244.839 344.158 245.457 344.141C246.69 344.092 247.899 343.769 248.998 343.195L252.847 341.531C253.989 341.184 254.98 340.447 255.654 339.443C255.948 338.757 256.093 338.015 256.08 337.267L256.505 329.425C256.558 328.337 256.505 327.065 255.707 326.39C253.506 324.607 250.019 326.836 249.327 329.099C248.342 332.525 246.612 335.678 244.266 338.322Z" fill="#FFDAD2"/>
<path d="M114.733 186.743C120.421 184.666 124.037 178.771 125.472 172.767C126.908 166.763 126.621 160.509 126.971 154.341C127.142 151.361 127.578 148.153 129.63 146.042" stroke="white" stroke-width="0.803381" stroke-miterlimit="10"/>
<path d="M111.936 196L135.51 185.569C142.645 182.404 150.067 179.184 157.84 179.423" stroke="white" stroke-width="0.803381" stroke-miterlimit="10"/>
<path d="M111.543 204.462C118.678 201.558 127.184 199.752 133.755 203.842C138.009 206.474 140.582 211.064 143.942 214.795C147.302 218.525 152.449 221.582 157.031 219.722" stroke="white" stroke-width="0.803381" stroke-miterlimit="10"/>
<path d="M148.078 136.101C149.655 131.696 152.176 127.708 155.458 124.43" stroke="white" stroke-width="0.803381" stroke-miterlimit="10"/>
<path d="M175.799 166.426C180.661 164.025 185.185 160.967 189.25 157.333" stroke="white" stroke-width="0.803381" stroke-miterlimit="10"/>
<path opacity="0.56" d="M177.83 227.379L158.626 236.874V205.027L177.83 195.543V227.379Z" fill="#C4C4C4"/>
<path opacity="0.56" d="M176.192 186.058L156.989 195.543V163.695L176.192 154.211V186.058Z" fill="#C4C4C4"/>
<path opacity="0.56" d="M118.231 217.318L86.5654 232.959V180.467L118.231 164.827V217.318Z" fill="#C4C4C4"/>
<path opacity="0.56" d="M148.355 154.222L129.151 163.706V131.87L148.355 122.385V154.222Z" fill="#C4C4C4"/>
</g>
<defs>
<linearGradient id="paint0_linear_17_134" x1="268.116" y1="107.985" x2="266.403" y2="163.835" gradientUnits="userSpaceOnUse">
<stop offset="0.01"/>
<stop offset="0.13" stop-opacity="0.69"/>
<stop offset="1" stop-opacity="0"/>
</linearGradient>
<linearGradient id="paint1_linear_17_134" x1="259.344" y1="81.5214" x2="214.358" y2="169.22" gradientUnits="userSpaceOnUse">
<stop offset="0.01"/>
<stop offset="1" stop-opacity="0"/>
</linearGradient>
<linearGradient id="paint2_linear_17_134" x1="13180.1" y1="11390.3" x2="12931.8" y2="6924.09" gradientUnits="userSpaceOnUse">
<stop offset="0.01"/>
<stop offset="1" stop-opacity="0"/>
</linearGradient>
<clipPath id="clip0_17_134">
<rect width="489" height="377" fill="white"/>
</clipPath>
</defs>
</svg>
