<svg width="353" height="266" viewBox="0 0 353 266" fill="none" xmlns="http://www.w3.org/2000/svg">
<g clip-path="url(#clip0_31_112)">
<path opacity="0.18" d="M125.008 7.64898C107.664 16.9549 94.9841 33.958 89.3569 52.8204C86.0327 63.9856 84.9921 75.7578 81.1957 86.7688C70.4136 118.087 39.3008 138.462 26.0327 168.827C18.6424 185.734 17.3608 205.434 23.5853 222.774C29.8098 240.115 43.7234 254.825 61.1636 260.952C71.7626 264.709 83.3252 265.268 94.589 265.634C115.787 266.308 137.062 266.385 157.894 262.628C167.809 260.836 177.579 258.187 187.6 257.022C206.967 254.787 226.739 258.187 245.981 255.095C259.384 252.918 272.093 247.639 284.224 241.55C293.34 236.984 302.301 231.917 309.807 224.99C329.684 206.754 337.056 177.198 331.708 150.755C326.36 124.311 309.546 101.094 288.454 84.3316C279.166 76.962 269.049 70.7098 259.307 63.9471C246.768 55.232 234.855 45.6489 223.656 35.2682C196.802 10.3849 162.22 -12.3502 125.008 7.64898Z" fill="#68E1FD"/>
<path d="M74.7014 224.913L73.4681 224.836C69.4308 224.518 66.7233 226.58 63.3219 228.574C59.2751 230.953 54.65 232.264 50.7091 234.759C50.1214 235.134 49.4662 235.828 49.8227 236.425C50.0636 236.82 50.6128 236.878 51.0849 236.888C61.0576 237.08 71.0014 237.119 80.9548 237.119H261.62C268.206 237.092 274.785 236.645 281.314 235.78C281.783 235.766 282.231 235.581 282.573 235.26C282.916 234.94 283.13 234.505 283.175 234.039C283.219 233.572 283.093 233.104 282.817 232.724C282.542 232.345 282.138 232.078 281.681 231.975C276.079 230.048 270.452 228.246 264.799 226.57C250.433 222.254 234.303 224.143 219.513 224.451C203.942 224.788 188.342 225.173 172.781 224.171C161.575 223.449 152.778 224.171 141.533 224.538C133.333 224.778 125.22 225.501 116.991 225.376L87.7671 225.019C83.4119 225.048 79.0277 225.173 74.7014 224.913Z" fill="url(#paint0_linear_31_112)"/>
<path d="M132.215 226.011H205.628L192.639 179.327H143.171L132.215 226.011Z" fill="#68E1FD"/>
<path d="M132.215 226.011H205.628L192.639 179.327H143.171L132.215 226.011Z" fill="url(#paint1_linear_31_112)"/>
<path d="M278.886 54.593V175.012C278.866 178.495 277.465 181.828 274.99 184.281C272.516 186.733 269.17 188.104 265.686 188.094H75.4626C71.9726 188.094 68.6253 186.709 66.1556 184.244C63.686 181.778 62.2961 178.433 62.291 174.944V54.593C62.291 51.1003 63.6787 47.7508 66.1488 45.2811C68.619 42.8114 71.9693 41.424 75.4626 41.424H265.686C267.415 41.4202 269.129 41.757 270.729 42.4153C272.328 43.0736 273.782 44.0405 275.008 45.2606C276.234 46.4808 277.207 47.9304 277.873 49.5267C278.538 51.123 278.883 52.8347 278.886 54.5641V54.593Z" fill="#68E1FD"/>
<path d="M278.886 54.6027V160.157H62.291V54.6027C62.291 51.1092 63.6784 47.7586 66.1483 45.2874C68.6182 42.8162 71.9684 41.4266 75.4626 41.4241H265.686C267.418 41.4228 269.134 41.7627 270.734 42.4243C272.335 43.0859 273.79 44.0563 275.016 45.28C276.242 46.5038 277.214 47.9569 277.879 49.5565C278.543 51.1561 278.885 52.8708 278.886 54.6027Z" fill="#473F47"/>
<path d="M275.63 57.0784V156.631H65.5767V57.0784C65.6047 53.7176 66.9623 50.5045 69.3529 48.1415C71.7434 45.7786 74.9724 44.4579 78.334 44.4682H262.843C266.21 44.4502 269.446 45.7675 271.843 48.1313C274.24 50.4951 275.602 53.7126 275.63 57.0784Z" fill="white"/>
<path opacity="0.18" d="M275.63 57.0784V156.631H65.5767V57.0784C65.6047 53.7176 66.9623 50.5045 69.3529 48.1415C71.7434 45.7786 74.9724 44.4579 78.334 44.4682H262.843C266.21 44.4502 269.446 45.7675 271.843 48.1313C274.24 50.4951 275.602 53.7126 275.63 57.0784Z" fill="#68E1FD"/>
<path d="M251.416 118.357H194.326C189.472 118.357 185.538 122.291 185.538 127.143V170.648C185.538 175.5 189.472 179.434 194.326 179.434H251.416C256.269 179.434 260.203 175.5 260.203 170.648V127.143C260.203 122.291 256.269 118.357 251.416 118.357Z" fill="url(#paint2_linear_31_112)"/>
<path d="M130.462 41.4241V82.5784C130.462 84.096 129.859 85.5515 128.785 86.6246C127.712 87.6978 126.256 88.3007 124.738 88.3007H62.291V54.5834C62.2986 51.094 63.6891 47.7499 66.1579 45.2834C68.6267 42.8169 71.9725 41.4292 75.4626 41.4241H130.462Z" fill="url(#paint3_linear_31_112)"/>
<path d="M111.827 188.094C113.59 179.925 105.207 172.728 105.525 164.376C105.66 160.706 107.452 157.334 109.245 154.117C109.35 153.864 109.536 153.654 109.774 153.519C110.141 153.365 110.545 153.596 110.902 153.77C114.226 155.475 118.456 153.057 120.056 149.685C121.655 146.313 121.356 142.393 121.019 138.684C119.247 140.112 117.132 141.053 114.883 141.411C112.635 141.769 110.333 141.533 108.204 140.726C106.094 139.907 104.099 138.501 101.835 138.51C99.5705 138.52 97.4893 140.052 95.8416 141.699C90.1856 147.354 87.0059 155.118 85.5509 162.989C84.096 170.86 84.4332 179.973 84.5874 187.978L111.827 188.094Z" fill="url(#paint4_linear_31_112)"/>
<path d="M124.738 91.364H224.947C226.736 91.364 228.451 92.0745 229.716 93.3391C230.981 94.6038 231.692 96.319 231.692 98.1075C231.692 99.8959 230.981 101.611 229.716 102.876C228.451 104.14 226.736 104.851 224.947 104.851H124.738V91.364Z" fill="#68E1FD"/>
<path d="M205.638 91.364H124.738V104.793H205.638V91.364Z" fill="white"/>
<path d="M217.634 100.554C219.422 100.554 220.871 99.1052 220.871 97.3175C220.871 95.5299 219.422 94.0807 217.634 94.0807C215.846 94.0807 214.396 95.5299 214.396 97.3175C214.396 99.1052 215.846 100.554 217.634 100.554Z" stroke="white" stroke-width="1.10821" stroke-miterlimit="10"/>
<path d="M220.601 102.587L219.272 100.111" stroke="white" stroke-width="1.10821" stroke-miterlimit="10"/>
<path d="M102.423 225.539C102.394 225.865 102.434 226.192 102.54 226.501C102.646 226.81 102.816 227.093 103.039 227.331C103.279 227.497 103.552 227.609 103.839 227.659C104.6 227.808 105.378 227.856 106.152 227.803C107.597 227.704 109.034 227.498 110.449 227.187L112.877 226.724C113.031 226.719 113.181 226.68 113.319 226.612C113.457 226.544 113.579 226.448 113.677 226.329C113.753 226.174 113.781 225.999 113.757 225.827C113.733 225.655 113.658 225.495 113.542 225.366C113.127 224.887 112.586 224.533 111.981 224.345C110.521 223.751 109.017 223.274 107.481 222.919C107.227 222.88 106.986 222.781 106.778 222.63C106.47 222.36 106.412 221.907 106.2 221.561C105.993 221.254 105.698 221.019 105.353 220.886C105.008 220.754 104.631 220.73 104.273 220.819C103.569 220.954 102.558 221.426 102.346 222.196C102.246 223.31 102.272 224.431 102.423 225.539Z" fill="#F9C6D6"/>
<path d="M110.285 223.218C110.037 223.152 109.775 223.155 109.528 223.224C109.281 223.294 109.057 223.428 108.878 223.613C108.474 224.2 108.994 225.144 108.522 225.674C108.375 225.798 108.204 225.89 108.02 225.944C107.836 225.999 107.643 226.015 107.452 225.992H104.774C104.053 226.026 103.331 225.968 102.625 225.819C102.467 225.751 102.293 225.731 102.124 225.761C102.004 225.794 101.898 225.863 101.817 225.957C101.736 226.051 101.686 226.167 101.671 226.291C101.648 226.537 101.684 226.784 101.777 227.013C101.951 227.502 102.201 227.961 102.519 228.371C102.606 228.493 102.718 228.594 102.847 228.67C102.999 228.734 103.164 228.76 103.328 228.747C104.918 228.747 106.508 228.805 108.146 228.68C109.254 228.603 110.353 228.449 111.451 228.352C113.047 228.355 114.631 228.081 116.134 227.543C116.329 227.477 116.51 227.372 116.664 227.235C116.818 227.097 116.942 226.93 117.03 226.743C117.07 226.578 117.072 226.406 117.037 226.239C117.002 226.072 116.931 225.916 116.828 225.78C116.614 225.498 116.345 225.261 116.038 225.086C115.17 224.527 114.216 224.114 113.214 223.863C112.253 223.584 111.275 223.368 110.285 223.218Z" fill="#565056"/>
<path d="M72.9767 222.572V222.775C73.073 224.913 75.8673 224.971 77.4379 224.894C78.8799 224.79 80.3128 224.584 81.7257 224.277L84.1635 223.815C84.4719 223.794 84.7595 223.652 84.9632 223.42C85.0347 223.263 85.06 223.089 85.0361 222.919C85.0122 222.748 84.9401 222.588 84.8283 222.457C84.4121 221.974 83.8674 221.62 83.2577 221.435C81.9447 220.931 80.6069 220.494 79.2494 220.125C78.0449 219.769 79.0567 218.112 79.1916 217.235C79.2399 217.059 79.2399 216.872 79.1916 216.696C79.0542 216.506 78.852 216.372 78.6231 216.32C77.9215 216.079 77.1872 215.945 76.4454 215.925C76.2953 215.905 76.1428 215.936 76.0119 216.012C75.8965 216.101 75.8095 216.221 75.7613 216.359L73.4392 221.32C73.2091 221.705 73.0523 222.13 72.9767 222.572Z" fill="#F9C6D6"/>
<path d="M73.998 159.579C73.998 159.579 72.2637 169.347 75.8481 176.669C77.7263 180.606 79.827 184.434 82.14 188.133C82.14 188.133 74.6822 196.196 74.6822 206.369C74.6822 216.542 74.4895 216.966 74.4895 216.966L78.9699 219.229L90.1471 188.094C90.1471 188.094 90.8216 183.682 90.1471 182.189C89.4726 180.695 83.7395 163.673 83.7395 163.673L73.998 159.579Z" fill="#473F47"/>
<path d="M114.506 119.975C112.193 119.975 109.688 117.509 108.242 113.704C106.624 109.302 107.327 105.265 109.88 104.321C112.434 103.377 115.585 105.997 117.213 110.4C118.841 114.812 118.177 118.848 115.585 119.792C115.238 119.915 114.873 119.977 114.506 119.975ZM110.96 106.209C110.835 106.209 110.712 106.228 110.593 106.267C109.399 106.71 108.975 109.677 110.198 113.01C111.422 116.344 113.667 118.299 114.862 117.827C116.057 117.355 116.481 114.417 115.267 111.084C114.159 108.136 112.203 106.209 110.96 106.209Z" fill="#473F47"/>
<path d="M123.698 129.657C123.541 129.657 123.387 129.622 123.245 129.555C123.104 129.489 122.979 129.392 122.879 129.272L115.17 119.561C115.085 119.454 115.022 119.331 114.985 119.199C114.948 119.067 114.937 118.929 114.953 118.793C114.969 118.657 115.012 118.526 115.079 118.406C115.146 118.287 115.236 118.182 115.344 118.097C115.557 117.928 115.829 117.85 116.1 117.881C116.371 117.911 116.619 118.048 116.789 118.261L124.497 127.971C124.619 128.123 124.696 128.306 124.718 128.5C124.74 128.694 124.707 128.889 124.622 129.065C124.537 129.24 124.405 129.388 124.239 129.491C124.074 129.594 123.883 129.649 123.688 129.648L123.698 129.657Z" fill="#473F47"/>
<path d="M110.064 115.265C110.183 116.284 110.225 117.312 110.189 118.338C109.985 119.126 109.498 119.812 108.821 120.264C108.144 120.719 107.389 121.046 106.595 121.228C106.421 121.242 106.252 121.295 106.102 121.382C105.951 121.47 105.822 121.59 105.724 121.735C105.626 121.879 105.562 122.043 105.536 122.216C105.509 122.388 105.522 122.564 105.573 122.731V125.361C105.603 125.635 105.535 125.912 105.381 126.141C105.255 126.264 105.099 126.351 104.928 126.391C104.291 126.54 103.621 126.461 103.037 126.167C102.452 125.873 101.989 125.383 101.729 124.783C101.44 124.205 101.112 123.636 100.765 123.087C100.425 122.376 100.219 121.609 100.158 120.823C99.9007 118.302 100.376 115.76 101.527 113.502C102.238 112.058 103.281 110.804 104.571 109.841C105.593 109.109 107.606 108.001 108.657 109.273C109.177 109.908 109.167 110.843 109.62 111.508C109.977 111.989 110.584 112.317 110.69 112.905C110.796 113.492 110.401 113.868 110.218 114.398C110.118 114.676 110.066 114.969 110.064 115.265Z" fill="#F9C6D6"/>
<path d="M117.782 120.573V120.419C117.791 119.816 118.013 119.236 118.408 118.781C118.611 118.561 118.884 118.418 119.181 118.375C119.478 118.333 119.78 118.395 120.036 118.55C120.248 118.694 120.393 118.916 120.624 119.022C120.855 119.128 121.356 119.022 121.588 119.311C121.819 119.6 121.771 119.812 121.886 120.062C122.002 120.313 122.339 120.525 122.561 120.766C123.65 121.941 122.445 124.041 122.012 125.235C121.356 127.027 120.73 128.829 120.181 130.659C119.541 130.756 118.888 130.63 118.331 130.303C118.125 130.181 117.943 130.025 117.791 129.84C117.615 129.523 117.505 129.173 117.469 128.812C117.432 128.451 117.47 128.086 117.579 127.74C117.714 127.212 117.753 126.664 117.695 126.122C117.541 125.535 117.348 124.958 117.117 124.397C116.953 123.925 116.818 123.328 117.194 122.991C117.319 122.875 117.502 122.808 117.608 122.673C117.699 122.533 117.746 122.368 117.743 122.201C117.801 121.623 117.753 121.122 117.782 120.573Z" fill="#F9C6D6"/>
<path d="M96.5354 163.798L107.375 188.094L106.922 222.649L101.95 222.283C101.95 222.283 93.4424 202.631 98.9153 190.493C98.9153 190.493 85.7726 179.26 80.9163 172.863C74.9519 164.993 76.3009 158.413 76.3009 158.413L96.5354 163.798Z" fill="#565056"/>
<path d="M101.555 121.796C102.891 122.095 104.185 122.555 105.41 123.164C109.572 125.091 109.755 128.366 111.191 132.306C112.115 134.813 113.17 137.27 114.351 139.666L116.336 127.798L121.906 130.042C121.906 130.042 122.455 147.575 118.369 149.926C115.739 151.448 112.058 149.675 109.697 148.452C108.83 148.009 107.395 146.67 106.46 146.525C104.677 146.284 104.533 148.394 102.991 149.637C101.96 150.232 100.972 150.898 100.033 151.631C99.1553 152.658 98.4992 153.855 98.1059 155.147C97.6608 156.738 97.5298 158.4 97.7205 160.041C97.7976 161.168 97.8747 162.449 97.0749 163.23C96.6183 163.625 96.0552 163.876 95.4562 163.952C93.4765 164.238 91.4645 164.215 89.4918 163.885C85.5789 163.577 81.7059 162.883 77.9293 161.814C76.5642 161.385 75.2312 160.86 73.9402 160.243C73.6578 160.125 73.3997 159.955 73.179 159.742C72.9405 159.469 72.7806 159.136 72.7165 158.779C72.2058 156.39 73.9306 154.174 74.7978 151.891C75.3759 150.35 75.5686 148.683 76.0985 147.123C76.6767 145.379 77.7558 144.233 78.7194 142.691C79.4999 141.477 79.9335 140.042 80.7139 138.79C82.7986 135.577 85.1208 132.524 87.6611 129.657C89.1521 127.81 90.81 126.104 92.6137 124.561C94.6785 122.751 97.3162 121.727 100.062 121.671C100.562 121.674 101.062 121.716 101.555 121.796Z" fill="white"/>
<path d="M97.1906 101.393C95.5946 101.481 94.0621 102.047 92.7923 103.018C91.5224 103.989 90.5739 105.319 90.07 106.835C89.6364 107.953 89.8098 109.359 89.6364 110.564C89.5587 111.925 89.0024 113.214 88.0658 114.205C86.9095 115.265 85.1752 115.429 83.7009 115.814C81.3402 116.411 78.9892 117.818 78.122 120.101C77.2548 122.384 77.9871 124.715 77.6017 126.998C77.2837 128.899 76.2492 130.606 74.7111 131.767C73.6512 132.547 72.3889 133.039 71.2905 133.78C70.3438 134.492 69.5467 135.384 68.9447 136.404C68.3428 137.424 67.9477 138.553 67.7822 139.726C67.6167 140.899 67.6839 142.093 67.98 143.24C68.2761 144.386 68.7953 145.464 69.5079 146.41L69.6428 146.583C70.049 146.993 70.4258 147.431 70.7702 147.893C71.0848 148.434 71.3711 148.99 71.6277 149.56C72.3786 150.867 73.4805 151.938 74.8088 152.652C76.1371 153.365 77.6386 153.692 79.1434 153.596C80.6437 153.472 82.0996 153.026 83.4116 152.288C84.7236 151.549 85.8609 150.537 86.7457 149.319C88.4319 147.075 89.3569 144.262 91.3997 142.345C92.8264 141.23 94.3265 140.213 95.8898 139.3C98.3276 137.566 100.226 134.782 100.081 131.796C99.9463 129.31 97.8554 126.603 99.7921 124.397C100.514 123.685 101.316 123.057 102.182 122.528C103.053 121.994 103.765 121.235 104.244 120.332C105.207 118.251 103.81 115.621 104.918 113.589C105.737 112.134 107.568 111.594 108.772 110.39C109.415 109.668 109.833 108.773 109.975 107.817C110.117 106.86 109.977 105.883 109.572 105.005C109.149 104.135 108.539 103.37 107.784 102.765C107.029 102.16 106.149 101.731 105.207 101.508C103.811 101.218 102.381 101.124 100.958 101.229L98.5299 101.306C98.0816 101.275 97.6312 101.304 97.1906 101.393Z" fill="#FC682D"/>
<path d="M81.0994 219.885C80.8518 219.818 80.591 219.819 80.3438 219.887C80.0966 219.955 79.8718 220.087 79.6926 220.27C79.2879 220.867 79.8082 221.802 79.3361 222.341C79.1859 222.462 79.013 222.551 78.8276 222.604C78.6423 222.657 78.4483 222.673 78.2569 222.649H75.5493C74.8287 222.679 74.1072 222.621 73.4006 222.476C73.2377 222.415 73.0631 222.392 72.89 222.409C72.7721 222.447 72.6677 222.518 72.5891 222.613C72.5105 222.709 72.4611 222.825 72.4467 222.948C72.4186 223.191 72.4552 223.437 72.5527 223.661C72.7265 224.153 72.9769 224.615 73.2947 225.029C73.3792 225.153 73.4913 225.255 73.6223 225.328C73.7757 225.387 73.9398 225.413 74.104 225.405C75.6939 225.405 77.2837 225.462 78.9218 225.337C80.0202 225.25 81.1186 225.096 82.2267 225.01C83.8223 225.007 85.4058 224.734 86.9096 224.2C87.105 224.134 87.2846 224.027 87.4371 223.888C87.5896 223.749 87.7118 223.58 87.796 223.391C87.8373 223.226 87.8414 223.054 87.8081 222.888C87.7748 222.721 87.7048 222.564 87.6033 222.428C87.3895 222.148 87.1206 221.915 86.8132 221.744C85.9454 221.184 84.9917 220.771 83.99 220.52C83.0425 220.241 82.0766 220.029 81.0994 219.885Z" fill="#565056"/>
<path d="M247.802 114.783H190.712C185.859 114.783 181.925 118.716 181.925 123.569V167.074C181.925 171.926 185.859 175.859 190.712 175.859H247.802C252.656 175.859 256.59 171.926 256.59 167.074V123.569C256.59 118.716 252.656 114.783 247.802 114.783Z" fill="white"/>
<path d="M120.393 22.3401H57.1938C54.0275 22.3401 51.4607 24.9064 51.4607 28.072V77.6845C51.4607 80.8502 54.0275 83.4164 57.1938 83.4164H120.393C123.559 83.4164 126.126 80.8502 126.126 77.6845V28.072C126.126 24.9064 123.559 22.3401 120.393 22.3401Z" fill="#68E1FD"/>
<path d="M246.001 166.573H192.89V127.374H193.853V165.609H246.001V166.573Z" fill="#68E1FD"/>
<path d="M208.027 146.94H201.783V165.609H208.027V146.94Z" fill="#68E1FD"/>
<path d="M220.765 138.799H214.521V165.609H220.765V138.799Z" fill="#68E1FD"/>
<path d="M234.746 133H228.503V165.609H234.746V133Z" fill="#68E1FD"/>
<path d="M115.999 34.9889H61.2503V38.428H115.999V34.9889Z" fill="url(#paint5_linear_31_112)"/>
<path d="M95.3406 45.2966H61.2503V48.7358H95.3406V45.2966Z" fill="url(#paint6_linear_31_112)"/>
<path d="M115.999 55.6045H61.2503V59.0436H115.999V55.6045Z" fill="url(#paint7_linear_31_112)"/>
<path d="M95.3406 65.9124H61.2503V69.3515H95.3406V65.9124Z" fill="url(#paint8_linear_31_112)"/>
</g>
<defs>
<linearGradient id="paint0_linear_31_112" x1="170.276" y1="162.758" x2="160.355" y2="350.168" gradientUnits="userSpaceOnUse">
<stop offset="0.01"/>
<stop offset="0.08" stop-opacity="0.69"/>
<stop offset="0.21" stop-opacity="0.32"/>
<stop offset="1" stop-opacity="0"/>
</linearGradient>
<linearGradient id="paint1_linear_31_112" x1="34094.2" y1="-6675.89" x2="33850.2" y2="-1506.07" gradientUnits="userSpaceOnUse">
<stop offset="0.01"/>
<stop offset="0.08" stop-opacity="0.69"/>
<stop offset="0.21" stop-opacity="0.32"/>
<stop offset="1" stop-opacity="0"/>
</linearGradient>
<linearGradient id="paint2_linear_31_112" x1="26967.3" y1="-13679.9" x2="13696" y2="-4738.78" gradientUnits="userSpaceOnUse">
<stop offset="0.01"/>
<stop offset="0.08" stop-opacity="0.69"/>
<stop offset="0.21" stop-opacity="0.32"/>
<stop offset="1" stop-opacity="0"/>
</linearGradient>
<linearGradient id="paint3_linear_31_112" x1="4386.37" y1="13973.6" x2="11950.7" y2="5293.56" gradientUnits="userSpaceOnUse">
<stop offset="0.01"/>
<stop offset="0.08" stop-opacity="0.69"/>
<stop offset="0.21" stop-opacity="0.32"/>
<stop offset="1" stop-opacity="0"/>
</linearGradient>
<linearGradient id="paint4_linear_31_112" x1="2593.63" y1="9301.56" x2="9722.77" y2="6217.95" gradientUnits="userSpaceOnUse">
<stop offset="0.01"/>
<stop offset="0.08" stop-opacity="0.69"/>
<stop offset="0.21" stop-opacity="0.32"/>
<stop offset="1" stop-opacity="0"/>
</linearGradient>
<linearGradient id="paint5_linear_31_112" x1="5986.72" y1="-801.762" x2="5987.45" y2="-541.728" gradientUnits="userSpaceOnUse">
<stop offset="0.01"/>
<stop offset="0.08" stop-opacity="0.69"/>
<stop offset="0.21" stop-opacity="0.32"/>
<stop offset="1" stop-opacity="0"/>
</linearGradient>
<linearGradient id="paint6_linear_31_112" x1="3378.19" y1="-759.176" x2="3379.18" y2="-539.977" gradientUnits="userSpaceOnUse">
<stop offset="0.01"/>
<stop offset="0.08" stop-opacity="0.69"/>
<stop offset="0.21" stop-opacity="0.32"/>
<stop offset="1" stop-opacity="0"/>
</linearGradient>
<linearGradient id="paint7_linear_31_112" x1="5986.72" y1="-748.779" x2="5987.45" y2="-488.745" gradientUnits="userSpaceOnUse">
<stop offset="0.01"/>
<stop offset="0.08" stop-opacity="0.69"/>
<stop offset="0.21" stop-opacity="0.32"/>
<stop offset="1" stop-opacity="0"/>
</linearGradient>
<linearGradient id="paint8_linear_31_112" x1="3378.19" y1="-706.195" x2="3379.18" y2="-486.996" gradientUnits="userSpaceOnUse">
<stop offset="0.01"/>
<stop offset="0.08" stop-opacity="0.69"/>
<stop offset="0.21" stop-opacity="0.32"/>
<stop offset="1" stop-opacity="0"/>
</linearGradient>
<clipPath id="clip0_31_112">
<rect width="353" height="266" fill="white"/>
</clipPath>
</defs>
</svg>
