<svg width="446" height="460" viewBox="0 0 446 460" fill="none" xmlns="http://www.w3.org/2000/svg">
<path d="M417.013 218.362C416.361 218.362 415.736 218.105 415.275 217.646C414.814 217.188 414.555 216.567 414.555 215.919V206.145C414.555 205.497 414.814 204.876 415.275 204.418C415.736 203.959 416.361 203.702 417.013 203.702C417.665 203.702 418.29 203.959 418.751 204.418C419.212 204.876 419.471 205.497 419.471 206.145V215.919C419.471 216.567 419.212 217.188 418.751 217.646C418.29 218.105 417.665 218.362 417.013 218.362Z" fill="#DFEAEF"/>
<path d="M417.013 240.596C416.361 240.596 415.736 240.339 415.275 239.881C414.814 239.422 414.555 238.801 414.555 238.153V228.38C414.555 227.732 414.814 227.11 415.275 226.652C415.736 226.194 416.361 225.936 417.013 225.936C417.665 225.936 418.29 226.194 418.751 226.652C419.212 227.11 419.471 227.732 419.471 228.38V238.153C419.471 238.801 419.212 239.422 418.751 239.881C418.29 240.339 417.665 240.596 417.013 240.596Z" fill="#DFEAEF"/>
<path d="M433.159 224.544H423.329C422.677 224.544 422.052 224.286 421.591 223.828C421.13 223.37 420.871 222.748 420.871 222.1C420.871 221.452 421.13 220.831 421.591 220.372C422.052 219.914 422.677 219.657 423.329 219.657H433.159C433.811 219.657 434.436 219.914 434.897 220.372C435.357 220.831 435.616 221.452 435.616 222.1C435.616 222.748 435.357 223.37 434.897 223.828C434.436 224.286 433.811 224.544 433.159 224.544Z" fill="#DFEAEF"/>
<path d="M410.796 224.544H400.966C400.314 224.544 399.689 224.286 399.228 223.828C398.767 223.37 398.508 222.748 398.508 222.1C398.508 221.452 398.767 220.831 399.228 220.372C399.689 219.914 400.314 219.657 400.966 219.657H410.796C411.447 219.657 412.072 219.914 412.533 220.372C412.994 220.831 413.253 221.452 413.253 222.1C413.253 222.748 412.994 223.37 412.533 223.828C412.072 224.286 411.447 224.544 410.796 224.544Z" fill="#DFEAEF"/>
<path d="M293.794 25.754C293.142 25.754 292.517 25.4966 292.056 25.0384C291.595 24.5801 291.336 23.9587 291.336 23.3107V13.5373C291.336 12.8893 291.595 12.2678 292.056 11.8096C292.517 11.3514 293.142 11.094 293.794 11.094C294.446 11.094 295.071 11.3514 295.532 11.8096C295.992 12.2678 296.251 12.8893 296.251 13.5373V23.3107C296.251 23.9587 295.992 24.5801 295.532 25.0384C295.071 25.4966 294.446 25.754 293.794 25.754Z" fill="#DFEAEF"/>
<path d="M293.794 48.0128C293.142 48.0128 292.517 47.7553 292.056 47.2971C291.595 46.8389 291.336 46.2174 291.336 45.5694V35.6739C291.336 35.0259 291.595 34.4044 292.056 33.9462C292.517 33.488 293.142 33.2306 293.794 33.2306C294.446 33.2306 295.071 33.488 295.532 33.9462C295.992 34.4044 296.251 35.0259 296.251 35.6739V45.5694C296.251 46.2174 295.992 46.8389 295.532 47.2971C295.071 47.7553 294.446 48.0128 293.794 48.0128Z" fill="#DFEAEF"/>
<path d="M309.94 32.0334H300.11C299.458 32.0334 298.833 31.776 298.372 31.3178C297.911 30.8596 297.652 30.2381 297.652 29.5901C297.652 28.9421 297.911 28.3206 298.372 27.8624C298.833 27.4041 299.458 27.1467 300.11 27.1467H309.94C310.591 27.1467 311.217 27.4041 311.677 27.8624C312.138 28.3206 312.397 28.9421 312.397 29.5901C312.397 30.2381 312.138 30.8596 311.677 31.3178C311.217 31.776 310.591 32.0334 309.94 32.0334Z" fill="#DFEAEF"/>
<path d="M287.576 32.0334H277.746C277.095 32.0334 276.47 31.776 276.009 31.3178C275.548 30.8596 275.289 30.2381 275.289 29.5901C275.289 28.9421 275.548 28.3206 276.009 27.8624C276.47 27.4041 277.095 27.1467 277.746 27.1467H287.576C288.228 27.1467 288.853 27.4041 289.314 27.8624C289.775 28.3206 290.034 28.9421 290.034 29.5901C290.034 30.2381 289.775 30.8596 289.314 31.3178C288.853 31.776 288.228 32.0334 287.576 32.0334Z" fill="#DFEAEF"/>
<path d="M433.626 148.165C432.974 148.165 432.349 147.908 431.888 147.449C431.427 146.991 431.168 146.37 431.168 145.722V127.543C431.168 126.895 431.427 126.274 431.888 125.816C432.349 125.357 432.974 125.1 433.626 125.1C434.277 125.1 434.903 125.357 435.363 125.816C435.824 126.274 436.083 126.895 436.083 127.543V145.722C436.083 146.37 435.824 146.991 435.363 147.449C434.903 147.908 434.277 148.165 433.626 148.165Z" fill="#DFEAEF"/>
<path d="M442.743 139.076H424.558C423.906 139.076 423.281 138.818 422.82 138.36C422.359 137.902 422.1 137.28 422.1 136.632C422.1 135.984 422.359 135.363 422.82 134.905C423.281 134.447 423.906 134.189 424.558 134.189H442.817C443.469 134.189 444.094 134.447 444.554 134.905C445.015 135.363 445.274 135.984 445.274 136.632C445.274 137.28 445.015 137.902 444.554 138.36C444.094 138.818 443.469 139.076 442.817 139.076H442.743Z" fill="#DFEAEF"/>
<path d="M220.531 448.332L366.619 357.007C376.764 350.665 379.818 337.346 373.438 327.259L194.426 44.193C188.047 34.1059 174.651 31.0702 164.505 37.4125L18.4173 128.737C8.27174 135.08 5.21843 148.398 11.5976 158.485L190.61 441.551C196.989 451.639 210.385 454.674 220.531 448.332Z" fill="black"/>
<path d="M209.035 454.119C204.943 454.129 200.915 453.105 197.33 451.143C193.745 449.181 190.72 446.346 188.539 442.904L9.51031 159.844C7.81579 157.178 6.66726 154.205 6.13057 151.096C5.59388 147.987 5.67958 144.804 6.38275 141.728C7.08592 138.653 8.39274 135.745 10.2283 133.173C12.0638 130.6 14.3921 128.413 17.0794 126.737L163.178 35.3807C168.603 31.9999 175.155 30.8961 181.397 32.3115C187.639 33.7268 193.063 37.5457 196.477 42.9306L375.53 325.991C378.946 331.371 380.076 337.879 378.67 344.086C377.265 350.293 373.44 355.692 368.035 359.098L221.937 450.454C218.075 452.873 213.599 454.144 209.035 454.119ZM176.006 36.6024C172.395 36.5921 168.856 37.6095 165.807 39.5344L19.7089 130.866C17.5695 132.201 15.7159 133.943 14.2539 135.991C12.792 138.039 11.7505 140.353 11.189 142.802C10.6276 145.25 10.5571 147.785 10.9817 150.261C11.4063 152.736 12.3176 155.105 13.6635 157.23L192.692 440.29C195.414 444.582 199.737 447.626 204.713 448.753C209.688 449.88 214.911 448.998 219.233 446.301L365.332 354.969C367.469 353.632 369.32 351.889 370.78 349.84C372.24 347.791 373.279 345.476 373.838 343.028C374.397 340.579 374.465 338.045 374.039 335.57C373.612 333.096 372.7 330.729 371.353 328.605L192.324 45.5205C190.589 42.7794 188.18 40.5224 185.325 38.9622C182.471 37.402 179.264 36.5899 176.006 36.6024Z" fill="black"/>
<path d="M241.746 432.198L388.426 341.265C398.613 334.95 401.722 321.62 395.37 311.492L217.127 27.2774C210.775 17.1494 197.368 14.0584 187.181 20.3735L40.5001 111.306C30.3133 117.621 27.2045 130.951 33.5562 141.079L211.8 425.294C218.152 435.422 231.559 438.513 241.746 432.198Z" fill="#ACB7BA"/>
<path d="M231.791 439.899C227.697 439.904 223.669 438.875 220.085 436.909C216.5 434.943 213.476 432.105 211.296 428.66L32.2668 145.6C30.5734 142.932 29.4263 139.958 28.8915 136.848C28.3566 133.738 28.4445 130.554 29.1499 127.478C29.8554 124.403 31.1647 121.495 33.0026 118.924C34.8406 116.352 37.1711 114.167 39.8604 112.492L185.934 21.1605C191.361 17.772 197.919 16.6638 204.167 18.0795C210.416 19.4951 215.843 23.3187 219.258 28.7104L398.287 311.771C401.663 317.154 402.759 323.648 401.336 329.832C399.913 336.017 396.087 341.391 390.693 344.78L244.595 436.112L243.292 434.059L244.595 436.112C240.773 438.553 236.333 439.866 231.791 439.899ZM198.762 22.26C195.153 22.2619 191.617 23.2783 188.564 25.192L42.4654 116.548C40.3235 117.881 38.4674 119.622 37.0036 121.669C35.5399 123.717 34.4972 126.032 33.9355 128.482C33.3738 130.931 33.3042 133.467 33.7305 135.943C34.1569 138.419 35.0708 140.788 36.4199 142.912L215.473 425.972C218.19 430.263 222.509 433.306 227.481 434.433C232.452 435.56 237.671 434.679 241.99 431.983L388.088 340.626C392.404 337.925 395.465 333.632 396.598 328.688C397.732 323.745 396.845 318.557 394.134 314.263L215.08 31.3004C213.744 29.1715 211.996 27.3279 209.937 25.8766C207.879 24.4253 205.55 23.3953 203.088 22.8464C201.674 22.4822 200.222 22.2854 198.762 22.26Z" fill="black"/>
<path d="M219.481 392.017L361.554 303.202C366.862 299.884 368.459 292.915 365.122 287.638L223.194 63.2119C219.856 57.9342 212.847 56.3458 207.539 59.6642L65.4661 148.479C60.1578 151.797 58.5602 158.766 61.8978 164.044L203.826 388.469C207.163 393.747 214.172 395.335 219.481 392.017Z" fill="white"/>
<path d="M213.458 396.237C211.123 396.242 208.824 395.658 206.778 394.538C204.732 393.418 203.005 391.8 201.761 389.835L59.7908 165.391C58.8261 163.865 58.1733 162.166 57.8698 160.389C57.5663 158.613 57.618 156.795 58.022 155.038C58.426 153.282 59.1743 151.622 60.2242 150.153C61.2741 148.684 62.6049 147.436 64.1405 146.479L206.233 57.6395C209.33 55.7067 213.072 55.074 216.638 55.8801C220.204 56.6863 223.302 58.8654 225.254 61.9398L367.224 286.384C369.159 289.468 369.788 293.189 368.973 296.732C368.158 300.276 365.965 303.355 362.874 305.296L220.782 394.16C218.587 395.526 216.048 396.246 213.458 396.237ZM213.557 60.4005C211.885 60.4043 210.249 60.8787 208.838 61.7687L66.7455 150.608C65.7526 151.226 64.8926 152.033 64.215 152.982C63.5374 153.932 63.0556 155.006 62.7975 156.142C62.5393 157.277 62.5099 158.453 62.7108 159.6C62.9118 160.747 63.3393 161.843 63.9685 162.825L205.84 387.245C207.103 389.229 209.106 390.633 211.41 391.151C213.713 391.668 216.129 391.257 218.127 390.006L360.22 301.167C361.213 300.549 362.073 299.742 362.751 298.792C363.428 297.843 363.91 296.769 364.168 295.633C364.426 294.498 364.456 293.322 364.255 292.175C364.054 291.028 363.626 289.932 362.997 288.95L221.101 64.5541C220.482 63.5694 219.672 62.7167 218.718 62.0456C217.765 61.3746 216.687 60.8984 215.547 60.6448C214.897 60.4795 214.228 60.3974 213.557 60.4005Z" fill="black"/>
<path d="M155.707 73.5456C157.634 73.5456 159.197 71.9922 159.197 70.076C159.197 68.1599 157.634 66.6065 155.707 66.6065C153.78 66.6065 152.217 68.1599 152.217 70.076C152.217 71.9922 153.78 73.5456 155.707 73.5456Z" fill="black"/>
<path d="M94.3432 110.88C93.8081 110.881 93.2871 110.709 92.8593 110.39C92.4314 110.07 92.1202 109.621 91.9728 109.109C91.8255 108.598 91.85 108.053 92.0428 107.556C92.2355 107.06 92.5859 106.64 93.0408 106.36L140.274 76.8196C140.548 76.6496 140.854 76.5349 141.172 76.4822C141.491 76.4294 141.818 76.4396 142.132 76.5122C142.447 76.5848 142.745 76.7184 143.008 76.9053C143.271 77.0922 143.494 77.3288 143.665 77.6015C143.836 77.8742 143.952 78.1778 144.005 78.4948C144.058 78.8119 144.047 79.1362 143.974 79.4493C143.901 79.7624 143.767 80.0582 143.579 80.3196C143.391 80.5811 143.153 80.8032 142.879 80.9733L95.6457 110.513C95.2546 110.754 94.8033 110.881 94.3432 110.88Z" fill="black"/>
<path d="M302.739 381.552C310.855 381.552 317.435 375.011 317.435 366.941C317.435 358.872 310.855 352.33 302.739 352.33C294.623 352.33 288.043 358.872 288.043 366.941C288.043 375.011 294.623 381.552 302.739 381.552Z" fill="black"/>
<path d="M82.5964 267.424C82.0685 267.418 81.5568 267.242 81.137 266.924C80.7172 266.606 80.4116 266.162 80.2655 265.657C80.1194 265.153 80.1405 264.615 80.3257 264.124C80.5109 263.632 80.8504 263.213 81.2939 262.928L92.7704 255.745C93.0428 255.547 93.3533 255.407 93.6826 255.333C94.0118 255.26 94.3528 255.254 94.6842 255.318C95.0156 255.381 95.3305 255.511 95.609 255.701C95.8875 255.89 96.1237 256.135 96.3031 256.419C96.4824 256.703 96.6009 257.021 96.6512 257.353C96.7015 257.685 96.6826 258.023 96.5956 258.347C96.5085 258.671 96.3552 258.974 96.1453 259.237C95.9354 259.5 95.6733 259.717 95.3754 259.874L83.8988 267.058C83.5078 267.299 83.0565 267.426 82.5964 267.424Z" fill="black"/>
<path d="M347.269 293.47C346.858 293.469 346.453 293.366 346.093 293.17C345.732 292.973 345.427 292.69 345.205 292.346L307.556 233.12C307.207 232.572 307.092 231.909 307.234 231.277C307.377 230.645 307.767 230.095 308.318 229.748C308.868 229.401 309.535 229.286 310.171 229.428C310.807 229.57 311.36 229.958 311.709 230.505L349.358 289.683C349.531 289.954 349.648 290.256 349.703 290.573C349.758 290.889 349.75 291.213 349.68 291.526C349.609 291.839 349.477 292.135 349.291 292.397C349.105 292.66 348.869 292.883 348.596 293.055C348.199 293.308 347.741 293.451 347.269 293.47Z" fill="#DFEAEF"/>
<path d="M111.644 205.29C111.233 205.29 110.828 205.186 110.468 204.99C110.107 204.794 109.802 204.51 109.58 204.166L102.035 192.512C101.857 192.24 101.735 191.936 101.675 191.617C101.616 191.299 101.622 190.971 101.691 190.655C101.76 190.34 101.892 190.042 102.077 189.778C102.263 189.513 102.499 189.288 102.772 189.115L228.842 109.927C229.388 109.586 230.047 109.471 230.676 109.608C231.306 109.745 231.857 110.123 232.209 110.66L263.567 157.474C263.768 157.74 263.912 158.043 263.991 158.366C264.07 158.689 264.081 159.024 264.025 159.352C263.969 159.68 263.847 159.992 263.665 160.271C263.484 160.55 263.246 160.789 262.969 160.974C262.691 161.159 262.378 161.285 262.049 161.345C261.721 161.406 261.383 161.399 261.057 161.325C260.732 161.252 260.424 161.112 260.154 160.917C259.884 160.721 259.657 160.472 259.487 160.186L229.457 115.351L107.54 191.925L113.733 201.527C114.084 202.072 114.203 202.733 114.065 203.365C113.927 203.997 113.542 204.549 112.996 204.899C112.593 205.158 112.123 205.294 111.644 205.29Z" fill="#DFEAEF"/>
<path d="M172.565 266.374C172.228 266.372 171.895 266.302 171.587 266.168C171.278 266.033 171.001 265.837 170.771 265.592C170.33 265.118 170.095 264.489 170.118 263.844C170.141 263.198 170.42 262.588 170.894 262.147L268.039 171.743C268.515 171.299 269.149 171.062 269.801 171.082C270.453 171.103 271.07 171.38 271.517 171.853C271.963 172.326 272.202 172.956 272.182 173.605C272.161 174.253 271.882 174.867 271.406 175.31L174.237 265.714C173.783 266.136 173.186 266.371 172.565 266.374Z" fill="black"/>
<path d="M253.982 309.645C253.56 309.644 253.146 309.534 252.778 309.327C252.496 309.172 252.247 308.962 252.046 308.711C251.845 308.46 251.695 308.172 251.606 307.863C251.517 307.555 251.49 307.232 251.527 306.913C251.564 306.594 251.663 306.285 251.82 306.004L309.055 204.85C309.381 204.287 309.919 203.875 310.55 203.705C311.181 203.536 311.855 203.622 312.422 203.946C312.989 204.27 313.403 204.805 313.574 205.433C313.744 206.06 313.657 206.73 313.331 207.294L256.071 308.448C255.856 308.809 255.551 309.109 255.185 309.318C254.819 309.528 254.405 309.641 253.982 309.645Z" fill="black"/>
<path d="M214.564 227.28C214.155 227.282 213.752 227.183 213.392 226.991C213.031 226.799 212.725 226.52 212.5 226.181C210.016 222.059 206.67 218.517 202.688 215.794C198.707 213.07 194.183 211.23 189.424 210.397C176.399 208.198 160.057 213.451 145.705 224.446C145.363 224.715 144.955 224.888 144.523 224.948C144.091 225.008 143.651 224.953 143.247 224.788C142.851 224.632 142.503 224.377 142.235 224.048C141.968 223.718 141.792 223.325 141.724 222.907C140.842 218.47 138.71 214.374 135.578 211.095C132.445 207.817 128.441 205.49 124.03 204.386C119.49 203.347 114.776 203.321 110.225 204.309C105.674 205.298 101.4 207.277 97.71 210.104C97.4488 210.293 97.1525 210.43 96.838 210.506C96.5235 210.582 96.1971 210.595 95.8774 210.545C95.5577 210.495 95.2511 210.383 94.9752 210.215C94.6993 210.047 94.4594 209.826 94.2695 209.566C93.8887 209.046 93.7294 208.398 93.826 207.762C93.9226 207.127 94.2674 206.554 94.7855 206.17C99.0722 202.917 104.029 200.645 109.301 199.517C114.573 198.39 120.03 198.434 125.283 199.646C129.966 200.87 134.276 203.216 137.836 206.478C141.396 209.741 144.098 213.821 145.705 218.362C160.45 207.929 176.596 203.262 190.21 205.559C195.646 206.501 200.815 208.591 205.368 211.689C209.921 214.787 213.753 218.821 216.604 223.517C216.842 223.886 216.976 224.312 216.991 224.75C217.007 225.188 216.904 225.622 216.693 226.007C216.482 226.392 216.171 226.713 215.792 226.937C215.413 227.161 214.98 227.279 214.54 227.28H214.564Z" fill="black"/>
<path d="M183.723 275.438C183.137 275.438 182.57 275.23 182.125 274.852C159.541 255.941 126.02 266.691 125.603 266.789C124.987 266.99 124.316 266.942 123.736 266.653C123.156 266.365 122.714 265.86 122.506 265.25C122.402 264.945 122.36 264.623 122.381 264.301C122.403 263.98 122.488 263.666 122.632 263.378C122.776 263.09 122.975 262.833 123.219 262.621C123.464 262.41 123.747 262.249 124.054 262.147C125.529 261.682 160.499 250.443 185.222 271.114C185.611 271.435 185.892 271.867 186.025 272.353C186.158 272.838 186.137 273.353 185.965 273.826C185.793 274.299 185.478 274.708 185.063 274.996C184.649 275.285 184.155 275.439 183.649 275.438H183.723Z" fill="black"/>
<path d="M329.845 319.858C329.222 319.86 328.622 319.626 328.166 319.204C327.71 318.782 327.432 318.204 327.388 317.586C327.332 316.061 326.953 314.566 326.276 313.197C325.598 311.829 324.637 310.618 323.456 309.645C319.376 306.298 312.078 304.954 303.403 305.955C302.999 306.001 302.591 305.946 302.214 305.795C301.837 305.645 301.503 305.404 301.242 305.095C300.982 304.785 300.803 304.416 300.721 304.02C300.639 303.624 300.657 303.215 300.773 302.828C301.951 298.954 302.245 294.868 301.633 290.867C301.022 286.867 299.522 283.052 297.241 279.7C294.96 276.348 291.956 273.545 288.447 271.493C284.939 269.441 281.015 268.193 276.96 267.839C276.308 267.781 275.706 267.468 275.287 266.968C274.868 266.469 274.665 265.824 274.724 265.176C274.782 264.528 275.098 263.93 275.6 263.513C276.102 263.096 276.751 262.894 277.402 262.953C281.888 263.34 286.242 264.657 290.185 266.819C294.127 268.981 297.571 271.94 300.293 275.505C303.016 279.071 304.957 283.163 305.992 287.52C307.027 291.877 307.133 296.4 306.303 300.8C312.397 300.482 320.826 301.118 326.577 305.858C328.276 307.25 329.663 308.979 330.649 310.936C331.635 312.893 332.199 315.033 332.303 317.219C332.326 317.54 332.286 317.863 332.183 318.168C332.081 318.473 331.919 318.756 331.707 318.999C331.494 319.242 331.236 319.44 330.946 319.584C330.656 319.727 330.34 319.812 330.017 319.834L329.845 319.858Z" fill="black"/>
<path d="M305.393 322.301C304.793 322.306 304.212 322.093 303.76 321.701C303.307 321.31 303.014 320.767 302.936 320.176C302.185 315.095 299.905 310.359 296.396 306.591C292.887 302.823 288.313 300.2 283.276 299.065C282.959 298.999 282.659 298.87 282.392 298.688C282.126 298.506 281.898 298.273 281.722 298.002C281.546 297.732 281.426 297.43 281.368 297.114C281.31 296.797 281.315 296.472 281.384 296.158C281.451 295.843 281.58 295.544 281.763 295.279C281.947 295.014 282.181 294.788 282.453 294.613C282.724 294.438 283.028 294.318 283.347 294.261C283.665 294.203 283.992 294.208 284.308 294.276C290.316 295.653 295.766 298.802 299.945 303.31C304.124 307.817 306.837 313.474 307.728 319.54C307.812 320.182 307.636 320.83 307.24 321.343C306.844 321.856 306.259 322.192 305.615 322.277L305.393 322.301Z" fill="black"/>
<path d="M295.858 108.094C287.483 106.18 278.796 106.039 270.362 107.681C261.928 109.323 253.936 112.71 246.905 117.623C226.237 131.624 213.557 152.441 204.071 173.625C203.727 174.414 203.662 175.295 203.886 176.126C204.11 176.957 204.61 177.688 205.305 178.2C206 178.712 206.848 178.976 207.713 178.948C208.577 178.921 209.407 178.603 210.067 178.047C217.285 171.282 226.407 166.867 236.215 165.391C255.432 163.094 263.468 171.108 263.468 171.108L295.858 108.094Z" fill="#E2DF00"/>
<path d="M207.585 181.468C206.245 181.459 204.944 181.022 203.874 180.222C202.688 179.397 201.834 178.182 201.46 176.792C201.087 175.402 201.22 173.925 201.834 172.623C209.403 155.715 222.182 131.404 245.529 115.595C252.856 110.466 261.195 106.942 269.994 105.258C278.793 103.573 287.852 103.765 296.571 105.822C296.914 105.926 297.231 106.103 297.498 106.342C297.765 106.581 297.976 106.874 298.116 107.203C298.257 107.531 298.323 107.886 298.311 108.243C298.299 108.599 298.208 108.949 298.045 109.267L265.656 172.281C265.48 172.629 265.224 172.93 264.907 173.16C264.591 173.389 264.224 173.54 263.837 173.6C263.454 173.656 263.062 173.621 262.695 173.498C262.327 173.375 261.995 173.167 261.724 172.892C261.724 172.892 254.105 165.781 236.51 168.005C227.192 169.381 218.531 173.589 211.713 180.051C210.554 181.002 209.088 181.505 207.585 181.468ZM282.686 109.023C270.4 109.022 258.403 112.728 248.281 119.651C225.992 134.727 213.655 158.256 206.307 174.602C206.17 174.892 206.141 175.221 206.227 175.531C206.313 175.84 206.507 176.108 206.774 176.288C207.004 176.492 207.301 176.605 207.609 176.605C207.918 176.605 208.215 176.492 208.445 176.288C216.006 169.155 225.605 164.529 235.92 163.045C250.124 161.335 258.652 165.024 262.584 167.492L292.221 109.878C289.074 109.317 285.883 109.031 282.686 109.023Z" fill="black"/>
<path d="M366.094 159.087C370.473 166.437 373.248 174.621 374.239 183.107C375.229 191.594 374.414 200.192 371.844 208.344C364.717 232.191 348.596 250.516 331.197 265.934C330.55 266.523 329.719 266.872 328.844 266.922C327.968 266.972 327.102 266.72 326.391 266.209C325.681 265.698 325.169 264.959 324.944 264.116C324.718 263.274 324.791 262.379 325.152 261.585C329.441 252.701 330.89 242.725 329.305 232.998C325.668 214.086 315.567 208.906 315.567 208.906L366.094 159.087Z" fill="#E2DF00"/>
<path d="M328.715 269.428C327.369 269.416 326.061 268.979 324.98 268.182C323.811 267.36 322.968 266.158 322.596 264.784C322.223 263.41 322.345 261.95 322.94 260.656C327.056 252.234 328.455 242.753 326.946 233.511C323.628 216.187 314.658 211.179 314.486 211.13C314.142 210.952 313.845 210.696 313.62 210.382C313.395 210.068 313.247 209.706 313.19 209.324C313.132 208.943 313.166 208.554 313.289 208.188C313.412 207.822 313.62 207.491 313.896 207.22L364.422 157.401C364.678 157.146 364.986 156.951 365.326 156.828C365.666 156.706 366.028 156.659 366.388 156.692C366.747 156.726 367.093 156.838 367.403 157.019C367.713 157.201 367.979 157.448 368.182 157.743C372.783 165.383 375.703 173.907 376.75 182.751C377.796 191.595 376.945 200.559 374.252 209.053C366.216 235.93 346.802 255.476 332.893 267.693C331.769 268.773 330.277 269.392 328.715 269.428ZM319.426 208.662C322.964 211.643 329.084 218.606 331.713 232.582C333.408 242.806 331.889 253.301 327.363 262.635C327.224 262.907 327.193 263.221 327.275 263.515C327.357 263.808 327.546 264.061 327.806 264.223C328.047 264.433 328.357 264.549 328.678 264.549C328.999 264.549 329.309 264.433 329.551 264.223C342.993 252.3 361.768 233.462 369.46 207.782C374.014 192.946 372.623 176.934 365.577 163.094L319.426 208.662Z" fill="black"/>
<path d="M394.601 133.823C366.069 172.647 338.545 196.885 312.225 211.863L261.699 175.213C268.088 145.893 282.932 112.297 311.463 73.4967C321.74 59.4021 333.996 46.8459 347.859 36.2114C387.892 5.66978 426.745 3.37305 426.745 3.37305C426.745 3.37305 436.378 40.8782 419.249 88.0834C413.263 104.418 404.963 119.819 394.601 133.823Z" fill="#E2DF00"/>
<path d="M312.225 214.306C311.702 214.301 311.194 214.13 310.775 213.817L260.249 177.167C259.872 176.893 259.582 176.517 259.412 176.084C259.242 175.652 259.2 175.18 259.291 174.724C266.442 141.861 282.858 108.29 309.473 72.104C319.887 57.8309 332.3 45.111 346.335 34.3301C386.515 3.66629 424.975 1.07635 426.573 1.00305C427.131 0.985498 427.678 1.15742 428.125 1.4905C428.572 1.82358 428.891 2.29797 429.03 2.83555C429.423 4.37485 438.639 41.5868 421.461 88.9631C415.409 105.547 406.992 121.182 396.468 135.386C369.878 171.597 342.674 197.349 313.356 214.086C313.002 214.247 312.614 214.323 312.225 214.306ZM264.451 174.113L312.373 208.931C340.56 192.511 366.831 167.394 392.61 132.381C402.842 118.542 411.034 103.321 416.939 87.1794C426.619 61.2476 429.329 33.2545 424.803 5.96303C397.279 9.97608 371.279 21.0403 349.358 38.0684C335.682 48.5717 323.583 60.9622 313.429 74.865C287.65 109.927 271.627 142.423 264.451 174.113Z" fill="black"/>
<path d="M302.223 235.099L242.457 191.681L261.748 175.188L312.176 211.814L302.223 235.099Z" fill="black"/>
<path d="M302.248 237.542C301.727 237.544 301.219 237.381 300.798 237.078L241.007 193.66C240.717 193.433 240.477 193.149 240.303 192.825C240.13 192.501 240.026 192.145 239.999 191.779C239.985 191.409 240.054 191.041 240.203 190.703C240.352 190.364 240.577 190.064 240.859 189.824L260.151 173.331C260.587 172.984 261.128 172.795 261.687 172.795C262.245 172.795 262.787 172.984 263.223 173.331L313.626 209.981C314.074 210.307 314.399 210.774 314.546 211.307C314.693 211.839 314.655 212.405 314.437 212.913L304.607 236.198C304.46 236.537 304.238 236.839 303.957 237.08C303.676 237.321 303.344 237.496 302.985 237.591C302.738 237.62 302.488 237.603 302.248 237.542ZM246.413 191.51L301.191 231.312L309.153 212.645L261.896 178.291L246.413 191.51Z" fill="black"/>
<path d="M355.625 126.688C370.405 126.688 382.387 114.775 382.387 100.08C382.387 85.385 370.405 73.4723 355.625 73.4723C340.844 73.4723 328.862 85.385 328.862 100.08C328.862 114.775 340.844 126.688 355.625 126.688Z" fill="#949352"/>
<path d="M355.575 129.131C349.011 129.118 342.641 126.908 337.495 122.856C332.348 118.804 328.723 113.147 327.205 106.797C325.687 100.447 326.365 93.7737 329.128 87.8529C331.891 81.9322 336.579 77.109 342.436 74.161C348.293 71.213 354.978 70.312 361.413 71.6031C367.848 72.8942 373.659 76.3022 377.908 81.2778C382.157 86.2534 384.596 92.5066 384.834 99.0294C385.071 105.552 383.093 111.964 379.217 117.232C376.502 120.932 372.944 123.939 368.835 126.007C364.725 128.076 360.181 129.146 355.575 129.131ZM355.747 76.0134C349.968 76.0103 344.377 78.057 339.98 81.7855C335.582 85.5139 332.667 90.6797 331.757 96.3542C330.847 102.029 332.003 107.84 335.017 112.742C338.031 117.645 342.705 121.318 348.199 123.102C353.693 124.885 359.647 124.661 364.99 122.471C370.333 120.28 374.715 116.267 377.348 111.152C379.981 106.037 380.693 100.156 379.355 94.5659C378.017 88.9759 374.718 84.0436 370.05 80.6557C365.896 77.6431 360.889 76.0178 355.747 76.0134Z" fill="black"/>
<path d="M419.249 88.0101L347.982 36.1382C388.014 5.59653 426.868 3.2998 426.868 3.2998C426.868 3.2998 436.378 40.805 419.249 88.0101Z" fill="#615F5F"/>
<path d="M419.249 90.4535C418.73 90.4458 418.225 90.2842 417.799 89.9892L346.409 38.1173C346.104 37.8897 345.856 37.5946 345.685 37.2553C345.515 36.916 345.426 36.5419 345.426 36.1626C345.426 35.7833 345.515 35.4092 345.685 35.0699C345.856 34.7306 346.104 34.4355 346.409 34.2079C386.589 3.54409 425.049 0.954162 426.646 0.880862C427.204 0.863305 427.752 1.03523 428.199 1.36831C428.645 1.70139 428.965 2.17578 429.104 2.71336C429.497 4.25266 438.713 41.4646 421.535 88.8409C421.408 89.1971 421.2 89.5192 420.927 89.7821C420.655 90.0449 420.324 90.2413 419.962 90.3557C419.73 90.4229 419.49 90.4558 419.249 90.4535ZM351.987 36.1137L418.02 84.1008C426.815 59.0111 429.147 32.1305 424.803 5.91413C398.373 9.76896 373.338 20.1522 351.987 36.1137Z" fill="black"/>
<path d="M330.103 144.097C331.913 141.634 331.377 138.183 328.906 136.387C326.435 134.592 322.965 135.132 321.155 137.595L262.269 217.705C260.459 220.167 260.995 223.619 263.466 225.414C265.937 227.21 269.408 226.669 271.217 224.207L330.103 144.097Z" fill="#FFBC0E"/>
<path d="M266.761 228.917C265.286 228.911 263.841 228.499 262.586 227.728C261.331 226.957 260.314 225.856 259.648 224.547C258.982 223.238 258.693 221.772 258.812 220.309C258.931 218.847 259.454 217.446 260.323 216.261L319.303 136.144C319.911 135.293 320.686 134.572 321.581 134.026C322.477 133.481 323.474 133.12 324.513 132.967C326.079 132.717 327.685 132.936 329.126 133.597C330.567 134.258 331.777 135.33 332.602 136.677C333.428 138.025 333.831 139.586 333.76 141.162C333.689 142.738 333.148 144.257 332.205 145.526L273.225 225.643C271.971 227.348 270.089 228.49 267.99 228.819C267.583 228.875 267.173 228.908 266.761 228.917ZM325.741 137.756H325.25C324.848 137.822 324.463 137.966 324.118 138.18C323.772 138.394 323.472 138.673 323.235 139.002L264.255 219.119C264.015 219.443 263.843 219.811 263.746 220.201C263.65 220.592 263.632 220.997 263.694 221.394C263.755 221.791 263.895 222.173 264.105 222.516C264.316 222.859 264.592 223.158 264.918 223.395C265.58 223.877 266.407 224.079 267.218 223.955C268.029 223.831 268.758 223.393 269.244 222.736L328.224 142.619C328.566 142.165 328.774 141.625 328.825 141.06C328.877 140.495 328.769 139.928 328.514 139.42C328.258 138.913 327.866 138.486 327.381 138.188C326.896 137.89 326.337 137.732 325.766 137.732L325.741 137.756Z" fill="black"/>
<path d="M367.347 117.33C366.817 117.329 366.302 117.157 365.878 116.841C365.454 116.524 365.144 116.08 364.995 115.575C364.846 115.069 364.865 114.529 365.05 114.035C365.234 113.542 365.575 113.12 366.02 112.834C368.554 110.686 370.435 107.876 371.451 104.723C374.326 97.0016 368.379 90.3802 368.133 90.0625C367.69 89.5863 367.455 88.9544 367.481 88.3061C367.506 87.6577 367.789 87.0459 368.268 86.6052C368.748 86.1646 369.383 85.9312 370.035 85.9564C370.687 85.9816 371.303 86.2633 371.746 86.7396C372.09 87.1061 380.003 95.7799 376.046 106.286C374.703 110.444 372.135 114.104 368.674 116.793C368.295 117.099 367.833 117.286 367.347 117.33Z" fill="white"/>
<path d="M357.91 121.777C357.258 121.816 356.618 121.596 356.129 121.165C355.641 120.734 355.344 120.128 355.305 119.48C355.266 118.832 355.487 118.195 355.921 117.71C356.354 117.224 356.963 116.929 357.615 116.89C359.21 116.61 360.769 116.151 362.26 115.522C362.849 115.302 363.501 115.315 364.08 115.558C364.66 115.802 365.124 116.257 365.376 116.831C365.628 117.404 365.649 118.052 365.435 118.64C365.221 119.229 364.788 119.713 364.226 119.993C362.304 120.813 360.291 121.404 358.229 121.753L357.91 121.777Z" fill="white"/>
<path d="M82.3998 164.193C81.8657 164.203 81.3429 164.039 80.9109 163.726C80.4788 163.414 80.161 162.97 80.0054 162.462C79.8498 161.954 79.8651 161.409 80.0488 160.91C80.2326 160.411 80.5748 159.986 81.0236 159.698L92.4265 152.196C92.6957 152.018 92.9977 151.893 93.3154 151.831C93.6331 151.768 93.96 151.769 94.2775 151.833C94.5949 151.896 94.8966 152.021 95.1651 152.201C95.4337 152.381 95.6639 152.612 95.8424 152.881C96.1981 153.419 96.3253 154.076 96.1964 154.707C96.0676 155.339 95.693 155.894 95.1543 156.252L83.7515 163.778C83.3516 164.045 82.8816 164.19 82.3998 164.193Z" fill="#DFEAEF"/>
<path d="M88.4943 172.036C88.0918 172.037 87.6952 171.939 87.3396 171.752C86.9839 171.564 86.68 171.293 86.4546 170.961C86.2746 170.694 86.1497 170.393 86.0868 170.077C86.024 169.762 86.0246 169.437 86.0886 169.121C86.1525 168.805 86.2786 168.505 86.4595 168.238C86.6404 167.971 86.8725 167.743 87.1427 167.565L97.3413 160.821C97.8856 160.462 98.5512 160.332 99.1918 160.46C99.8324 160.588 100.396 160.964 100.757 161.506C101.119 162.047 101.25 162.708 101.121 163.345C100.992 163.982 100.613 164.542 100.069 164.902L89.8705 171.645C89.461 171.909 88.9819 172.045 88.4943 172.036Z" fill="#DFEAEF"/>
<path d="M94.122 179.928C93.5969 179.924 93.087 179.753 92.6669 179.44C92.2468 179.127 91.9386 178.688 91.7875 178.188C91.6363 177.688 91.6502 177.153 91.8271 176.662C92.004 176.17 92.3346 175.748 92.7704 175.457L102.969 168.713C103.236 168.514 103.541 168.37 103.866 168.292C104.191 168.213 104.528 168.202 104.858 168.257C105.187 168.313 105.502 168.435 105.782 168.615C106.063 168.796 106.303 169.032 106.489 169.308C106.675 169.584 106.802 169.895 106.863 170.222C106.923 170.549 106.917 170.884 106.842 171.208C106.768 171.532 106.628 171.838 106.431 172.106C106.234 172.375 105.985 172.6 105.697 172.769L95.4982 179.513C95.0914 179.785 94.6121 179.929 94.122 179.928Z" fill="#DFEAEF"/>
<path d="M136.366 138.294C135.839 138.287 135.327 138.112 134.907 137.794C134.487 137.476 134.182 137.031 134.036 136.527C133.889 136.023 133.911 135.485 134.096 134.994C134.281 134.502 134.62 134.083 135.064 133.798L210.755 86.0799C211.028 85.9082 211.332 85.7917 211.65 85.7368C211.968 85.682 212.294 85.6899 212.608 85.7603C212.923 85.8306 213.221 85.9619 213.485 86.1467C213.749 86.3315 213.974 86.5662 214.146 86.8373C214.319 87.1085 214.436 87.4107 214.491 87.7269C214.547 88.0431 214.539 88.367 214.468 88.6801C214.397 88.9932 214.265 89.2894 214.079 89.5517C213.893 89.8141 213.657 90.0375 213.385 90.2091L137.694 137.927C137.295 138.173 136.835 138.3 136.366 138.294Z" fill="#DFEAEF"/>
<path d="M257.447 331.586C257.276 331.61 257.103 331.61 256.931 331.586C256.296 331.446 255.743 331.061 255.393 330.516C255.043 329.971 254.925 329.31 255.064 328.678C258.775 311.575 242.555 301.924 241.867 301.509C241.332 301.17 240.949 300.64 240.798 300.028C240.648 299.416 240.741 298.769 241.058 298.224C241.375 297.678 241.892 297.276 242.501 297.1C243.109 296.924 243.763 296.99 244.324 297.282C244.521 297.404 264.328 309.132 259.831 329.729C259.7 330.259 259.393 330.729 258.961 331.066C258.529 331.403 257.996 331.586 257.447 331.586Z" fill="black"/>
</svg>
