<svg width="542" height="364" viewBox="0 0 542 364" fill="none" xmlns="http://www.w3.org/2000/svg">
<path d="M46.6993 264.13L20.7149 337.227H94.0986L46.6993 264.13Z" fill="#FFBC0E"/>
<path d="M94.0986 339.695H20.7149C20.3213 339.694 19.9338 339.598 19.5846 339.417C19.2355 339.235 18.9348 338.973 18.7076 338.652C18.4805 338.331 18.3334 337.96 18.2787 337.57C18.224 337.181 18.2632 336.784 18.3931 336.413L44.3775 263.439C44.5301 263.006 44.8005 262.624 45.1583 262.337C45.5161 262.049 45.9471 261.867 46.4029 261.81C46.8781 261.735 47.365 261.8 47.8038 261.997C48.2426 262.194 48.6142 262.515 48.8729 262.921L96.2722 336.018C96.5114 336.391 96.646 336.821 96.6617 337.263C96.6775 337.705 96.5738 338.144 96.3617 338.532C96.1495 338.921 95.8367 339.245 95.4559 339.472C95.0751 339.698 94.6404 339.818 94.1974 339.819L94.0986 339.695ZM24.2223 334.759H89.5538L47.3415 269.682L24.2223 334.759Z" fill="#093F68"/>
<path d="M317.313 8.11577C311.244 6.72317 304.927 6.8333 298.911 8.43658C277.911 14.7033 259.946 28.4556 248.424 47.083C247.444 42.5206 247.719 37.7782 249.219 33.3593C250.719 28.9403 253.389 25.0098 256.946 21.9851C250.038 22.1008 243.277 23.9974 237.318 27.4909C231.359 30.9844 226.404 35.9564 222.934 41.9252C217.228 51.9693 214.882 69.5157 222.514 79.3624C229.232 87.9998 241.508 86.4204 248.424 93.3057C252.722 97.5997 254.253 113.048 256.526 118.996C262.306 134.519 269.148 149.622 275.446 164.947L412.679 139.43C412.679 139.43 410.382 105.349 405.269 77.4868C400.156 49.6249 380.767 14.7049 348.015 28.6729C346.166 24.9282 343.479 21.66 340.16 19.1223C333.554 13.6501 325.712 9.87182 317.313 8.11577Z" fill="#725858"/>
<path d="M275.446 167.415C274.958 167.413 274.482 167.266 274.078 166.994C273.674 166.721 273.359 166.336 273.174 165.885C271 160.637 268.785 155.38 266.529 150.115C262.355 140.244 258.008 130.077 254.179 119.86C253.208 116.87 252.432 113.82 251.857 110.729C250.622 105.077 248.943 97.353 246.646 95.0332C243.484 92.4467 239.763 90.6302 235.778 89.7273C230.566 88.0492 224.638 86.1736 220.538 80.8678C212.486 70.5028 214.388 51.9447 220.76 40.6913C224.435 34.3398 229.697 29.0498 236.031 25.3384C242.365 21.6269 249.554 19.6212 256.896 19.5172C257.404 19.5174 257.899 19.6739 258.315 19.9653C258.73 20.2568 259.045 20.669 259.218 21.146C259.392 21.6233 259.414 22.1425 259.281 22.6327C259.148 23.1229 258.868 23.5603 258.477 23.8853C256.137 25.8668 254.212 28.291 252.813 31.0186C251.414 33.7461 250.569 36.7231 250.326 39.7782C262.185 23.6468 278.98 11.8131 298.17 6.06746C304.627 4.33215 311.412 4.20504 317.93 5.69728C326.687 7.56096 334.859 11.5247 341.741 17.2468C344.657 19.5777 347.162 22.3805 349.151 25.5387C353.703 23.6474 358.618 22.7882 363.543 23.0229C368.467 23.2576 373.279 24.5804 377.63 26.8961C394.549 35.953 404.232 58.7312 407.64 77.0426C412.803 104.732 415.05 138.911 415.174 139.257C415.183 139.841 414.985 140.41 414.614 140.862C414.243 141.314 413.724 141.62 413.148 141.725L275.94 167.39L275.446 167.415ZM250.746 25.0452C245.412 26.0223 240.354 28.1462 235.923 31.2696C231.492 34.393 227.793 38.4414 225.083 43.1345C219.451 53.0058 217.87 69.3677 224.465 77.857C227.627 81.929 232.344 83.4343 237.309 85.0138C242.058 86.1196 246.467 88.3642 250.153 91.5536C253.488 94.8851 255.093 102.412 256.699 109.692C257.237 112.545 257.947 115.364 258.823 118.132C262.602 128.25 266.924 138.393 271.173 148.191C273.149 152.855 275.125 157.494 277.076 162.159L410.16 137.48C409.542 129.534 407.22 101.4 402.75 78.0051C399.712 61.6186 390.671 39.5561 375.283 31.3135C367.305 27.0441 358.438 26.9454 348.928 31.0174C348.627 31.1429 348.304 31.2076 347.977 31.2076C347.651 31.2076 347.328 31.1429 347.027 31.0174C346.723 30.8961 346.447 30.7158 346.214 30.4871C345.98 30.2583 345.795 29.9856 345.668 29.6847C343.954 26.2866 341.478 23.3305 338.431 21.0473C332.186 15.8549 324.767 12.2632 316.818 10.5836C311.12 9.25369 305.182 9.34693 299.528 10.8551C279.116 16.946 261.657 30.3231 250.474 48.4403C250.219 48.8502 249.849 49.1763 249.41 49.378C248.971 49.5798 248.482 49.6485 248.004 49.5755C247.523 49.4955 247.075 49.2746 246.719 48.9408C246.363 48.607 246.114 48.1752 246.004 47.7C245.161 43.8026 245.148 39.7718 245.965 35.8691C246.782 31.9663 248.411 28.2786 250.746 25.0452Z" fill="#093F68"/>
<path d="M264.288 181.553C274.816 179.594 281.574 168.48 279.384 156.729C277.193 144.978 266.883 137.04 256.356 138.999C245.828 140.957 239.07 152.072 241.26 163.823C243.451 175.574 253.761 183.512 264.288 181.553Z" fill="#FFC9B0"/>
<path d="M261.12 184.468C250.598 184.468 241.039 176.151 238.89 164.429C236.42 151.349 244.126 138.911 255.958 136.715C258.868 136.187 261.857 136.289 264.724 137.012C267.592 137.736 270.271 139.065 272.581 140.91C277.452 144.796 280.759 150.304 281.897 156.427C283.036 162.549 281.929 168.877 278.781 174.251C277.291 176.798 275.273 178.998 272.861 180.7C270.45 182.403 267.701 183.57 264.8 184.122C263.588 184.362 262.355 184.477 261.12 184.468ZM243.707 163.516C245.633 173.905 254.673 180.964 263.862 179.285C266.076 178.85 268.171 177.946 270.007 176.635C271.843 175.324 273.378 173.636 274.507 171.684C277.023 167.351 277.908 162.263 277.002 157.336C276.097 152.409 273.46 147.967 269.567 144.81C267.804 143.398 265.759 142.377 263.57 141.816C261.381 141.254 259.098 141.164 256.872 141.552C247.708 143.255 241.805 153.126 243.756 163.516H243.707Z" fill="#093F68"/>
<path d="M339.913 217.265C381.755 209.492 409.616 150.93 401.935 109.791L392.697 115.368C392.697 115.368 360.933 88.6168 355.474 56.4608C355.474 56.4608 346.557 77.4868 309.606 86.2724C269.395 95.7982 245.238 91.7016 245.238 91.7016L256.18 155.767C263.862 196.807 298.17 225.064 339.913 217.265Z" fill="#FFC9B0"/>
<path d="M326.279 221.017C310.923 221.102 295.969 216.113 283.745 206.827C267.784 194.272 257.076 176.227 253.71 156.211L242.743 92.0471C242.679 91.66 242.708 91.2631 242.828 90.8895C242.948 90.5159 243.156 90.1762 243.434 89.8987C243.711 89.6213 244.051 89.4139 244.425 89.294C244.799 89.1741 245.196 89.145 245.584 89.2091C245.831 89.2091 269.79 93.0836 308.939 83.7798C344.087 75.4632 353.054 55.6218 353.128 55.4243C353.333 54.9294 353.695 54.5148 354.157 54.2433C354.62 53.9718 355.158 53.8581 355.691 53.9195C356.224 53.9808 356.723 54.2138 357.111 54.5833C357.5 54.9527 357.758 55.4385 357.845 55.9673C362.464 83.1135 386.917 106.805 392.895 112.234L400.576 107.545C400.918 107.339 401.304 107.219 401.702 107.194C402.1 107.169 402.498 107.241 402.862 107.404C403.226 107.566 403.545 107.814 403.792 108.127C404.039 108.439 404.207 108.807 404.281 109.199C408.135 129.904 403.392 155.273 391.586 177.089C378.989 200.361 360.291 215.859 340.284 219.585C335.668 220.482 330.981 220.961 326.279 221.017ZM248.251 94.6137L258.65 155.347C261.782 174.131 271.792 191.081 286.734 202.903C294.182 208.501 302.731 212.46 311.821 214.518C320.91 216.577 330.333 216.689 339.469 214.847C357.994 211.392 375.432 196.832 387.312 174.868C397.933 155.125 402.602 132.717 400.082 113.814L393.981 117.515C393.538 117.787 393.019 117.912 392.5 117.872C391.981 117.832 391.488 117.63 391.091 117.293C389.856 116.257 362.39 92.8368 354.363 63.0006C349.052 70.182 336.505 82.4719 310.174 88.7155C278.114 96.3165 256.18 95.4034 248.251 94.6137Z" fill="#093F68"/>
<path d="M322.266 132.446C326.075 131.737 328.588 128.078 327.878 124.272C327.169 120.467 323.506 117.957 319.698 118.666C315.889 119.374 313.377 123.034 314.086 126.839C314.795 130.644 318.458 133.155 322.266 132.446Z" fill="#093F68"/>
<path d="M270.753 139.084C274.627 139.084 277.768 135.946 277.768 132.076C277.768 128.205 274.627 125.067 270.753 125.067C266.879 125.067 263.738 128.205 263.738 132.076C263.738 135.946 266.879 139.084 270.753 139.084Z" fill="#093F68"/>
<path d="M298.713 155.915H297.701C297.083 155.879 296.483 155.7 295.947 155.391C295.411 155.083 294.954 154.654 294.613 154.138C291.723 149.992 295.058 137.653 296.639 132.52C296.726 132.201 296.877 131.903 297.083 131.644C297.288 131.385 297.543 131.17 297.833 131.011C298.123 130.852 298.442 130.753 298.771 130.72C299.1 130.687 299.433 130.72 299.749 130.817C300.065 130.915 300.358 131.075 300.611 131.288C300.864 131.501 301.072 131.762 301.222 132.057C301.372 132.351 301.461 132.673 301.484 133.003C301.507 133.332 301.464 133.663 301.356 133.976C299.133 141.256 297.898 148.783 298.516 151.004C301.896 150.878 305.233 150.203 308.396 149.005C308.998 148.818 309.649 148.869 310.215 149.146C310.781 149.423 311.22 149.907 311.441 150.497C311.662 151.087 311.649 151.739 311.404 152.32C311.16 152.9 310.702 153.366 310.125 153.62C306.459 154.959 302.612 155.732 298.713 155.915Z" fill="#093F68"/>
<path d="M309.581 103.424C308.933 103.479 308.279 103.406 307.659 103.209C307.038 103.012 306.463 102.694 305.965 102.275C304.96 101.428 304.333 100.217 304.221 98.9077C304.11 97.5987 304.524 96.2991 305.371 95.2948C306.219 94.2905 307.431 93.6638 308.742 93.5525L341.741 87.8518C342.381 87.7369 343.038 87.7495 343.673 87.8888C344.309 88.0282 344.91 88.2916 345.443 88.6638C345.977 89.0361 346.431 89.5099 346.781 90.0581C347.13 90.6063 347.368 91.2181 347.48 91.8583C347.592 92.4985 347.577 93.1546 347.434 93.7888C347.292 94.4231 347.026 95.023 346.651 95.5542C346.276 96.0854 345.8 96.5373 345.25 96.8841C344.7 97.2309 344.086 97.4657 343.445 97.5751L310.52 103.35C310.21 103.403 309.896 103.428 309.581 103.424Z" fill="#093F68"/>
<path d="M251.635 112.111C250.325 112.186 249.039 111.738 248.059 110.866C247.079 109.993 246.486 108.768 246.411 107.459C246.336 106.15 246.784 104.864 247.657 103.886C248.53 102.907 249.757 102.315 251.067 102.239L284.313 98.3154C284.962 98.2393 285.619 98.2916 286.248 98.4692C286.876 98.6469 287.464 98.9465 287.976 99.351C288.489 99.7555 288.917 100.257 289.236 100.827C289.554 101.396 289.757 102.023 289.834 102.671C289.91 103.319 289.858 103.976 289.68 104.604C289.502 105.232 289.202 105.819 288.797 106.331C288.392 106.843 287.891 107.271 287.32 107.589C286.75 107.908 286.123 108.111 285.474 108.187L252.228 112.111H251.635Z" fill="#093F68"/>
<path d="M387.93 117.836C387.93 117.836 403.787 101.844 416.606 116.232C429.426 130.62 425.128 160.036 393.512 157.593" fill="#FFC9B0"/>
<path d="M397.242 160.209C395.982 160.209 394.772 160.209 393.339 160.036C393.015 160.012 392.698 159.924 392.408 159.778C392.118 159.631 391.859 159.429 391.647 159.183C391.218 158.685 391.005 158.038 391.054 157.383C391.103 156.729 391.411 156.121 391.909 155.692C392.407 155.264 393.054 155.051 393.71 155.101C405.788 156.038 414.68 152.09 418.706 143.971C420.625 139.696 421.276 134.961 420.58 130.328C419.883 125.695 417.87 121.359 414.779 117.836C413.563 116.313 412.039 115.064 410.307 114.171C408.574 113.278 406.672 112.761 404.726 112.654C396.896 112.407 389.733 119.44 389.683 119.514C389.454 119.746 389.181 119.929 388.88 120.054C388.579 120.18 388.256 120.244 387.93 120.244C387.604 120.244 387.281 120.18 386.98 120.054C386.679 119.929 386.406 119.746 386.176 119.514C385.716 119.052 385.458 118.426 385.458 117.774C385.458 117.122 385.716 116.497 386.176 116.035C386.522 115.689 394.92 107.496 404.849 107.718C407.472 107.833 410.041 108.502 412.387 109.68C414.732 110.858 416.802 112.519 418.459 114.554C422.227 118.79 424.676 124.033 425.505 129.64C426.334 135.247 425.508 140.973 423.127 146.118C420.46 151.572 413.593 160.209 397.242 160.209Z" fill="#093F68"/>
<path d="M310.718 143.428C308.357 143.415 306.082 142.544 304.318 140.977C302.554 139.41 301.422 137.254 301.134 134.914L298.664 114.949C298.586 114.307 298.763 113.66 299.158 113.147C299.358 112.889 299.607 112.674 299.891 112.513C300.176 112.352 300.489 112.249 300.813 112.209L347.57 106.607C347.894 106.569 348.222 106.595 348.536 106.684C348.849 106.773 349.142 106.923 349.398 107.126C349.651 107.328 349.862 107.578 350.019 107.862C350.176 108.145 350.275 108.457 350.312 108.779L352.782 128.719C352.933 129.982 352.835 131.262 352.491 132.486C352.147 133.71 351.565 134.855 350.778 135.854C349.991 136.853 349.015 137.688 347.905 138.31C346.795 138.932 345.573 139.329 344.31 139.479L312.076 143.354C311.626 143.41 311.172 143.435 310.718 143.428ZM303.925 116.874L306.049 134.371C306.198 135.617 306.835 136.754 307.822 137.531C308.808 138.308 310.063 138.663 311.31 138.517L343.544 134.642C344.793 134.488 345.931 133.846 346.708 132.856C347.486 131.867 347.84 130.61 347.693 129.361L345.594 111.864L303.925 116.874Z" fill="#093F68"/>
<path d="M252.92 150.387C250.553 150.386 248.27 149.519 246.499 147.951C244.729 146.382 243.595 144.22 243.311 141.873L240.841 121.908C240.763 121.266 240.941 120.619 241.335 120.106C241.535 119.849 241.785 119.633 242.069 119.472C242.353 119.311 242.666 119.208 242.99 119.169L289.55 113.567C290.198 113.49 290.85 113.673 291.364 114.075C291.878 114.477 292.211 115.067 292.291 115.714L294.761 135.679C295.068 138.224 294.351 140.788 292.767 142.805C291.183 144.823 288.862 146.13 286.314 146.438L254.204 150.313L252.92 150.387ZM246.102 123.833L248.227 141.33C248.294 141.949 248.484 142.548 248.786 143.092C249.089 143.637 249.497 144.115 249.987 144.499C250.478 144.883 251.04 145.165 251.641 145.329C252.242 145.492 252.87 145.534 253.488 145.451L285.82 141.527C287.067 141.379 288.205 140.742 288.983 139.757C289.761 138.771 290.116 137.517 289.97 136.271L287.845 118.774L246.102 123.833Z" fill="#093F68"/>
<path d="M348.657 119.169C348.002 119.208 347.358 118.986 346.867 118.551C346.376 118.116 346.078 117.503 346.039 116.849C345.999 116.194 346.222 115.551 346.657 115.061C347.093 114.57 347.705 114.272 348.36 114.233L379.927 110.433C380.582 110.357 381.24 110.545 381.757 110.955C382.273 111.364 382.606 111.962 382.681 112.617C382.756 113.271 382.568 113.929 382.158 114.445C381.748 114.961 381.15 115.293 380.495 115.368L348.953 119.169H348.657Z" fill="#093F68"/>
<path d="M308.593 180.593C303.556 180.534 298.558 179.701 293.773 178.125C293.464 178.028 293.176 177.871 292.927 177.663C292.678 177.454 292.473 177.199 292.322 176.912C292.172 176.624 292.08 176.31 292.052 175.987C292.023 175.663 292.058 175.338 292.156 175.028C292.253 174.719 292.41 174.431 292.619 174.183C292.827 173.934 293.083 173.729 293.37 173.579C293.658 173.429 293.973 173.337 294.296 173.308C294.62 173.279 294.946 173.315 295.255 173.412C302.035 175.817 309.352 176.283 316.383 174.757C323.413 173.231 329.877 169.773 335.047 164.774C340.454 159.79 344.893 153.85 348.138 147.253C348.403 146.654 348.896 146.185 349.507 145.949C350.119 145.713 350.799 145.729 351.399 145.994C351.998 146.259 352.467 146.751 352.704 147.362C352.94 147.973 352.924 148.653 352.658 149.252C352.51 149.721 338.456 180.593 308.593 180.593Z" fill="#093F68"/>
<path d="M291.155 128.867C290.537 128.87 289.94 128.641 289.483 128.225C289.025 127.809 288.741 127.237 288.685 126.622C288.655 126.297 288.689 125.97 288.785 125.659C288.882 125.348 289.039 125.059 289.248 124.809C289.457 124.559 289.714 124.353 290.003 124.202C290.292 124.051 290.608 123.96 290.933 123.932L302.245 122.969C302.893 122.914 303.536 123.117 304.036 123.532C304.535 123.948 304.85 124.544 304.913 125.19C304.944 125.515 304.91 125.842 304.813 126.153C304.716 126.464 304.559 126.753 304.35 127.003C304.141 127.253 303.885 127.459 303.595 127.61C303.306 127.76 302.99 127.852 302.665 127.88L291.353 128.867H291.155Z" fill="#093F68"/>
<path d="M215.153 163.244H19.06C17.763 163.243 16.4852 163.558 15.3381 164.163C14.1911 164.768 13.2094 165.644 12.4788 166.714C11.7481 167.785 11.2906 169.018 11.1462 170.306C11.0017 171.594 11.1747 172.897 11.65 174.103L64.6809 310.55H277.916L222.563 168.254C221.971 166.775 220.948 165.507 219.627 164.614C218.306 163.721 216.748 163.244 215.153 163.244Z" fill="#FFBC0E"/>
<path d="M277.891 313.018H64.7303C64.2327 313.016 63.7472 312.865 63.3373 312.583C62.9275 312.301 62.6123 311.902 62.4332 311.438L9.4023 175.016C8.78542 173.439 8.56157 171.737 8.75001 170.054C8.93845 168.372 9.53356 166.761 10.484 165.359C11.4345 163.958 12.7118 162.809 14.2058 162.01C15.6998 161.212 17.3658 160.788 19.06 160.777H215.104C217.199 160.767 219.247 161.392 220.98 162.568C222.712 163.744 224.048 165.417 224.811 167.366L280.164 309.662C280.305 310.034 280.354 310.435 280.307 310.83C280.26 311.225 280.117 311.604 279.892 311.932C279.67 312.26 279.373 312.53 279.024 312.719C278.676 312.908 278.288 313.01 277.891 313.018ZM66.4346 308.082H274.285L220.266 169.167C219.86 168.145 219.154 167.269 218.243 166.653C217.331 166.037 216.254 165.709 215.153 165.712H19.06C18.1756 165.716 17.3052 165.933 16.523 166.345C15.7407 166.757 15.0699 167.352 14.5676 168.079C14.0653 168.807 13.7466 169.645 13.6386 170.522C13.5305 171.398 13.6364 172.289 13.9471 173.116L66.4346 308.082Z" fill="#093F68"/>
<path d="M207.422 176.423L30.4714 176.225L80.4889 302.727L256.822 302.9L207.422 176.423Z" fill="white"/>
<path d="M256.822 305.392L80.4889 305.219C79.9942 305.22 79.5108 305.072 79.1012 304.795C78.6917 304.518 78.3749 304.124 78.1918 303.665L28.1743 177.064C28.0251 176.691 27.9696 176.286 28.0127 175.886C28.0557 175.486 28.196 175.103 28.4213 174.769C28.6479 174.434 28.9533 174.16 29.3108 173.971C29.6683 173.781 30.0668 173.683 30.4714 173.683L207.422 173.856C207.92 173.858 208.405 174.009 208.815 174.291C209.225 174.573 209.54 174.972 209.719 175.435L259.119 301.937C259.265 302.313 259.316 302.718 259.269 303.118C259.222 303.518 259.077 303.901 258.848 304.232C258.632 304.577 258.334 304.864 257.981 305.066C257.627 305.269 257.229 305.381 256.822 305.392ZM82.1685 300.284L253.216 300.456L205.743 178.891L34.1023 178.718L82.1685 300.284Z" fill="#093F68"/>
<path d="M188.008 212.947C185.266 212.947 182.586 212.132 180.308 210.607C178.03 209.082 176.258 206.915 175.215 204.381C174.173 201.847 173.908 199.061 174.454 196.376C174.999 193.691 176.332 191.229 178.281 189.302C180.23 187.375 182.709 186.071 185.402 185.555C188.094 185.038 190.88 185.333 193.405 186.402C195.93 187.471 198.079 189.265 199.581 191.557C201.083 193.849 201.869 196.535 201.84 199.275C201.782 202.908 200.301 206.375 197.716 208.93C195.13 211.486 191.645 212.928 188.008 212.947ZM188.008 190.267C186.255 190.267 184.54 190.786 183.081 191.756C181.621 192.727 180.482 194.108 179.805 195.724C179.129 197.34 178.946 199.12 179.279 200.84C179.612 202.56 180.447 204.143 181.678 205.39C182.909 206.637 184.482 207.493 186.199 207.85C187.915 208.206 189.699 208.048 191.326 207.394C192.953 206.741 194.35 205.621 195.342 204.177C196.334 202.732 196.876 201.027 196.9 199.275C196.913 196.903 195.984 194.623 194.318 192.935C192.651 191.246 190.382 190.287 188.008 190.267Z" fill="#DFEAEF"/>
<path d="M199.37 230.567C198.965 230.565 198.566 230.463 198.209 230.271L134.434 195.721L88.8869 229.975C88.6274 230.171 88.3318 230.314 88.017 230.396C87.7022 230.478 87.3743 230.497 87.052 230.452C86.7298 230.408 86.4195 230.3 86.1389 230.136C85.8583 229.971 85.6128 229.753 85.4166 229.494C85.2203 229.234 85.0771 228.939 84.9951 228.625C84.9131 228.31 84.894 227.982 84.9387 227.66C84.9834 227.338 85.0912 227.028 85.2558 226.748C85.4204 226.468 85.6387 226.222 85.8982 226.026L132.828 190.81C133.207 190.525 133.66 190.354 134.133 190.319C134.606 190.284 135.079 190.386 135.496 190.613L200.655 225.829C201.139 226.09 201.523 226.506 201.744 227.01C201.965 227.514 202.011 228.078 201.875 228.611C201.738 229.144 201.428 229.617 200.992 229.953C200.556 230.29 200.02 230.471 199.469 230.468L199.37 230.567Z" fill="#DFEAEF"/>
<path d="M478.974 337.227H11.5019C6.68645 337.227 2.78278 341.128 2.78278 345.939V351.491C2.78278 356.303 6.68645 360.203 11.5019 360.203H478.974C483.789 360.203 487.693 356.303 487.693 351.491V345.939C487.693 341.128 483.789 337.227 478.974 337.227Z" fill="#093F68"/>
<path d="M478.974 362.671H11.65C8.68021 362.671 5.83167 361.494 3.72939 359.398C1.6271 357.302 0.44276 354.459 0.436218 351.491V345.964C0.442743 342.994 1.6263 340.148 3.72788 338.048C5.82946 335.949 8.67794 334.766 11.65 334.759H478.974C481.946 334.766 484.794 335.949 486.896 338.048C488.998 340.148 490.181 342.994 490.188 345.964V351.491C490.181 354.459 488.997 357.302 486.895 359.398C484.792 361.494 481.944 362.671 478.974 362.671ZM11.65 339.695C9.9861 339.695 8.39034 340.356 7.21377 341.531C6.03721 342.707 5.37622 344.301 5.37622 345.964V351.491C5.38275 353.15 6.04662 354.738 7.22248 355.908C8.39834 357.078 9.99037 357.735 11.65 357.735H478.974C480.634 357.735 482.226 357.078 483.401 355.908C484.577 354.738 485.241 353.15 485.248 351.491V345.964C485.248 345.14 485.085 344.325 484.77 343.565C484.455 342.804 483.993 342.113 483.41 341.531C482.828 340.949 482.136 340.487 481.375 340.172C480.614 339.857 479.798 339.695 478.974 339.695H11.65Z" fill="#093F68"/>
<path d="M380.174 363.263C379.519 363.263 378.891 363.003 378.427 362.54C377.964 362.077 377.704 361.45 377.704 360.795V256.726C377.704 256.072 377.964 255.444 378.427 254.981C378.891 254.518 379.519 254.258 380.174 254.258C380.829 254.258 381.457 254.518 381.921 254.981C382.384 255.444 382.644 256.072 382.644 256.726V360.795C382.644 361.45 382.384 362.077 381.921 362.54C381.457 363.003 380.829 363.263 380.174 363.263Z" fill="#093F68"/>
<path d="M163.58 230.148L153.329 245.917L150.168 259.441L151.477 260.428L162.715 251.84L173.731 236.885L163.58 230.148Z" fill="#093F68"/>
<path d="M151.477 262.896C150.942 262.896 150.422 262.723 149.995 262.402L148.686 261.415C148.316 261.132 148.034 260.75 147.872 260.313C147.71 259.876 147.676 259.403 147.772 258.947L150.909 245.424C150.983 245.144 151.1 244.878 151.254 244.634L161.505 228.864C161.683 228.587 161.914 228.348 162.186 228.162C162.457 227.975 162.763 227.845 163.086 227.778C163.728 227.652 164.394 227.785 164.938 228.149L175.09 234.886C175.37 235.071 175.609 235.311 175.792 235.592C175.976 235.872 176.1 236.187 176.158 236.518C176.216 236.848 176.206 237.186 176.128 237.513C176.051 237.839 175.908 238.146 175.707 238.415L164.79 253.321L164.296 253.814L153.033 262.402C152.585 262.738 152.036 262.912 151.477 262.896ZM155.626 246.904L153.576 255.714L160.986 250.112L170.249 237.526L164.345 233.578L155.626 246.904Z" fill="#093F68"/>
<path d="M208.954 229.703C208.954 229.703 209.892 207.715 201.544 205.395C193.195 203.075 176.053 198.436 171.41 205.395C166.766 212.354 155.182 225.829 158.417 233.455C161.653 241.08 193.195 257.689 193.195 257.689L230.047 302.11L270.753 256.85L208.954 229.703Z" fill="#FFC9B0"/>
<path d="M230.047 304.454C229.697 304.444 229.353 304.36 229.038 304.207C228.723 304.054 228.444 303.835 228.22 303.566L191.664 259.638C185.39 256.307 159.554 242.24 156.194 234.417C152.835 226.594 160.813 216.007 166.544 208.085C167.631 206.58 168.619 205.198 169.409 204.013C175.115 195.474 193.442 200.558 202.26 203.026C211.078 205.494 211.621 221.88 211.522 228.124L271.79 254.456C272.152 254.613 272.47 254.853 272.719 255.158C272.969 255.463 273.141 255.823 273.223 256.208C273.307 256.589 273.299 256.985 273.2 257.362C273.102 257.74 272.915 258.088 272.655 258.38L231.949 303.615C231.712 303.885 231.419 304.1 231.091 304.244C230.763 304.389 230.406 304.461 230.047 304.454ZM181.166 204.211C177.659 204.211 174.744 204.877 173.46 206.678C172.645 207.912 171.607 209.344 170.496 210.898C166.025 217.068 158.566 227.408 160.616 232.418C162.666 237.428 182.401 249.15 194.282 255.418C194.561 255.583 194.811 255.791 195.023 256.035L230.047 298.137L266.554 257.541L207.892 231.9C207.417 231.695 207.019 231.347 206.753 230.904C206.487 230.461 206.367 229.946 206.41 229.432C206.755 221.115 205.249 208.825 200.803 207.592C194.413 205.696 187.822 204.561 181.166 204.211Z" fill="#093F68"/>
<path d="M189.935 191.205L166.445 226.421C166.445 226.421 170.199 232.665 176.152 232.319L199.37 196.807C199.37 196.807 193.936 188.787 189.935 191.205Z" fill="#093F68"/>
<path d="M175.658 234.688C168.693 234.688 164.518 227.877 164.321 227.556C164.07 227.161 163.937 226.704 163.937 226.236C163.937 225.769 164.07 225.311 164.321 224.916L187.81 189.848C187.994 189.536 188.259 189.28 188.576 189.107C194.405 185.554 200.753 194.487 201.445 195.499C201.721 195.907 201.868 196.388 201.868 196.881C201.868 197.374 201.721 197.855 201.445 198.263L178.103 233.553C177.894 233.873 177.613 234.139 177.283 234.332C176.953 234.525 176.583 234.638 176.201 234.664L175.658 234.688ZM169.458 226.224C170.788 227.975 172.696 229.199 174.843 229.679L196.455 197.004C194.8 194.956 192.701 193.229 191.515 193.229L169.458 226.224Z" fill="#093F68"/>
<path d="M147.673 266.598C147.18 266.599 146.699 266.453 146.29 266.178C145.752 265.812 145.381 265.25 145.256 264.612C145.131 263.975 145.263 263.314 145.623 262.772L150.563 255.369C150.744 255.1 150.977 254.869 151.248 254.69C151.519 254.511 151.822 254.387 152.141 254.325C152.46 254.263 152.788 254.265 153.106 254.33C153.424 254.394 153.727 254.521 153.996 254.703C154.265 254.884 154.496 255.117 154.675 255.387C154.855 255.658 154.979 255.961 155.041 256.28C155.102 256.598 155.101 256.926 155.036 257.244C154.971 257.562 154.845 257.864 154.663 258.133L149.723 265.536C149.494 265.867 149.187 266.136 148.83 266.321C148.472 266.506 148.075 266.601 147.673 266.598Z" fill="#093F68"/>
<path d="M302.492 222.522C302.492 222.522 306.395 204.457 315.164 199.152C323.932 193.846 377.259 186.22 387.93 195.351C394.5 201.419 398.621 209.679 399.514 218.573L302.492 222.522Z" fill="#68E1FD"/>
<path d="M302.493 224.99C302.132 224.993 301.774 224.918 301.446 224.769C301.117 224.62 300.825 224.4 300.591 224.126C300.347 223.836 300.173 223.493 300.083 223.125C299.993 222.757 299.99 222.374 300.072 222.004C300.245 221.239 304.32 202.853 313.879 197.029C323.438 191.205 377.877 183.53 389.535 193.475C396.577 199.986 400.973 208.859 401.885 218.401C401.907 218.727 401.863 219.054 401.757 219.363C401.651 219.673 401.485 219.958 401.268 220.202C401.048 220.453 400.778 220.657 400.477 220.801C400.176 220.946 399.848 221.027 399.514 221.041L302.493 224.99ZM366.095 193.599C347.372 193.599 322.351 197.671 316.448 201.249C311.113 204.482 307.408 214.033 305.704 219.931L396.674 216.204C395.416 208.91 391.777 202.237 386.324 197.227C383.261 194.611 375.456 193.599 366.095 193.599Z" fill="#093F68"/>
<path d="M442.418 360.795L416.73 221.485C415.421 219.931 414.68 219.018 414.68 219.018C409.946 214.473 403.634 211.935 397.069 211.935H298.466C295.774 211.935 285.845 210.652 269.938 223.978C246.967 243.252 214.363 267.461 197.196 283.897L211.868 357.933C214.758 358.624 261.812 337.129 261.812 337.129L266.455 360.697L442.418 360.795Z" fill="#68E1FD"/>
<path d="M442.418 363.263H266.455C265.877 363.275 265.314 363.084 264.862 362.723C264.411 362.362 264.101 361.855 263.985 361.289L259.934 340.781C214.882 361.289 212.239 360.524 211.251 360.524C210.79 360.414 210.37 360.175 210.041 359.833C209.713 359.492 209.49 359.064 209.398 358.599L194.726 284.564C194.649 284.159 194.674 283.742 194.799 283.35C194.924 282.958 195.145 282.603 195.443 282.318C206.237 271.978 223.28 258.454 239.73 245.3C249.61 237.502 259.712 229.432 268.308 222.201C283.844 209.196 293.996 209.492 297.824 209.591H397.069C404.272 209.582 411.198 212.37 416.384 217.364C416.532 217.512 417.298 218.376 418.607 219.832C418.884 220.157 419.071 220.548 419.151 220.967L444.814 360.351C444.88 360.71 444.865 361.08 444.771 361.432C444.676 361.785 444.505 362.113 444.269 362.391C444.032 362.67 443.737 362.892 443.404 363.043C443.072 363.194 442.709 363.269 442.344 363.263H442.418ZM268.481 358.327H439.454L414.458 222.596L412.877 220.745C408.621 216.72 402.979 214.484 397.118 214.502H297.75C294.44 214.502 285.622 214.156 271.519 225.977C262.874 233.233 252.697 241.302 242.842 249.125C226.96 261.736 210.559 274.791 199.889 284.835L213.795 355.169C220.538 352.972 241.829 343.718 260.725 335.056C261.064 334.904 261.433 334.831 261.805 334.841C262.176 334.852 262.54 334.946 262.87 335.117C263.2 335.287 263.488 335.53 263.711 335.828C263.933 336.125 264.086 336.468 264.158 336.833L268.481 358.327Z" fill="#093F68"/>
<path d="M354.585 225.656H442.912C446.848 225.565 450.756 226.33 454.367 227.897C457.978 229.464 461.204 231.797 463.824 234.733C466.443 237.669 468.392 241.139 469.537 244.903C470.682 248.666 470.994 252.633 470.452 256.529L459.115 360.795H308.989L320.4 256.529C321.456 248.147 325.487 240.421 331.759 234.756C338.032 229.091 346.131 225.862 354.585 225.656Z" fill="#093F68"/>
<path d="M459.115 363.263H308.989C308.644 363.262 308.303 363.189 307.988 363.049C307.674 362.909 307.392 362.704 307.161 362.449C306.931 362.192 306.757 361.891 306.651 361.564C306.545 361.237 306.508 360.891 306.543 360.548L317.93 256.257C319.074 247.269 323.408 238.988 330.143 232.92C336.878 226.852 345.568 223.399 354.634 223.188H442.912C447.192 223.1 451.44 223.938 455.364 225.646C459.289 227.354 462.796 229.891 465.646 233.083C468.495 236.275 470.619 240.045 471.871 244.135C473.123 248.225 473.473 252.537 472.898 256.776L461.56 361.067C461.494 361.669 461.208 362.225 460.757 362.63C460.306 363.036 459.722 363.261 459.115 363.263ZM311.755 358.327H456.892L467.982 256.257C468.486 252.708 468.209 249.091 467.172 245.659C466.134 242.227 464.361 239.062 461.974 236.384C459.588 233.707 456.647 231.58 453.355 230.154C450.063 228.727 446.499 228.035 442.912 228.124H354.585C346.743 228.322 339.232 231.321 333.413 236.577C327.594 241.834 323.854 249 322.87 256.776L311.755 358.327Z" fill="#093F68"/>
<path d="M368.096 225.656H456.448C460.381 225.569 464.287 226.336 467.895 227.905C471.502 229.474 474.726 231.807 477.342 234.743C479.959 237.678 481.906 241.147 483.049 244.909C484.193 248.67 484.504 252.635 483.963 256.529L472.626 360.795H322.524L333.861 256.529C334.919 248.138 338.957 240.406 345.24 234.74C351.523 229.074 359.634 225.85 368.096 225.656Z" fill="#F56132"/>
<path d="M472.626 363.263H322.524C322.179 363.262 321.839 363.189 321.524 363.049C321.209 362.909 320.927 362.704 320.696 362.449C320.467 362.192 320.293 361.891 320.187 361.564C320.08 361.237 320.043 360.891 320.079 360.548L331.416 256.257C332.555 247.271 336.883 238.991 343.614 232.923C350.345 226.854 359.032 223.4 368.096 223.188H456.448C460.705 223.129 464.926 223.978 468.828 225.681C472.73 227.383 476.223 229.899 479.073 233.06C481.93 236.27 484.069 240.053 485.347 244.156C486.625 248.258 487.012 252.586 486.483 256.85L475.146 361.141C475.061 361.742 474.757 362.291 474.292 362.683C473.827 363.075 473.234 363.281 472.626 363.263ZM325.266 358.327H470.428L481.518 256.257C481.975 252.686 481.665 249.058 480.609 245.615C479.553 242.173 477.774 238.995 475.393 236.293C472.998 233.663 470.069 231.575 466.802 230.166C463.535 228.758 460.005 228.061 456.448 228.124H368.096C360.242 228.309 352.716 231.302 346.883 236.56C341.05 241.817 337.298 248.99 336.307 256.776L325.266 358.327Z" fill="#093F68"/>
<path d="M197.196 283.922L94.0986 296.064C94.0986 296.064 69.6456 272.224 64.4586 273.137C59.2716 274.05 64.8044 291.893 64.8044 291.893C64.8044 291.893 46.5017 279.554 43.266 290.166C40.0303 300.777 40.796 320.619 45.3408 326.64C49.8856 332.662 68.7811 335.031 99.6808 333.254L208.978 341.941L197.196 283.922Z" fill="#FFC9B0"/>
<path d="M208.954 344.409H208.756L99.6314 335.747C67.5214 337.573 48.7494 335.031 43.4636 328.17C38.1778 321.31 37.585 300.58 40.9936 289.475C41.3132 288.225 41.9289 287.071 42.7886 286.108C43.6484 285.146 44.727 284.405 45.9336 283.947C50.429 282.343 56.5546 284.638 60.9018 286.809C59.8397 282.022 59.074 275.926 60.9018 272.915C61.2293 272.352 61.6748 271.867 62.2077 271.492C62.7406 271.117 63.3484 270.862 63.9893 270.744C69.3739 269.757 85.2807 284.218 94.889 293.497L196.9 281.454C197.515 281.387 198.132 281.552 198.631 281.918C199.129 282.283 199.472 282.822 199.592 283.428L211.35 341.447C211.425 341.821 211.413 342.207 211.315 342.575C211.216 342.943 211.034 343.284 210.781 343.57C210.553 343.83 210.272 344.039 209.957 344.184C209.642 344.328 209.3 344.405 208.954 344.409ZM99.6561 330.786H99.8537L205.891 339.202L195.245 286.637L94.395 298.532C94.0271 298.576 93.6541 298.536 93.3035 298.417C92.9529 298.297 92.6337 298.1 92.3696 297.841C81.8227 287.55 68.6823 276.395 65.1996 275.63C64.3351 277.357 65.1996 284.539 67.3238 291.177C67.4747 291.667 67.4695 292.191 67.3091 292.677C67.1487 293.163 66.841 293.587 66.4285 293.891C66.0161 294.194 65.5193 294.362 65.007 294.372C64.4948 294.381 63.9924 294.23 63.5694 293.941C59.4445 291.153 51.5158 287.254 47.7367 288.561C47.2358 288.746 46.791 289.057 46.4449 289.463C46.0989 289.869 45.8632 290.358 45.7607 290.881C42.6238 301.197 43.5624 320.076 47.4403 325.135C49.3669 327.603 58.2836 333.155 99.582 330.786H99.6561Z" fill="#093F68"/>
<path d="M261.812 339.695C261.261 339.686 260.728 339.494 260.299 339.148C259.871 338.803 259.57 338.323 259.445 337.787C259.32 337.251 259.378 336.688 259.61 336.189C259.842 335.689 260.234 335.282 260.725 335.031L295.996 317.731C296.288 317.575 296.608 317.479 296.937 317.449C297.267 317.419 297.599 317.455 297.914 317.555C298.229 317.655 298.521 317.818 298.772 318.033C299.023 318.248 299.228 318.512 299.375 318.808C299.523 319.103 299.609 319.426 299.629 319.756C299.649 320.086 299.603 320.416 299.493 320.728C299.383 321.039 299.211 321.326 298.988 321.57C298.765 321.814 298.495 322.011 298.195 322.149L262.923 339.572C262.567 339.697 262.187 339.739 261.812 339.695Z" fill="#093F68"/>
<path d="M92.2214 271.558C91.6828 271.586 91.1498 271.437 90.7038 271.134C90.2578 270.831 89.9233 270.391 89.7514 269.88L64.7303 196.141C64.6003 195.828 64.536 195.493 64.5412 195.155C64.5464 194.817 64.6211 194.483 64.7607 194.175C64.9002 193.867 65.1017 193.591 65.3525 193.364C65.6033 193.137 65.8981 192.964 66.2187 192.855C66.5393 192.747 66.8787 192.705 67.216 192.734C67.5532 192.762 67.8811 192.859 68.1793 193.019C68.4775 193.179 68.7396 193.398 68.9493 193.663C69.1591 193.929 69.312 194.234 69.3986 194.561L93.8516 266.548L144.314 264.673C144.969 264.673 145.597 264.933 146.06 265.396C146.524 265.858 146.784 266.486 146.784 267.141C146.784 267.795 146.524 268.423 146.06 268.886C145.597 269.348 144.969 269.608 144.314 269.608L92.0238 271.558H92.2214Z" fill="#DFEAEF"/>
<path d="M111.142 262.896C110.64 262.899 110.149 262.75 109.734 262.468C109.319 262.186 109 261.784 108.82 261.316L97.359 231.036C97.1264 230.424 97.1467 229.745 97.4154 229.148C97.6841 228.551 98.1791 228.085 98.7916 227.853C99.4041 227.62 100.084 227.64 100.681 227.909C101.279 228.177 101.745 228.672 101.978 229.284L113.439 259.564C113.554 259.867 113.608 260.19 113.599 260.514C113.589 260.838 113.515 261.157 113.382 261.453C113.249 261.748 113.059 262.015 112.823 262.237C112.587 262.459 112.309 262.633 112.006 262.748C111.728 262.845 111.436 262.895 111.142 262.896Z" fill="#DFEAEF"/>
<path d="M111.142 293.3H94.0986V332.316H111.142V293.3Z" fill="#68E1FD"/>
<path d="M111.142 334.784H94.0986C93.4435 334.784 92.8152 334.524 92.352 334.061C91.8888 333.599 91.6285 332.971 91.6285 332.316V293.3C91.6285 292.645 91.8888 292.018 92.352 291.555C92.8152 291.092 93.4435 290.832 94.0986 290.832H111.142C111.797 290.832 112.425 291.092 112.888 291.555C113.351 292.018 113.612 292.645 113.612 293.3V332.316C113.612 332.971 113.351 333.599 112.888 334.061C112.425 334.524 111.797 334.784 111.142 334.784ZM96.5686 329.849H108.672V295.768H96.5686V329.849Z" fill="#093F68"/>
<path d="M102.62 321.655C107.804 321.655 112.006 317.457 112.006 312.277C112.006 307.098 107.804 302.9 102.62 302.9C97.4364 302.9 93.2341 307.098 93.2341 312.277C93.2341 317.457 97.4364 321.655 102.62 321.655Z" fill="white"/>
<path d="M102.62 324.123C100.275 324.123 97.983 323.428 96.0333 322.127C94.0836 320.825 92.5639 318.975 91.6666 316.811C90.7692 314.646 90.5344 312.264 90.9919 309.966C91.4494 307.669 92.5785 305.558 94.2366 303.901C95.8947 302.245 98.0073 301.116 100.307 300.659C102.607 300.202 104.991 300.437 107.157 301.333C109.324 302.23 111.175 303.748 112.478 305.696C113.781 307.644 114.476 309.935 114.476 312.277C114.476 315.419 113.227 318.432 111.004 320.654C108.78 322.875 105.765 324.123 102.62 324.123ZM102.62 305.367C101.252 305.367 99.9151 305.773 98.7778 306.532C97.6404 307.291 96.754 308.37 96.2305 309.633C95.7071 310.896 95.5701 312.285 95.837 313.625C96.1039 314.966 96.7625 316.197 97.7298 317.163C98.697 318.13 99.9293 318.788 101.271 319.055C102.612 319.321 104.003 319.184 105.267 318.661C106.531 318.138 107.611 317.253 108.371 316.116C109.13 314.98 109.536 313.644 109.536 312.277C109.53 310.449 108.798 308.698 107.502 307.407C106.205 306.117 104.45 305.392 102.62 305.392V305.367Z" fill="#093F68"/>
<path d="M231.875 278.246C230.405 278.251 228.939 278.094 227.503 277.777C222.053 276.488 217.285 273.203 214.141 268.572C213.793 268.016 213.682 267.344 213.83 266.706C213.978 266.067 214.374 265.513 214.931 265.166C215.488 264.819 216.16 264.708 216.799 264.856C217.438 265.004 217.992 265.4 218.34 265.956C220.791 269.47 224.447 271.964 228.615 272.965C233.555 274.051 239.186 272.57 245.164 268.621C247.326 267.366 249.204 265.676 250.68 263.658C252.155 261.641 253.195 259.339 253.735 256.899C255.217 248.755 249.709 241.08 249.634 241.006C249.245 240.476 249.082 239.813 249.181 239.163C249.281 238.512 249.635 237.928 250.166 237.539C250.696 237.149 251.36 236.987 252.011 237.086C252.662 237.186 253.246 237.539 253.636 238.069C253.908 238.464 260.428 247.472 258.576 257.812C257.936 260.929 256.649 263.876 254.799 266.465C252.948 269.054 250.574 271.226 247.831 272.841C243.164 276.178 237.612 278.059 231.875 278.246Z" fill="#093F68"/>
<path d="M230.047 351.195C229.527 351.195 229.019 351.03 228.598 350.724C228.176 350.418 227.862 349.987 227.701 349.492L203.816 276.568C203.613 275.946 203.666 275.269 203.962 274.686C204.259 274.103 204.775 273.662 205.397 273.458C206.019 273.256 206.696 273.308 207.28 273.605C207.864 273.901 208.306 274.416 208.509 275.038L232.394 347.962C232.598 348.581 232.548 349.255 232.257 349.837C231.965 350.42 231.455 350.864 230.838 351.072C230.581 351.149 230.315 351.19 230.047 351.195Z" fill="#093F68"/>
<path d="M173.731 117.293H42.0804C41.4253 117.293 40.7971 117.033 40.3339 116.57C39.8706 116.108 39.6104 115.48 39.6104 114.825V7.15333C39.6104 6.49882 39.8706 5.87111 40.3339 5.4083C40.7971 4.94549 41.4253 4.68549 42.0804 4.68549H173.731C174.386 4.68549 175.015 4.94549 175.478 5.4083C175.941 5.87111 176.201 6.49882 176.201 7.15333V114.825C176.201 115.48 175.941 116.108 175.478 116.57C175.015 117.033 174.386 117.293 173.731 117.293ZM44.5504 112.357H171.261V9.62117H44.5504V112.357Z" fill="#DFEAEF"/>
<path d="M125.27 84.9644H70.93C70.2749 84.9644 69.6467 84.7044 69.1835 84.2416C68.7203 83.7788 68.46 83.1511 68.46 82.4966V28.204C68.46 27.5495 68.7203 26.9218 69.1835 26.459C69.6467 25.9962 70.2749 25.7362 70.93 25.7362H125.27C125.925 25.7362 126.553 25.9962 127.017 26.459C127.48 26.9218 127.74 27.5495 127.74 28.204V82.4966C127.74 83.1511 127.48 83.7788 127.017 84.2416C126.553 84.7044 125.925 84.9644 125.27 84.9644ZM73.4 80.0288H122.8V30.6719H73.4V80.0288Z" fill="#DFEAEF"/>
<path d="M124.455 100.956C118.043 100.961 111.773 99.0665 106.438 95.5123C101.103 91.958 96.9426 86.9035 94.482 80.9874C92.0214 75.0713 91.3713 68.5592 92.6139 62.2741C93.8565 55.989 96.936 50.2129 101.463 45.6759C105.99 41.1389 111.762 38.0446 118.049 36.784C124.336 35.5233 130.855 36.153 136.784 38.5934C142.713 41.0338 147.784 45.1754 151.358 50.4948C154.932 55.8142 156.847 62.0727 156.861 68.4792C156.871 72.7385 156.04 76.958 154.416 80.8963C152.792 84.8345 150.407 88.4142 147.397 91.4306C144.388 94.447 140.812 96.8409 136.875 98.4753C132.939 100.11 128.718 100.953 124.455 100.956ZM124.455 41.1108C119.012 41.106 113.691 42.7153 109.165 45.7348C104.638 48.7543 101.111 53.0482 99.0295 58.0725C96.9479 63.0968 96.4057 68.6253 97.4717 73.9577C98.5377 79.2901 101.164 84.1864 105.017 88.0263C108.871 91.8661 113.779 94.4768 119.119 95.5274C124.459 96.5781 129.99 96.0215 135.014 93.9281C140.037 91.8348 144.325 88.2989 147.335 83.7685C150.345 79.238 151.941 73.9169 151.921 68.4792C151.889 61.2179 148.982 54.2643 143.836 49.1367C138.69 44.009 131.723 41.1238 124.455 41.1108Z" fill="#DFEAEF"/>
<path d="M539.217 189.922H454.373C453.718 189.922 453.09 189.662 452.626 189.199C452.163 188.736 451.903 188.108 451.903 187.454V76.6971C451.903 76.0426 452.163 75.4149 452.626 74.9521C453.09 74.4893 453.718 74.2292 454.373 74.2292H539.217C539.872 74.2292 540.501 74.4893 540.964 74.9521C541.427 75.4149 541.687 76.0426 541.687 76.6971V187.454C541.687 187.778 541.623 188.099 541.499 188.398C541.375 188.698 541.193 188.97 540.964 189.199C540.735 189.428 540.462 189.61 540.163 189.734C539.863 189.858 539.542 189.922 539.217 189.922ZM456.843 184.986H536.747V79.1649H456.843V184.986Z" fill="#DFEAEF"/>
<path d="M522.372 175.904H470.625C470.219 175.902 469.819 175.8 469.461 175.606C469.103 175.412 468.799 175.133 468.575 174.794C468.354 174.458 468.218 174.074 468.179 173.674C468.141 173.274 468.2 172.87 468.353 172.499L494.214 109.297C494.401 108.843 494.719 108.454 495.129 108.182C495.538 107.909 496.019 107.765 496.511 107.767C496.999 107.77 497.475 107.916 497.879 108.189C498.283 108.461 498.598 108.847 498.783 109.297L524.669 172.499C524.818 172.872 524.874 173.277 524.831 173.677C524.788 174.077 524.647 174.46 524.422 174.794C524.198 175.133 523.894 175.412 523.537 175.606C523.179 175.8 522.779 175.902 522.372 175.904ZM474.306 170.969H518.766L496.536 116.676L474.306 170.969Z" fill="#DFEAEF"/>
<path d="M515.53 128.867H470.626C469.97 128.867 469.342 128.607 468.879 128.145C468.416 127.682 468.156 127.054 468.156 126.399V89.5793C468.156 88.9248 468.416 88.2971 468.879 87.8343C469.342 87.3715 469.97 87.1115 470.626 87.1115H515.53C516.185 87.1115 516.813 87.3715 517.277 87.8343C517.74 88.2971 518 88.9248 518 89.5793V126.399C518 127.054 517.74 127.682 517.277 128.145C516.813 128.607 516.185 128.867 515.53 128.867ZM473.194 123.932H513.06V92.0471H473.096L473.194 123.932Z" fill="#DFEAEF"/>
<path d="M480.431 45.9725H426.882C426.227 45.9725 425.598 45.7125 425.135 45.2497C424.672 44.7868 424.412 44.1591 424.412 43.5046V3.20478C424.412 2.55027 424.672 1.92256 425.135 1.45975C425.598 0.996941 426.227 0.736938 426.882 0.736938H480.431C481.086 0.736938 481.715 0.996941 482.178 1.45975C482.641 1.92256 482.901 2.55027 482.901 3.20478V43.5046C482.901 44.1591 482.641 44.7868 482.178 45.2497C481.715 45.7125 481.086 45.9725 480.431 45.9725ZM429.352 41.0368H477.961V5.67262H429.352V41.0368Z" fill="#DFEAEF"/>
<path d="M442.418 30.6719C441.94 30.6688 441.473 30.5272 441.074 30.2644C440.675 30.0016 440.361 29.6288 440.17 29.1912C440.039 28.8947 439.967 28.5752 439.959 28.2509C439.951 27.9267 440.007 27.6041 440.124 27.3015C440.241 26.999 440.417 26.7224 440.641 26.4877C440.865 26.253 441.133 26.0647 441.43 25.9336L452.668 20.9979C453.047 20.8367 453.46 20.7725 453.87 20.8113C454.28 20.8501 454.673 20.9906 455.015 21.22L460.301 24.7491L468.6 12.9034C468.777 12.6189 469.01 12.3732 469.284 12.1815C469.559 11.9898 469.87 11.8559 470.198 11.7881C470.527 11.7203 470.865 11.7199 471.193 11.787C471.522 11.8541 471.833 11.9873 472.108 12.1784C472.384 12.3696 472.617 12.6147 472.794 12.8988C472.972 13.1829 473.089 13.5002 473.14 13.8312C473.191 14.1622 473.174 14.5001 473.089 14.8243C473.005 15.1484 472.856 15.4521 472.651 15.7167L462.968 29.6107C462.599 30.1368 462.039 30.4982 461.407 30.618C460.775 30.7379 460.121 30.6067 459.584 30.2524L453.385 26.131L443.505 30.4744C443.164 30.6286 442.791 30.6964 442.418 30.6719Z" fill="#DFEAEF"/>
</svg>
