<svg width="350" height="264" viewBox="0 0 350 264" fill="none" xmlns="http://www.w3.org/2000/svg">
<g clip-path="url(#clip0_31_24)">
<path opacity="0.24" d="M347.391 197.532C345.055 212.203 336.852 225.603 325.43 235.083C324.633 235.733 323.842 236.347 323.033 236.96C323.033 236.96 322.996 236.96 322.978 236.997C315.056 243.029 305.761 246.999 295.928 248.55C277.867 251.25 259.67 245.814 241.449 244.869C208.79 243.157 177.314 255.778 145.14 261.552C112.965 267.326 75.1066 264.086 54.7031 238.506C54.5804 238.365 54.4823 238.224 54.3597 238.064C47.9039 229.794 43.8391 219.952 38.7321 210.73C37.8493 209.122 36.9378 207.548 35.9978 206.006C26.9486 191.329 13.6569 179.315 6.7351 163.534C3.33888 155.662 1.64434 147.16 1.76268 138.587C1.88102 130.013 3.80956 121.561 7.42176 113.786C13.9389 99.9748 25.3975 89.2435 36.5802 78.8436C37.3036 78.1809 38.0087 77.5182 38.7321 76.8495C48.3249 67.9323 57.9299 59.0171 67.5472 50.104C72.832 45.1955 78.123 40.2869 83.6163 35.6115C90.8936 29.3531 98.453 23.5181 106.699 18.6648C126.796 6.79223 145.9 8.14208 167.72 4.41772C192.942 0.122746 218.765 -3.61389 243.295 6.11117C257.617 11.7683 269.903 21.4504 281.968 30.9668L287.848 35.6115C298.883 44.3303 309.919 53.0614 320.771 61.9582C323.143 63.9093 325.534 65.9034 327.766 68.0386C331.224 71.3396 334.302 74.9781 336.276 79.3099C338.648 84.4822 339.249 90.2559 339.832 95.913C342.186 119.229 344.552 142.544 346.931 165.86C347.973 176.395 349.04 187.065 347.391 197.532Z" fill="#68E1FD"/>
<path d="M83.6224 35.6115C78.1046 40.2807 72.8382 45.2138 67.5534 50.104C57.9565 59.0211 48.3515 67.9363 38.7383 76.8494V44.6309C38.7358 43.4458 38.9673 42.2718 39.4194 41.1765C39.8714 40.0811 40.5352 39.0858 41.3725 38.2478C42.2099 37.4098 43.2044 36.7455 44.2989 36.2931C45.3934 35.8407 46.5664 35.609 47.7507 35.6115H83.6224Z" fill="url(#paint0_linear_31_24)"/>
<path d="M327.742 68.0385V229.045C327.746 231.275 326.922 233.427 325.43 235.082C324.74 235.842 323.931 236.482 323.033 236.978C323.033 236.978 322.996 236.978 322.978 237.015C321.67 237.705 320.214 238.065 318.735 238.064H54.3597C47.9039 229.794 43.8391 219.952 38.7321 210.73V76.8494C48.3249 67.9322 57.9299 59.017 67.5472 50.1039C72.8321 45.1954 78.123 40.2868 83.6163 35.6115H287.848C298.884 44.3303 309.919 53.0613 320.771 61.9581C323.119 63.9338 325.51 65.9033 327.742 68.0385Z" fill="url(#paint1_linear_31_24)"/>
<path d="M310.808 28.2365H39.8112C34.8372 28.2365 30.8049 32.2718 30.8049 37.2498V221.688C30.8049 226.666 34.8372 230.702 39.8112 230.702H310.808C315.782 230.702 319.814 226.666 319.814 221.688V37.2498C319.814 32.2718 315.782 28.2365 310.808 28.2365Z" fill="#68E1FD"/>
<path d="M319.82 37.262V221.682C319.819 224.073 318.869 226.366 317.179 228.056C315.489 229.746 313.197 230.695 310.808 230.695H39.8234C38.6397 230.698 37.4672 230.466 36.3731 230.014C35.279 229.562 34.2848 228.899 33.4475 228.061C32.6102 227.224 31.9463 226.229 31.4939 225.135C31.0415 224.04 30.8094 222.867 30.811 221.682V37.262C30.8094 36.0779 31.0413 34.9051 31.4933 33.8108C31.9454 32.7166 32.6087 31.7223 33.4453 30.885C34.2819 30.0477 35.2754 29.3839 36.3688 28.9315C37.4623 28.4791 38.6341 28.2471 39.8173 28.2487H310.802C311.985 28.2479 313.158 28.4804 314.251 28.9329C315.345 29.3854 316.339 30.0491 317.176 30.8861C318.014 31.723 318.678 32.7169 319.132 33.8109C319.586 34.9048 319.82 36.0775 319.82 37.262Z" fill="url(#paint2_linear_31_24)"/>
<path opacity="0.24" d="M319.82 37.262V49.4229H30.811V37.262C30.8094 36.0779 31.0413 34.9051 31.4933 33.8108C31.9454 32.7166 32.6087 31.7223 33.4453 30.885C34.2819 30.0477 35.2754 29.3839 36.3688 28.9315C37.4623 28.4791 38.6341 28.2471 39.8173 28.2487H310.802C311.985 28.2479 313.158 28.4804 314.251 28.9329C315.345 29.3854 316.339 30.0491 317.176 30.8861C318.014 31.723 318.678 32.7169 319.132 33.8109C319.586 34.9048 319.82 36.0775 319.82 37.262Z" fill="#68E1FD"/>
<path d="M319.82 37.262V49.4229H30.811V37.262C30.8094 36.0779 31.0413 34.9051 31.4933 33.8108C31.9454 32.7166 32.6087 31.7223 33.4453 30.885C34.2819 30.0477 35.2754 29.3839 36.3688 28.9315C37.4623 28.4791 38.6341 28.2471 39.8173 28.2487H310.802C311.985 28.2479 313.158 28.4804 314.251 28.9329C315.345 29.3854 316.339 30.0491 317.176 30.8861C318.014 31.723 318.678 32.7169 319.132 33.8109C319.586 34.9048 319.82 36.0775 319.82 37.262Z" fill="#68E1FD"/>
<path d="M319.82 37.262V49.4229H30.811V37.262C30.8094 36.0779 31.0413 34.9051 31.4933 33.8108C31.9454 32.7166 32.6087 31.7223 33.4453 30.885C34.2819 30.0477 35.2754 29.3839 36.3688 28.9315C37.4623 28.4791 38.6341 28.2471 39.8173 28.2487H310.802C311.985 28.2479 313.158 28.4804 314.251 28.9329C315.345 29.3854 316.339 30.0491 317.176 30.8861C318.014 31.723 318.678 32.7169 319.132 33.8109C319.586 34.9048 319.82 36.0775 319.82 37.262Z" fill="url(#paint3_linear_31_24)"/>
<path opacity="0.24" d="M122.915 86.4457H55.7208C51.9691 86.4457 48.9278 89.4894 48.9278 93.244V93.2501C48.9278 97.0048 51.9691 100.048 55.7208 100.048H122.915C126.667 100.048 129.708 97.0048 129.708 93.2501V93.244C129.708 89.4894 126.667 86.4457 122.915 86.4457Z" fill="#68E1FD"/>
<path d="M89.2934 179.002H55.7208C51.9691 179.002 48.9278 182.046 48.9278 185.801V185.807C48.9278 189.562 51.9691 192.605 55.7208 192.605H89.2934C93.0451 192.605 96.0865 189.562 96.0865 185.807V185.801C96.0865 182.046 93.0451 179.002 89.2934 179.002Z" fill="#68E1FD"/>
<path d="M89.2934 179.002H55.7208C51.9691 179.002 48.9278 182.046 48.9278 185.801V185.807C48.9278 189.562 51.9691 192.605 55.7208 192.605H89.2934C93.0451 192.605 96.0865 189.562 96.0865 185.807V185.801C96.0865 182.046 93.0451 179.002 89.2934 179.002Z" fill="url(#paint4_linear_31_24)"/>
<path opacity="0.24" d="M95.0442 105.804H55.0157C53.1128 105.804 51.5702 107.348 51.5702 109.252V109.258C51.5702 111.163 53.1128 112.706 55.0157 112.706H95.0442C96.9471 112.706 98.4898 111.163 98.4898 109.258V109.252C98.4898 107.348 96.9471 105.804 95.0442 105.804Z" fill="#68E1FD"/>
<path opacity="0.24" d="M319.213 49.423V226.229H319.152C319.152 226.229 319.152 226.229 319.115 226.229C319.032 226.174 318.944 226.126 318.852 226.088C318.19 225.781 316.663 225.081 314.388 224.014C314.125 223.891 313.867 223.768 313.585 223.652L312.218 223.008C311.893 222.866 311.574 222.707 311.25 222.566C308.534 221.296 305.198 219.743 301.379 217.952C300.208 217.412 299.006 216.847 297.737 216.246L254.055 195.851C253.172 195.452 252.307 195.029 251.424 194.624C250.057 193.98 248.666 193.335 247.28 192.691C246.011 192.078 244.723 191.507 243.436 190.9C240.039 189.312 236.649 187.729 233.265 186.151C232.216 185.672 231.15 185.187 230.107 184.684C228.336 183.856 226.588 183.034 224.835 182.23C224.222 181.923 223.572 181.616 222.928 181.34L221.138 180.512C219.991 179.984 218.863 179.463 217.735 178.917C212.671 176.567 207.742 174.272 203.076 172.075C202.028 171.615 201.004 171.13 199.98 170.646C196.915 169.216 193.947 167.829 191.152 166.522C189.76 165.878 188.436 165.252 187.13 164.651L184.849 163.596L183.464 162.952L182.096 162.307L179.945 161.301C177.977 160.375 176.143 159.534 174.427 158.749C173.924 158.503 173.44 158.282 172.974 158.061C171.49 157.356 170.141 156.736 168.952 156.172C168.553 156.012 168.192 155.828 167.83 155.668C166.199 154.902 164.93 154.319 164.109 153.938C163.951 153.848 163.79 153.766 163.624 153.693C162.944 153.374 162.275 153.049 161.632 152.711C160.467 152.097 159.363 151.484 158.333 150.87C157.873 150.588 157.414 150.287 156.966 149.981C156.873 149.941 156.786 149.887 156.709 149.821C156.322 149.563 155.942 149.281 155.562 148.999C154.955 148.579 154.37 148.128 153.809 147.649C153.429 147.324 153.048 147.005 152.687 146.68C152.687 146.68 152.644 146.68 152.625 146.624C152.245 146.281 151.859 145.919 151.497 145.557C151.497 145.557 151.497 145.557 151.461 145.514C151.013 145.091 150.614 144.649 150.234 144.225C149.854 143.802 149.45 143.342 149.112 142.9C148.775 142.458 148.407 141.992 148.082 141.532C147.757 141.072 147.439 140.605 147.157 140.139C146.875 139.673 146.599 139.194 146.353 138.716C145.604 137.3 144.988 135.816 144.514 134.286C142.54 127.825 143.123 120.787 145.397 113.578C145.43 113.446 145.471 113.317 145.52 113.191C150.142 98.8214 161.325 83.9116 171.84 72.1557C178.96 64.23 186.583 56.77 194.659 49.8218L319.213 49.423Z" fill="#68E1FD"/>
<path opacity="0.24" d="M319.214 82.9544V162.227C319.147 162.239 319.078 162.239 319.011 162.227C318.815 162.264 318.613 162.283 318.398 162.307C308.423 163.111 298.51 159.969 288.516 160.092C280.81 160.154 273.293 162.148 265.746 163.737C245.76 167.937 225.292 169.372 204.916 168.001C200.33 167.682 195.719 167.216 191.14 166.473C181.643 164.921 172.391 162.178 164.25 157.11C159.341 154.069 155.036 150.146 151.552 145.538C151.552 145.538 151.552 145.538 151.516 145.495C150.97 144.771 150.449 144.047 149.965 143.305C148.071 140.451 146.57 137.356 145.501 134.101C145.281 133.439 145.078 132.776 144.888 132.089L145.434 113.578C145.466 113.446 145.507 113.317 145.556 113.191C150.179 98.8212 161.362 83.9115 171.876 72.1556H174.838V86.3904H179.945V74.978H185.977V85.5866H194.046V97.9868H203.138V85.8872H219.023V97.9868H232.921V78.9662H240.027V85.1019H245.98V97.9868H251.933V89.3968H259.211V97.9868H263.196V83.8747H270.136V78.1194H283.366V97.9868H289.215V66.6273H302.452V97.9868H307.969V71.9408H318.122V82.9851L319.214 82.9544Z" fill="#68E1FD"/>
<path d="M319.213 226.229C319.213 226.229 174.703 158.865 163.679 153.693C152.656 148.52 146.868 141.857 144.557 134.273L318.833 102.693L319.213 226.229Z" fill="#68E1FD"/>
<path d="M319.213 226.229C319.213 226.229 174.703 158.865 163.679 153.693C152.656 148.52 146.868 141.857 144.557 134.273L318.833 102.693L319.213 226.229Z" fill="url(#paint5_linear_31_24)"/>
<path d="M202.751 151.429L318.263 127.058V141.225L223.137 162.191L202.751 151.429Z" fill="url(#paint6_linear_31_24)"/>
<path d="M108.005 130.929H50.626V141.888H108.005V130.929Z" fill="url(#paint7_linear_31_24)"/>
<path d="M108.005 145.097H50.626V156.055H108.005V145.097Z" fill="url(#paint8_linear_31_24)"/>
<path d="M241.302 135.537C242.504 135.537 243.479 134.408 243.479 133.015C243.479 131.623 242.504 130.494 241.302 130.494C240.1 130.494 239.126 131.623 239.126 133.015C239.126 134.408 240.1 135.537 241.302 135.537Z" fill="#68E1FD"/>
<path d="M241.308 135.537C242.511 135.537 243.485 134.408 243.485 133.015C243.485 131.623 242.511 130.494 241.308 130.494C240.106 130.494 239.132 131.623 239.132 133.015C239.132 134.408 240.106 135.537 241.308 135.537Z" fill="url(#paint9_linear_31_24)"/>
<path d="M241.94 134.905C242.607 134.905 243.148 134.056 243.148 133.009C243.148 131.962 242.607 131.113 241.94 131.113C241.273 131.113 240.732 131.962 240.732 133.009C240.732 134.056 241.273 134.905 241.94 134.905Z" fill="url(#paint10_linear_31_24)"/>
<path d="M243.92 129.586C243.92 129.586 242.89 131.807 243.853 132.653C244.281 133.05 244.747 133.403 245.244 133.709L244.821 134.322L241.499 133.065C241.499 133.065 241.229 132.568 241.566 132.298C241.566 132.298 242.105 132.414 242.332 132.077C242.558 131.308 242.708 130.519 242.78 129.721L243.92 129.586Z" fill="#68E1FD"/>
<path d="M243.92 129.586C243.92 129.586 242.89 131.807 243.853 132.653C244.281 133.05 244.747 133.403 245.244 133.709L244.821 134.322L241.499 133.065C241.499 133.065 241.229 132.568 241.566 132.298C241.566 132.298 242.105 132.414 242.332 132.077C242.558 131.308 242.708 130.519 242.78 129.721L243.92 129.586Z" fill="url(#paint11_linear_31_24)"/>
<path d="M259.223 110.16C264.079 109.442 270.338 108.233 274.906 107.559C276.291 107.356 279.571 107.19 280.963 107.086C282.011 107.012 284.991 99.3305 285.42 98.3795C287.971 92.6979 290.576 87.0408 293.163 81.3775C293.243 81.2057 293.341 81.0339 293.409 80.856C294.144 78.7944 293.74 78.4508 291.569 78.5367C286.622 78.7392 282.986 81.3469 279.921 84.8442C275.016 90.4461 270.332 96.2075 265.55 101.901C265.507 102.006 259.437 109.792 259.223 110.16Z" fill="#68E1FD"/>
<path d="M259.223 110.16C264.079 109.442 270.338 108.233 274.906 107.559C276.291 107.356 279.571 107.19 280.963 107.086C282.011 107.012 284.991 99.3305 285.42 98.3795C287.971 92.6979 290.576 87.0408 293.163 81.3775C293.243 81.2057 293.341 81.0339 293.409 80.856C294.144 78.7944 293.74 78.4508 291.569 78.5367C286.622 78.7392 282.986 81.3469 279.921 84.8442C275.016 90.4461 270.332 96.2075 265.55 101.901C265.507 102.006 259.437 109.792 259.223 110.16Z" fill="url(#paint12_linear_31_24)"/>
<path d="M278.265 125.137C282.14 124.524 285.757 123.984 289.35 123.352C298.871 121.683 308.356 119.713 317.196 115.694C319.855 114.433 322.371 112.89 324.701 111.093C327.055 109.332 327.913 106.896 327.337 103.791C326.111 97.2445 325.197 90.6425 324.167 84.065C323.793 81.6782 322.512 80.8131 320.188 81.4573C318.214 82.0096 316.712 83.1262 316.025 85.1387C314.903 88.4336 313.831 91.7469 312.678 95.0233C312.26 96.2535 311.748 97.4495 311.145 98.6004C310.799 99.2386 310.304 99.7834 309.702 100.188C309.1 100.593 308.409 100.846 307.687 100.926C282.649 104.971 257.61 109.029 232.572 113.099C226.22 114.124 220.427 116.277 215.804 120.928C213.529 123.217 211.702 125.837 211.059 129.07C210.611 131.334 211.059 132.101 213.364 132.218C216.733 132.466 220.117 132.466 223.486 132.218C232.413 131.347 241.315 130.242 250.223 129.15C251.445 128.956 252.696 129.233 253.723 129.923C266.365 137.899 279.056 145.827 291.704 153.803C295.806 156.392 300.159 156.466 304.683 155.38C305.486 155.19 305.732 154.644 305.296 153.975C304.826 153.19 304.274 152.457 303.647 151.791C295.567 143.328 287.486 134.868 279.406 126.413C279.075 126.07 278.768 125.702 278.265 125.137Z" fill="#68E1FD"/>
<path d="M324.688 111.093C322.368 112.897 319.856 114.438 317.196 115.688C308.325 119.719 298.865 121.683 289.356 123.339C285.763 123.953 282.146 124.518 278.271 125.125C278.78 125.689 279.087 126.07 279.418 126.401C287.498 134.875 295.579 143.317 303.635 151.815C304.264 152.474 304.82 153.201 305.29 153.981C305.701 154.644 305.444 155.208 304.677 155.386C300.165 156.484 295.806 156.405 291.704 153.803C279.056 145.827 266.365 137.936 253.693 129.923C252.662 129.247 251.418 128.974 250.198 129.156C241.278 130.23 232.382 131.328 223.461 132.193C220.092 132.448 216.709 132.448 213.339 132.193C211.022 132.071 210.587 131.304 211.022 129.058C211.684 125.794 213.474 123.192 215.761 120.916C220.402 116.253 226.184 114.105 232.535 113.087C257.594 109.029 282.637 104.963 307.663 100.889C308.384 100.819 309.075 100.57 309.676 100.165C310.276 99.76 310.767 99.2118 311.102 98.5697C311.727 97.425 312.256 96.2306 312.684 94.9987C313.831 91.7039 314.903 88.4152 316.025 85.1019C316.712 83.1078 318.214 81.985 320.176 81.4205C322.524 80.8069 323.799 81.6475 324.155 84.022C325.075 89.8632 325.914 95.7289 326.957 101.576C327.061 102.312 327.214 103.03 327.343 103.767C327.901 106.884 327.086 109.338 324.688 111.093Z" fill="url(#paint13_linear_31_24)"/>
<path d="M304.653 155.386C300.14 156.484 295.781 156.405 291.68 153.803C279.032 145.827 266.341 137.936 253.668 129.923C252.637 129.247 251.393 128.974 250.174 129.156C241.253 130.23 232.357 131.328 223.437 132.193C220.068 132.448 216.684 132.448 213.315 132.193C210.997 132.071 210.562 131.304 210.997 129.058L242.228 125.377C247.036 124.815 251.903 125.644 256.256 127.763L257.978 128.598C257.978 128.598 293.868 152.785 298.896 153.245C303.923 153.705 305.266 153.932 305.266 153.932C305.701 154.644 305.444 155.208 304.653 155.386Z" fill="url(#paint14_linear_31_24)"/>
<path d="M324.688 111.093C322.368 112.897 319.856 114.438 317.196 115.688C308.325 119.719 298.865 121.683 289.356 123.34C285.763 123.953 282.146 124.518 278.272 125.125L275.513 121.99C275.513 121.99 311.758 115.357 317.705 110.154C323.113 105.405 326.423 102.141 326.957 101.607C327.061 102.343 327.214 103.061 327.343 103.797C327.901 106.884 327.086 109.338 324.688 111.093Z" fill="url(#paint15_linear_31_24)"/>
<path d="M245.03 136.905C246.232 136.905 247.206 135.776 247.206 134.384C247.206 132.991 246.232 131.862 245.03 131.862C243.828 131.862 242.853 132.991 242.853 134.384C242.853 135.776 243.828 136.905 245.03 136.905Z" fill="#68E1FD"/>
<path d="M245.036 136.905C246.238 136.905 247.212 135.776 247.212 134.384C247.212 132.991 246.238 131.862 245.036 131.862C243.834 131.862 242.86 132.991 242.86 134.384C242.86 135.776 243.834 136.905 245.036 136.905Z" fill="url(#paint16_linear_31_24)"/>
<path d="M245.668 136.274C246.335 136.274 246.875 135.425 246.875 134.378C246.875 133.331 246.335 132.482 245.668 132.482C245 132.482 244.46 133.331 244.46 134.378C244.46 135.425 245 136.274 245.668 136.274Z" fill="url(#paint17_linear_31_24)"/>
</g>
<defs>
<linearGradient id="paint0_linear_31_24" x1="61.5942" y1="76.3769" x2="60.7406" y2="35.3415" gradientUnits="userSpaceOnUse">
<stop stop-color="white" stop-opacity="0"/>
<stop offset="0.13" stop-color="white" stop-opacity="0.23"/>
<stop offset="0.23" stop-color="white" stop-opacity="0.41"/>
<stop offset="0.35" stop-color="white" stop-opacity="0.59"/>
<stop offset="0.48" stop-color="white" stop-opacity="0.74"/>
<stop offset="0.6" stop-color="white" stop-opacity="0.85"/>
<stop offset="0.72" stop-color="white" stop-opacity="0.93"/>
<stop offset="0.84" stop-color="white" stop-opacity="0.98"/>
<stop offset="0.95" stop-color="white"/>
</linearGradient>
<linearGradient id="paint1_linear_31_24" x1="391.208" y1="386.977" x2="-115.458" y2="-204.239" gradientUnits="userSpaceOnUse">
<stop stop-color="#010101" stop-opacity="0"/>
<stop offset="0.95" stop-color="#010101"/>
</linearGradient>
<linearGradient id="paint2_linear_31_24" x1="84306" y1="100497" x2="82734.3" y2="-7216.82" gradientUnits="userSpaceOnUse">
<stop stop-color="white" stop-opacity="0"/>
<stop offset="0.13" stop-color="white" stop-opacity="0.23"/>
<stop offset="0.23" stop-color="white" stop-opacity="0.41"/>
<stop offset="0.35" stop-color="white" stop-opacity="0.59"/>
<stop offset="0.48" stop-color="white" stop-opacity="0.74"/>
<stop offset="0.6" stop-color="white" stop-opacity="0.85"/>
<stop offset="0.72" stop-color="white" stop-opacity="0.93"/>
<stop offset="0.84" stop-color="white" stop-opacity="0.98"/>
<stop offset="0.95" stop-color="white"/>
</linearGradient>
<linearGradient id="paint3_linear_31_24" x1="81820.5" y1="1666.08" x2="81878.5" y2="8715.36" gradientUnits="userSpaceOnUse">
<stop stop-color="#010101" stop-opacity="0"/>
<stop offset="0.95" stop-color="#010101"/>
</linearGradient>
<linearGradient id="paint4_linear_31_24" x1="5499.06" y1="4148.71" x2="5493.01" y2="5468.22" gradientUnits="userSpaceOnUse">
<stop stop-color="#010101" stop-opacity="0"/>
<stop offset="0.95" stop-color="#010101"/>
</linearGradient>
<linearGradient id="paint5_linear_31_24" x1="59363.5" y1="17637.4" x2="88611.6" y2="111516" gradientUnits="userSpaceOnUse">
<stop stop-color="white" stop-opacity="0"/>
<stop offset="0.13" stop-color="white" stop-opacity="0.23"/>
<stop offset="0.23" stop-color="white" stop-opacity="0.41"/>
<stop offset="0.35" stop-color="white" stop-opacity="0.59"/>
<stop offset="0.48" stop-color="white" stop-opacity="0.74"/>
<stop offset="0.6" stop-color="white" stop-opacity="0.85"/>
<stop offset="0.72" stop-color="white" stop-opacity="0.93"/>
<stop offset="0.84" stop-color="white" stop-opacity="0.98"/>
<stop offset="0.95" stop-color="white"/>
</linearGradient>
<linearGradient id="paint6_linear_31_24" x1="43771.5" y1="8782.75" x2="104078" y2="-25582" gradientUnits="userSpaceOnUse">
<stop stop-color="#010101" stop-opacity="0"/>
<stop offset="0.95" stop-color="#010101"/>
</linearGradient>
<linearGradient id="paint7_linear_31_24" x1="7270.61" y1="1979.16" x2="7273.5" y2="3188.81" gradientUnits="userSpaceOnUse">
<stop stop-color="white" stop-opacity="0"/>
<stop offset="0.13" stop-color="white" stop-opacity="0.23"/>
<stop offset="0.23" stop-color="white" stop-opacity="0.41"/>
<stop offset="0.35" stop-color="white" stop-opacity="0.59"/>
<stop offset="0.48" stop-color="white" stop-opacity="0.74"/>
<stop offset="0.6" stop-color="white" stop-opacity="0.85"/>
<stop offset="0.72" stop-color="white" stop-opacity="0.93"/>
<stop offset="0.84" stop-color="white" stop-opacity="0.98"/>
<stop offset="0.95" stop-color="white"/>
</linearGradient>
<linearGradient id="paint8_linear_31_24" x1="7253.97" y1="1993.33" x2="7256.86" y2="3202.99" gradientUnits="userSpaceOnUse">
<stop stop-color="white" stop-opacity="0"/>
<stop offset="0.13" stop-color="white" stop-opacity="0.23"/>
<stop offset="0.23" stop-color="white" stop-opacity="0.41"/>
<stop offset="0.35" stop-color="white" stop-opacity="0.59"/>
<stop offset="0.48" stop-color="white" stop-opacity="0.74"/>
<stop offset="0.6" stop-color="white" stop-opacity="0.85"/>
<stop offset="0.72" stop-color="white" stop-opacity="0.93"/>
<stop offset="0.84" stop-color="white" stop-opacity="0.98"/>
<stop offset="0.95" stop-color="white"/>
</linearGradient>
<linearGradient id="paint9_linear_31_24" x1="1974.7" y1="1193.27" x2="1922.78" y2="1227.38" gradientUnits="userSpaceOnUse">
<stop stop-color="#010101" stop-opacity="0"/>
<stop offset="0.95" stop-color="#010101"/>
</linearGradient>
<linearGradient id="paint10_linear_31_24" x1="1199.56" y1="938.21" x2="1177.92" y2="948.694" gradientUnits="userSpaceOnUse">
<stop stop-color="#010101" stop-opacity="0"/>
<stop offset="0.95" stop-color="#010101"/>
</linearGradient>
<linearGradient id="paint11_linear_31_24" x1="1764.76" y1="1328.74" x2="1772.67" y2="1328.15" gradientUnits="userSpaceOnUse">
<stop stop-color="#010101" stop-opacity="0"/>
<stop offset="0.95" stop-color="#010101"/>
</linearGradient>
<linearGradient id="paint12_linear_31_24" x1="15524" y1="6993.33" x2="15921.4" y2="5785.84" gradientUnits="userSpaceOnUse">
<stop stop-color="white" stop-opacity="0"/>
<stop offset="0.13" stop-color="white" stop-opacity="0.23"/>
<stop offset="0.23" stop-color="white" stop-opacity="0.41"/>
<stop offset="0.35" stop-color="white" stop-opacity="0.59"/>
<stop offset="0.48" stop-color="white" stop-opacity="0.74"/>
<stop offset="0.6" stop-color="white" stop-opacity="0.85"/>
<stop offset="0.72" stop-color="white" stop-opacity="0.93"/>
<stop offset="0.84" stop-color="white" stop-opacity="0.98"/>
<stop offset="0.95" stop-color="white"/>
</linearGradient>
<linearGradient id="paint13_linear_31_24" x1="49078.1" y1="21179.5" x2="50014.7" y2="17497.7" gradientUnits="userSpaceOnUse">
<stop stop-color="white" stop-opacity="0"/>
<stop offset="0.13" stop-color="white" stop-opacity="0.23"/>
<stop offset="0.23" stop-color="white" stop-opacity="0.41"/>
<stop offset="0.35" stop-color="white" stop-opacity="0.59"/>
<stop offset="0.48" stop-color="white" stop-opacity="0.74"/>
<stop offset="0.6" stop-color="white" stop-opacity="0.85"/>
<stop offset="0.72" stop-color="white" stop-opacity="0.93"/>
<stop offset="0.84" stop-color="white" stop-opacity="0.98"/>
<stop offset="0.95" stop-color="white"/>
</linearGradient>
<linearGradient id="paint14_linear_31_24" x1="41841.8" y1="6858.5" x2="40067.8" y2="22031.7" gradientUnits="userSpaceOnUse">
<stop stop-color="#010101" stop-opacity="0"/>
<stop offset="0.95" stop-color="#010101"/>
</linearGradient>
<linearGradient id="paint15_linear_31_24" x1="25789.2" y1="5086.73" x2="26011.1" y2="8311.27" gradientUnits="userSpaceOnUse">
<stop stop-color="#010101" stop-opacity="0"/>
<stop offset="0.95" stop-color="#010101"/>
</linearGradient>
<linearGradient id="paint16_linear_31_24" x1="2004.87" y1="1205.89" x2="1952.97" y2="1239.95" gradientUnits="userSpaceOnUse">
<stop stop-color="#010101" stop-opacity="0"/>
<stop offset="0.95" stop-color="#010101"/>
</linearGradient>
<linearGradient id="paint17_linear_31_24" x1="1217.96" y1="947.996" x2="1196.32" y2="958.512" gradientUnits="userSpaceOnUse">
<stop stop-color="#010101" stop-opacity="0"/>
<stop offset="0.95" stop-color="#010101"/>
</linearGradient>
<clipPath id="clip0_31_24">
<rect width="350" height="264" fill="white"/>
</clipPath>
</defs>
</svg>
