<svg width="406" height="306" viewBox="0 0 406 306" fill="none" xmlns="http://www.w3.org/2000/svg">
<path opacity="0.24" d="M204.411 244.797C271.13 244.797 325.216 205.547 325.216 157.131C325.216 108.715 271.13 69.4655 204.411 69.4655C137.692 69.4655 83.6056 108.715 83.6056 157.131C83.6056 205.547 137.692 244.797 204.411 244.797Z" fill="#E6E6E6"/>
<path d="M182.893 101.56C182.893 101.56 210.552 97.4998 254.166 39.1068L269.462 160.47C269.462 160.47 222.458 130.67 190.414 142.525C190.414 142.525 173.058 123.951 182.893 101.56Z" fill="#68E1FD"/>
<path d="M279.206 161.023C298.252 159.092 310.797 128.98 307.226 93.7663C303.655 58.5525 285.321 31.5717 266.275 33.5029C247.23 35.4342 234.685 65.5461 238.255 100.76C241.826 135.974 260.16 162.954 279.206 161.023Z" fill="#24285B"/>
<path d="M157.031 145.895C157.031 145.895 153.762 161.8 169.637 164.409C185.512 167.017 203.903 207.404 203.903 207.404L223.513 195.437C223.513 195.437 189.805 150.026 199.955 140.211L157.031 145.895Z" fill="#68E1FD"/>
<path opacity="0.46" d="M157.031 145.895C157.031 145.895 153.762 161.8 169.637 164.409C185.512 167.017 203.903 207.404 203.903 207.404L223.513 195.437C223.513 195.437 189.805 150.026 199.955 140.211L157.031 145.895Z" fill="white"/>
<path d="M244.219 128.823L275.167 118.419L271.482 82.1733L237.622 84.3657C237.622 84.3657 234.901 104.361 244.219 128.823Z" fill="#68E1FD"/>
<path opacity="0.18" d="M244.219 128.823L275.167 118.419L271.482 82.1733L237.622 84.3657C237.622 84.3657 234.901 104.361 244.219 128.823Z" fill="black"/>
<path d="M275.167 118.431C280.582 117.881 284.15 109.321 283.134 99.31C282.119 89.2991 276.906 81.6289 271.491 82.178C266.076 82.7271 262.509 91.2877 263.524 101.299C264.539 111.309 269.752 118.98 275.167 118.431Z" fill="#68E1FD"/>
<path d="M186.171 100.738C186.171 100.738 140.496 111.578 137.938 121.2C135.381 130.822 143.399 152.665 154.747 152.269C166.095 151.873 189.582 141.581 189.582 141.581C189.582 141.581 177.889 119.231 186.171 100.738Z" fill="#24285B"/>
<path d="M98.4956 248.359L169.657 191.073L191.744 208.663L154.26 266.02L98.4956 248.359Z" fill="#F4A28C"/>
<path d="M203.315 158.725C206.242 158.478 209.172 159.177 211.673 160.719C214.174 162.261 216.115 164.565 217.21 167.291C221.27 177.045 221.118 183.409 210.42 186.931C199.722 190.453 197.143 161.851 197.143 161.851L203.315 158.725Z" fill="#D68676"/>
<path d="M193.276 141.104L201.985 159.872L211.181 154.675C212.278 154.069 213.112 153.078 213.523 151.894C213.933 150.709 213.891 149.415 213.404 148.26L209.892 139.805C209.892 139.805 199.955 138.201 193.276 141.104Z" fill="#24285B"/>
<path d="M167.891 195.325C167.891 195.325 171.21 163.932 182.527 160.176C193.845 156.421 207.649 164.236 201.031 172.64C194.413 181.044 185.989 171.859 185.989 171.859L199.042 197.944L191.744 208.663L167.891 195.325Z" fill="#F4A28C"/>
<path d="M199.711 146.331C200.431 145.803 201.3 145.518 202.193 145.518C203.086 145.518 203.955 145.803 204.675 146.331C206.4 147.58 208.298 149.722 207.466 152.736C206.035 157.923 196.971 164.784 193.256 161.993C190.13 159.638 194.667 150.046 199.711 146.331Z" fill="#F4A28C"/>
<path d="M90.5887 246.36L156.746 268.131L189.582 220.102L154.859 195.569L90.5887 246.36Z" fill="#FFD200"/>
<path opacity="0.06" d="M177.524 211.576L130.448 259.474L156.746 268.131L189.582 220.102L177.524 211.576Z" fill="black"/>
</svg>
