<svg width="406" height="306" viewBox="0 0 406 306" fill="none" xmlns="http://www.w3.org/2000/svg">
<path d="M314.158 48.5497L88.0974 49.1021L88.4988 213.369L314.559 212.817L314.158 48.5497Z" fill="#F2F2F2"/>
<path d="M314.234 49.1045H88.0919V81.1683H314.234V49.1045Z" fill="#E6E6E6"/>
<path d="M66.8581 246.542L118.258 205.161L137.949 220.853L104.515 272.009L66.8581 246.542Z" fill="#F4A28C"/>
<path d="M61.9962 243.203L106.737 273.896L136.02 231.053L105.052 209.17L61.9962 243.203Z" fill="#68E1FD"/>
<path opacity="0.06" d="M125.271 223.451L88.0919 261.28L106.737 273.897L136.02 231.054L125.271 223.451Z" fill="black"/>
<path d="M272.05 69.6074C274.315 69.6074 276.151 67.7715 276.151 65.5069C276.151 63.2422 274.315 61.4062 272.05 61.4062C269.786 61.4062 267.95 63.2422 267.95 65.5069C267.95 67.7715 269.786 69.6074 272.05 69.6074Z" fill="#24285B"/>
<path d="M284.241 69.5772C286.505 69.5772 288.341 67.7413 288.341 65.4766C288.341 63.2119 286.505 61.376 284.241 61.376C281.976 61.376 280.14 63.2119 280.14 65.4766C280.14 67.7413 281.976 69.5772 284.241 69.5772Z" fill="#68E1FD"/>
<path d="M295.73 69.5469C297.995 69.5469 299.831 67.711 299.831 65.4463C299.831 63.1816 297.995 61.3457 295.73 61.3457C293.466 61.3457 291.63 63.1816 291.63 65.4463C291.63 67.711 293.466 69.5469 295.73 69.5469Z" fill="#FFD200"/>
<path d="M259.901 61.376H136.467V69.567H259.901V61.376Z" fill="white"/>
<path d="M259.891 61.376H246.797V69.567H259.891V61.376Z" fill="#C9C9C9"/>
<path d="M270.67 126.965H138.131V147.773H270.67V126.965Z" fill="white"/>
<path d="M270.67 126.965H241.225V147.773H270.67V126.965Z" fill="#68E1FD"/>
<path d="M232.902 98.5757H170.956V110.116H232.902V98.5757Z" fill="#A5A5A5"/>
<path d="M161.964 165.036L153.101 161.819L141.832 192.865L150.695 196.082L161.964 165.036Z" fill="#24285B"/>
<path opacity="0.06" d="M192.952 116.744C192.952 116.744 221.849 133.065 204.401 165.555C186.953 198.046 179.158 172.254 170.956 213.159H144.82L157.122 167.21L170.956 168.54L186.293 163.089L194.931 149.315V131.045L192.952 116.744Z" fill="black"/>
<path opacity="0.18" d="M161.964 165.036L153.101 161.819L141.832 192.865L150.695 196.082L161.964 165.036Z" fill="white"/>
<path d="M154.971 179.986L149.265 177.915C146.815 177.026 144.108 178.291 143.218 180.741L133.826 206.616C132.937 209.066 134.202 211.774 136.652 212.663L142.358 214.734C144.808 215.623 147.515 214.358 148.405 211.908L157.797 186.033C158.686 183.583 157.421 180.875 154.971 179.986Z" fill="#24285B"/>
<path d="M228.202 183.714H177.909V191.144H228.202V183.714Z" fill="#C9C9C9"/>
<path opacity="0.39" d="M219.159 171.514H187.065V178.943H219.159V171.514Z" fill="#C9C9C9"/>
<path d="M178.356 106.412C172.072 104.131 165.254 103.766 158.762 105.36C152.271 106.955 146.398 110.439 141.886 115.371C137.374 120.304 134.426 126.463 133.415 133.071C132.404 139.678 133.375 146.437 136.205 152.493C139.035 158.549 143.597 163.63 149.314 167.093C155.032 170.556 161.648 172.247 168.326 171.95C175.004 171.653 181.444 169.383 186.832 165.427C192.219 161.47 196.313 156.005 198.595 149.722C200.11 145.549 200.789 141.119 200.592 136.684C200.395 132.249 199.326 127.896 197.447 123.874C195.567 119.853 192.914 116.24 189.638 113.244C186.363 110.248 182.529 107.926 178.356 106.412ZM158.208 161.922C153.512 160.219 149.427 157.162 146.469 153.137C143.511 149.112 141.814 144.3 141.59 139.31C141.367 134.321 142.629 129.377 145.216 125.104C147.802 120.831 151.598 117.421 156.123 115.306C160.648 113.19 165.698 112.464 170.636 113.219C175.573 113.974 180.176 116.177 183.862 119.548C187.548 122.919 190.151 127.307 191.342 132.158C192.534 137.008 192.26 142.103 190.556 146.799C189.426 149.916 187.692 152.78 185.455 155.228C183.217 157.675 180.519 159.658 177.515 161.062C174.511 162.467 171.26 163.266 167.947 163.413C164.634 163.561 161.325 163.054 158.208 161.922Z" fill="#FFD200"/>
<path d="M118.258 205.161C118.258 205.161 128.134 194.432 136.03 186.769C143.927 179.106 146.262 192.95 156.158 190.829C166.054 188.708 173.727 225.582 137.949 220.832L118.258 205.161Z" fill="#F4A28C"/>
<path d="M167.4 139.446V140.96H162.386V139.446H167.4ZM163.02 131.54V140.96H161.079V131.54H163.02ZM166.747 135.377V136.852H162.386V135.377H166.747ZM167.394 131.54V133.06H162.386V131.54H167.394ZM176.037 135.952V136.548C176.037 137.255 175.949 137.889 175.772 138.45C175.595 139.01 175.341 139.487 175.008 139.88C174.676 140.272 174.277 140.572 173.812 140.779C173.35 140.986 172.832 141.089 172.259 141.089C171.702 141.089 171.191 140.986 170.725 140.779C170.264 140.572 169.863 140.272 169.522 139.88C169.186 139.487 168.925 139.01 168.739 138.45C168.554 137.889 168.461 137.255 168.461 136.548V135.952C168.461 135.245 168.552 134.613 168.733 134.057C168.918 133.496 169.179 133.019 169.516 132.627C169.852 132.23 170.251 131.928 170.713 131.721C171.178 131.514 171.689 131.411 172.246 131.411C172.819 131.411 173.337 131.514 173.799 131.721C174.264 131.928 174.663 132.23 174.995 132.627C175.332 133.019 175.589 133.496 175.765 134.057C175.947 134.613 176.037 135.245 176.037 135.952ZM174.801 136.548V135.939C174.801 135.379 174.743 134.883 174.627 134.451C174.515 134.02 174.349 133.658 174.129 133.365C173.909 133.071 173.639 132.849 173.32 132.698C173.005 132.547 172.647 132.472 172.246 132.472C171.858 132.472 171.506 132.547 171.191 132.698C170.881 132.849 170.613 133.071 170.389 133.365C170.169 133.658 169.999 134.02 169.878 134.451C169.757 134.883 169.697 135.379 169.697 135.939V136.548C169.697 137.113 169.757 137.613 169.878 138.049C169.999 138.48 170.171 138.844 170.396 139.142C170.624 139.435 170.894 139.657 171.204 139.808C171.519 139.959 171.871 140.035 172.259 140.035C172.664 140.035 173.024 139.959 173.339 139.808C173.654 139.657 173.919 139.435 174.135 139.142C174.355 138.844 174.521 138.48 174.633 138.049C174.745 137.613 174.801 137.113 174.801 136.548Z" fill="#24285B"/>
<path d="M257.708 139.115C259.609 139.115 261.149 137.574 261.149 135.674C261.149 133.773 259.609 132.233 257.708 132.233C255.808 132.233 254.268 133.773 254.268 135.674C254.268 137.574 255.808 139.115 257.708 139.115Z" stroke="white" stroke-width="1.015" stroke-miterlimit="10"/>
<path d="M256.085 138.546L253.78 142.606" stroke="white" stroke-width="1.015" stroke-miterlimit="10"/>
<path d="M126.439 61.4165H103.895V69.6075H126.439V61.4165Z" fill="#24285B"/>
</svg>
