<svg width="406" height="306" viewBox="0 0 406 306" fill="none" xmlns="http://www.w3.org/2000/svg">
<path d="M123.688 111.304C123.688 111.304 106.007 108.949 102.454 123.727C98.9016 138.506 98.3941 158.988 84.1841 163.089C69.9741 167.19 62.1079 138.729 62.1079 138.729C62.1079 138.729 58.8091 130.751 55.2566 129.665C51.7041 128.579 49.1666 136.445 55.2566 141.267C55.2566 141.267 60.3824 177.553 87.6351 176.284C114.888 175.015 123.688 137.633 123.688 111.304Z" fill="#F4A28C"/>
<path opacity="0.08" d="M123.688 111.304C123.688 111.304 106.007 108.949 102.454 123.727C98.9016 138.506 98.3941 158.988 84.1841 163.089C69.9741 167.19 62.1079 138.729 62.1079 138.729C62.1079 138.729 58.8091 130.751 55.2566 129.665C51.7041 128.579 49.1666 136.445 55.2566 141.267C55.2566 141.267 60.3824 177.553 87.6351 176.284C114.888 175.015 123.688 137.633 123.688 111.304Z" fill="black"/>
<path opacity="0.45" d="M212.054 288.005C298.617 288.005 368.79 278.598 368.79 266.995C368.79 255.391 298.617 245.984 212.054 245.984C125.491 245.984 55.3175 255.391 55.3175 266.995C55.3175 278.598 125.491 288.005 212.054 288.005Z" fill="#E6E6E6"/>
<path d="M292.827 56.3923H176.986V264.153H292.827V56.3923Z" fill="#C9C9C9"/>
<path d="M282.454 80.0723H186.567V226.283H282.454V80.0723Z" fill="white"/>
<path opacity="0.56" d="M235.257 256.347C241.518 256.347 246.594 251.271 246.594 245.01C246.594 238.748 241.518 233.672 235.257 233.672C228.995 233.672 223.919 238.748 223.919 245.01C223.919 251.271 228.995 256.347 235.257 256.347Z" fill="white"/>
<path opacity="0.12" d="M257.587 64.5123H225.107V69.2524H257.587V64.5123Z" fill="black"/>
<path d="M213.343 72.683C216.263 72.683 218.631 70.3154 218.631 67.3948C218.631 64.4743 216.263 62.1067 213.343 62.1067C210.422 62.1067 208.055 64.4743 208.055 67.3948C208.055 70.3154 210.422 72.683 213.343 72.683Z" fill="white"/>
<path d="M123.688 84.995C123.688 84.995 112.026 98.7279 121.343 103.681C135.015 110.949 136.68 85.8273 136.68 85.8273L123.688 84.995Z" fill="#24285B"/>
<path d="M124.601 86.3551C124.601 86.3551 122.165 91.5215 121.749 95.3988C121.709 95.7744 121.743 96.1545 121.85 96.5167C121.958 96.879 122.136 97.2163 122.375 97.5091C122.614 97.8018 122.909 98.0442 123.242 98.2221C123.576 98.3999 123.941 98.5098 124.317 98.5453C125.52 98.7405 126.753 98.5848 127.869 98.097C128.985 97.6091 129.937 96.8097 130.61 95.7946L133.939 91.7346C134.519 90.8464 134.809 89.8002 134.769 88.7404C134.729 87.6805 134.361 86.6592 133.716 85.8172C131.503 82.5083 125.921 83.1376 124.601 86.3551Z" fill="#F4A28C"/>
<path d="M132.681 92.6481L134.021 111.304H123.688L126.784 98.0783L132.681 92.6481Z" fill="#F4A28C"/>
<path d="M123.231 89.6843L120.978 91.1967C120.848 91.2791 120.741 91.393 120.667 91.5279C120.593 91.6628 120.554 91.8142 120.554 91.9681C120.554 92.122 120.593 92.2734 120.667 92.4082C120.741 92.5431 120.848 92.657 120.978 92.7395L122.876 93.8864L123.231 89.6843Z" fill="#F4A28C"/>
<path opacity="0.31" d="M126.702 98.4539C127.948 98.2303 129.109 97.6725 130.062 96.8401C130.062 96.8401 130.732 100.9 125.809 102.24L126.702 98.4539Z" fill="#CE8172"/>
<path d="M129.311 92.4248C129.311 92.4248 130.113 90.3948 131.605 91.1053C133.097 91.8158 131.95 94.7999 129.747 94.3026L129.311 92.4248Z" fill="#F4A28C"/>
<path d="M105.032 217.523L96.2931 257.24H101.368L118.379 217.523H105.032Z" fill="#F4A28C"/>
<path d="M133.462 212.702L142.78 257.241H147.885L147.114 212.388L133.462 212.702Z" fill="#F4A28C"/>
<path d="M96.293 257.24C96.293 257.24 93.4713 260.813 89.8579 260.641C86.2445 260.468 85.7269 265.563 91.5225 265.036C93.3278 264.88 95.117 264.575 96.8716 264.122C98.492 263.743 100.184 263.802 101.774 264.295C102.084 264.363 102.408 264.337 102.703 264.22C102.998 264.102 103.251 263.898 103.428 263.635C105.073 261.696 101.023 257.24 101.023 257.24H96.293Z" fill="#68E1FD"/>
<path d="M147.51 257.24C147.51 257.24 150.332 260.813 153.945 260.641C157.558 260.468 158.086 265.563 152.28 265.036C150.475 264.88 148.686 264.575 146.931 264.122C145.311 263.743 143.619 263.802 142.029 264.295C141.719 264.363 141.395 264.337 141.1 264.22C140.805 264.102 140.552 263.898 140.374 263.635C138.73 261.696 142.78 257.24 142.78 257.24H147.51Z" fill="#68E1FD"/>
<path opacity="0.12" d="M262.499 133.238H208.024V194.605H262.499V133.238Z" fill="black"/>
<path d="M252.238 201.304H217.586V216.133H252.238V201.304Z" fill="#FFD200"/>
<path d="M248.959 148.209L241.854 146.007C241.255 151.68 235.429 151.62 235.429 151.62C235.429 151.62 229.593 151.68 228.994 146.007L221.889 148.209L213.262 157.425L219.352 164.53L224.427 160.602L225.746 178.416H245.031L246.351 160.602L251.426 164.53L257.516 157.425L248.959 148.209Z" fill="white"/>
<path opacity="0.15" d="M177.239 117.658V127.117C177.239 127.117 183.553 130.162 192.414 126.387C201.274 122.611 205.609 130.609 216.713 126.387C227.817 122.164 230.923 131.391 243.153 128.082C255.384 124.773 259.261 123.565 265.9 127.189C272.538 130.812 287.215 127.808 292.827 123.474V111.294L276.587 99.611H191.084L177.239 117.658Z" fill="#2C2C3A"/>
<path d="M186.638 80.0723L168.815 106.655H301.699L282.678 80.0723H186.638Z" fill="#24285B"/>
<path d="M178.305 117.221C183.553 117.221 187.795 112.491 187.795 106.655H168.815C168.815 112.491 173.068 117.221 178.305 117.221Z" fill="#24285B"/>
<path d="M197.296 117.221C202.533 117.221 206.786 112.491 206.786 106.655H187.775C187.775 112.491 192.048 117.221 197.296 117.221Z" fill="#FAFAFA"/>
<path d="M216.276 117.221C221.514 117.221 225.766 112.491 225.766 106.655H206.786C206.786 112.491 211.029 117.221 216.276 117.221Z" fill="#24285B"/>
<path d="M235.257 117.221C240.504 117.221 244.747 112.491 244.747 106.655H225.766C225.766 112.491 230.019 117.221 235.257 117.221Z" fill="#FAFAFA"/>
<path d="M254.247 117.221C259.485 117.221 263.738 112.491 263.738 106.655H244.747C244.747 112.491 249 117.221 254.247 117.221Z" fill="#24285B"/>
<path d="M273.228 117.221C278.465 117.221 282.718 112.491 282.718 106.655H263.738C263.738 112.491 267.96 117.221 273.228 117.221Z" fill="#FAFAFA"/>
<path d="M292.208 117.221C297.456 117.221 301.699 112.491 301.699 106.655H282.718C282.718 112.491 286.971 117.221 292.208 117.221Z" fill="#24285B"/>
<path d="M187.795 106.655L198.514 80.0723H210.897L206.786 106.655H187.795Z" fill="#FAFAFA"/>
<path d="M282.688 106.655L271.979 80.0723H259.596L263.707 106.655H282.688Z" fill="#FAFAFA"/>
<path d="M225.766 106.655L226.7 80.0723H243.61L244.747 106.655H225.766Z" fill="#FAFAFA"/>
<path d="M125.281 78.2047C124.449 78.5229 123.707 79.0397 123.119 79.7101C122.532 80.3806 122.118 81.1843 121.912 82.0515C121.567 83.6248 121.851 85.533 124.388 86.822C129.463 89.4001 131.666 87.6949 131.24 90.9835C130.813 94.2721 125.312 105.64 136.649 104.879C147.987 104.118 144.262 97.307 142.232 93.2673C140.202 89.2276 140.121 85.7664 139.36 83.1173C138.659 80.732 132.874 75.2003 125.281 78.2047Z" fill="#24285B"/>
<path d="M123.688 111.304H133.98C133.98 111.304 134.691 111.304 135.909 111.304C158.442 112.024 171.535 137.054 159.568 156.167C152.91 166.794 144.962 181.115 144.435 189.662L104.271 187.632C104.271 187.632 107.316 161.577 99.876 146.687C99.9166 146.707 86.275 123.271 123.688 111.304Z" fill="#68E1FD"/>
<path d="M126.053 182.435C125.992 181.978 124.683 171.016 132.407 166.307L132.935 167.169C125.769 171.544 127.048 182.202 127.058 182.313L126.053 182.435Z" fill="white"/>
<path opacity="0.08" d="M145.713 119.393C145.713 119.393 128.854 125.818 136.68 152.888C140.74 166.987 104.504 165.454 104.504 165.454C104.504 165.454 105.164 176.274 104.789 181.197L123.241 182.212L145.713 183.673L146.81 180.506L153.641 167.646L154.28 150.899L148.951 141.571L145.713 119.393Z" fill="black"/>
<path d="M138.842 182.435C138.781 181.978 137.34 170.671 145.247 166.398L145.713 167.169C138.558 171.544 139.826 182.202 139.847 182.313L138.842 182.435Z" fill="white"/>
<path d="M104.789 181.156L145.805 183.318L156.757 224.862L97.4705 222.751L104.789 181.156Z" fill="#24285B"/>
<path d="M141.968 126.935C141.894 125.104 142.396 123.297 143.405 121.767C144.414 120.238 145.878 119.065 147.59 118.413C149.303 117.761 151.176 117.664 152.947 118.135C154.717 118.606 156.295 119.621 157.457 121.038C163.268 128.032 166.344 136.896 166.115 145.986C165.78 170.346 162.501 196.615 110.067 167.86L112.888 160.156C112.888 160.156 136.162 171.321 145.886 167.707C153.032 165.038 142.709 143.632 141.968 126.935Z" fill="#F4A28C"/>
<path d="M112.888 160.156C112.888 160.156 104.139 155.994 100.424 160.156C96.7092 164.317 102.617 168.022 110.067 167.86L112.888 160.156Z" fill="#F4A28C"/>
<path d="M122.165 180.425L152.017 183.298L153.204 219.706L113.913 217.432L122.165 180.425Z" fill="#FFD200"/>
<path opacity="0.08" d="M122.165 180.425L152.017 183.298L153.204 219.706L113.913 217.432L122.165 180.425Z" fill="black"/>
<path d="M128.732 181.055L156.046 183.744L160.685 220.081L121.404 217.818L128.732 181.055Z" fill="#FFD200"/>
<path d="M62.6469 114.467L50.6183 118.373L57.5149 139.612L69.5435 135.706L62.6469 114.467Z" fill="#FFD200"/>
<path d="M136.122 184.79L135.269 184.242C135.269 184.15 141.055 175.107 137.634 168.083C137.094 167.266 136.263 166.686 135.31 166.459C134.851 166.409 134.387 166.459 133.949 166.604C133.511 166.749 133.11 166.987 132.772 167.301L131.828 166.784C132.296 166.302 132.867 165.932 133.498 165.702C134.129 165.471 134.804 165.387 135.472 165.454C136.73 165.738 137.825 166.508 138.517 167.596C142.212 175.178 136.365 184.404 136.122 184.79Z" fill="white"/>
<path d="M147.977 185.48L147.124 184.932C147.185 184.84 152.91 175.797 149.499 168.773C148.953 167.957 148.12 167.377 147.165 167.149C146.642 167.096 146.115 167.16 145.62 167.335C145.125 167.511 144.675 167.794 144.303 168.164L143.694 167.464C144.16 166.984 144.73 166.616 145.359 166.387C145.988 166.159 146.661 166.076 147.327 166.144C147.952 166.281 148.542 166.541 149.065 166.909C149.588 167.276 150.032 167.744 150.372 168.286C154.077 175.848 148.19 185.084 147.977 185.48Z" fill="white"/>
<path d="M42.5488 76.54V96.84H55.6727L58.535 104.919L61.9251 96.84H75.0491V76.54H42.5488Z" fill="#E6E6E6"/>
<path opacity="0.12" d="M57.1546 91.227C57.0074 91.2219 56.863 91.1847 56.7315 91.1181C56.6001 91.0515 56.4847 90.9571 56.3934 90.8414L52.9221 86.416C52.7565 86.2033 52.6822 85.9336 52.7156 85.6661C52.7489 85.3987 52.8871 85.1554 53.0997 84.9899C53.3124 84.8243 53.5821 84.75 53.8495 84.7833C54.117 84.8166 54.3602 84.9548 54.5258 85.1675L57.2257 88.6388L63.8739 81.4526C63.9649 81.3541 64.0745 81.2745 64.1964 81.2186C64.3182 81.1627 64.45 81.1314 64.584 81.1267C64.718 81.122 64.8517 81.1439 64.9772 81.1911C65.1027 81.2383 65.2176 81.31 65.3152 81.4019C65.5112 81.5852 65.6265 81.8388 65.636 82.1069C65.6456 82.3751 65.5485 82.6362 65.366 82.833L57.9057 90.8921C57.8108 90.9972 57.695 91.0814 57.5656 91.1391C57.4363 91.1967 57.2963 91.2267 57.1546 91.227Z" fill="black"/>
<path opacity="0.52" d="M248.178 203.699H233.288V208.713H248.178V203.699Z" fill="white"/>
<path opacity="0.55" d="M324.546 226.293H292.827V242.706H324.546V226.293Z" fill="#E6E6E6"/>
<path d="M340.025 242.706H292.827V264.153H340.025V242.706Z" fill="#E6E6E6"/>
</svg>
