<svg width="406" height="306" viewBox="0 0 406 306" fill="none" xmlns="http://www.w3.org/2000/svg">
<path opacity="0.18" d="M353.624 295.542C373.824 287.908 392.088 271.582 396.047 250.342C399.311 232.823 392.584 215.037 384.406 199.187C376.229 183.338 366.324 168.024 362.508 150.619C355.399 118.253 370.065 82.3466 356.134 52.28C351.945 43.2533 345.399 35.4671 338.004 28.8355C305.666 -0.0574895 257.107 -6.52691 215.686 6.24973C174.264 19.0264 139.685 48.8544 114.246 83.9496C103.75 98.4152 94.6276 113.864 83.1868 127.575C67.9388 145.839 48.1489 161.869 41.5268 184.684C36.7081 201.172 39.6184 219.035 45.3435 235.256C54.1507 260.122 92.099 304.349 110.162 304.263C150.419 304.063 227.661 306.038 264.98 304.607C292.937 303.509 324.359 306.591 353.624 295.542Z" fill="#68E1FD"/>
<path d="M181.058 262.04C180.104 264.76 179.264 267.88 180.648 270.408C181.573 271.818 182.819 272.989 184.284 273.824L197.451 282.775C199.98 284.492 202.661 286.258 205.696 286.487C208.73 286.716 212.175 284.779 212.432 281.716C212.738 278.214 209.064 275.819 207.346 272.746C205.094 268.72 206.335 263.729 207.509 259.263C210.468 248.024 212.63 236.59 213.978 225.046C211.278 223.939 203.415 218.987 200.619 219.808C197.47 220.762 194.627 229.569 193.224 232.441C188.483 242.011 184.418 251.902 181.058 262.04Z" fill="#F1AF8C"/>
<path d="M206.316 186.516C202.9 196.22 199.274 205.953 193.797 214.674C193.598 214.926 193.494 215.24 193.501 215.561C193.588 215.864 193.777 216.127 194.035 216.306C199.541 221.124 205.486 226.153 212.728 227.193C213.2 227.302 213.694 227.259 214.14 227.069C214.558 226.773 214.867 226.347 215.018 225.857C219.636 215.161 221.268 203.443 221.115 191.859C221.015 186.073 220.556 180.299 219.741 174.569C219.55 173.176 219.446 166.993 218.234 166.268C216.392 165.18 214.369 168.978 213.568 170.17C210.247 175.142 208.281 180.867 206.316 186.516Z" fill="white"/>
<path d="M221.287 168.024C221.287 168.024 216.984 169.637 213.482 181.755C209.98 193.873 201.621 223.243 201.621 223.243C201.621 223.243 214.55 229.703 217.785 227.279C221.02 224.856 221.287 168.024 221.287 168.024Z" fill="url(#paint0_linear_37_395)"/>
<path d="M257.966 155.543C265.008 155.324 272.136 155.667 278.911 157.575C285.686 159.484 292.126 163.091 296.573 168.558C301.497 174.608 303.653 182.518 304.149 190.295C304.645 198.071 303.615 205.867 302.832 213.634C300.999 231.814 300.514 250.105 301.382 268.357C301.592 272.727 304.092 295.542 301.019 298.662C299.111 300.628 302.928 302.594 300.208 303.243C277.976 308.586 238.033 305.962 216.984 297.05C211.631 294.779 206.259 291.62 203.625 286.449C200.762 280.848 208.491 258.644 209.417 252.413C212.222 233.399 214.245 214.283 215.486 195.066C216.029 186.564 215.4 177.404 217.146 169.054C218.415 162.995 222.318 161.345 227.947 159.856C237.761 157.303 247.83 155.856 257.966 155.543Z" fill="white"/>
<path d="M276.258 255.017C275.523 258.882 274.56 262.918 271.917 265.838C269.826 267.928 267.268 269.491 264.455 270.399C251.192 275.399 236.068 274.616 223.358 280.895C222.461 281.288 221.636 281.826 220.915 282.488C218.463 284.912 219.15 289.168 221.096 292.03C225.419 298.357 233.825 300.131 241.411 301.305C259.598 304.168 278.167 306.505 296.344 303.576C297.333 303.505 298.279 303.143 299.063 302.536C299.69 301.808 300.092 300.912 300.218 299.96C304.34 281.658 301.096 262.603 301.019 243.844C301.019 233.023 301.974 222.193 301.239 211.401C300.869 204.685 299.473 198.066 297.098 191.773C295.409 187.499 290.466 178.062 287.499 186.821C282.785 200.743 281.43 215.752 279.731 230.265C278.806 238.538 277.813 246.821 276.258 255.017Z" fill="url(#paint1_linear_37_395)"/>
<path d="M281.945 288.567H127.729C123.402 288.567 119.895 292.074 119.895 296.401C119.895 300.727 123.402 304.235 127.729 304.235H281.945C286.272 304.235 289.779 300.727 289.779 296.401C289.779 292.074 286.272 288.567 281.945 288.567Z" fill="#68E1FD"/>
<path d="M281.945 288.567H127.729C123.402 288.567 119.895 292.074 119.895 296.401C119.895 300.727 123.402 304.235 127.729 304.235H281.945C286.272 304.235 289.779 300.727 289.779 296.401C289.779 292.074 286.272 288.567 281.945 288.567Z" fill="url(#paint2_linear_37_395)"/>
<path d="M240.953 170.371C237.795 169.865 236.02 166.688 237.432 159.035C237.585 158.186 237.785 157.365 238.014 156.545C238.014 156.392 238.1 156.239 238.138 156.087C238.482 154.903 238.873 153.72 239.255 152.547C240.317 149.73 240.879 146.749 240.915 143.739C240.829 141.545 240.657 139.264 241.468 137.241C242.247 135.525 243.469 134.046 245.008 132.957C248.415 130.333 258.367 125.4 260.275 131.917C261.125 134.703 260.504 137.947 260.466 140.8C260.275 144.889 261.026 148.966 262.661 152.718C264.741 156.898 248.711 171.611 240.953 170.371Z" fill="#F1AF8C"/>
<path d="M238.711 154.827C238.711 154.827 256.306 148.148 259.703 137.585L240.953 143.72C240.953 143.72 240.505 153.386 238.711 154.827Z" fill="url(#paint3_linear_37_395)"/>
<path d="M286.411 177.67C284.615 197.633 287.925 217.725 296.029 236.058C296.269 236.734 296.672 237.34 297.203 237.823C298.058 238.354 299.06 238.602 300.065 238.529C307.915 238.698 315.594 236.232 321.878 231.525C323.786 230.084 325.58 228.243 325.743 226C325.747 224.798 325.51 223.607 325.046 222.498C320.175 208.342 314.488 194.48 308.014 180.982C305.609 175.982 302.384 170.123 296.563 167.919C289.56 165.275 286.897 172.441 286.411 177.67Z" fill="white"/>
<path d="M252.317 189.083C257.537 183.577 261.363 176.926 265.142 170.352C267.441 166.344 269.798 162.155 270.123 157.537C270.205 157.013 270.121 156.476 269.884 156.001C269.654 155.67 269.355 155.393 269.006 155.19L261.84 150.333C261.716 154.732 258.558 158.51 254.951 161.039C251.134 163.749 240.209 166.716 242.546 172.337C243.129 173.758 251.707 189.722 252.317 189.083Z" fill="#68E1FD"/>
<path d="M252.317 189.083C257.537 183.577 261.363 176.926 265.142 170.352C267.441 166.344 269.798 162.155 270.123 157.537C270.205 157.013 270.121 156.476 269.884 156.001C269.654 155.67 269.355 155.393 269.006 155.19L261.84 150.333C261.716 154.732 258.558 158.51 254.951 161.039C251.134 163.749 240.209 166.716 242.546 172.337C243.129 173.758 251.707 189.722 252.317 189.083Z" fill="url(#paint4_linear_37_395)"/>
<path d="M293.09 292.155L334.884 284.168C337.355 283.691 339.931 283.214 341.888 281.592C344.569 279.435 345.513 275.657 345.122 272.231C344.731 268.806 343.214 265.628 341.706 262.518C335.771 250.228 323.729 228.167 323.653 229.455C316.344 231.001 310.294 231.077 304.016 235.094C302.935 235.678 302.021 236.529 301.363 237.566C298.853 242.336 305.714 249.302 308.042 252.928C308.935 254.087 309.531 255.446 309.779 256.888C309.829 257.907 309.639 258.923 309.225 259.855C306.964 265.409 298.911 268.644 293.958 271.497C287.484 275.411 280.224 277.848 272.699 278.634C266.859 279.13 260.896 278.376 255.19 279.684C251.69 280.517 248.41 282.094 245.574 284.307C242.737 286.519 240.409 289.316 238.749 292.508C242.146 294.664 246.564 293.414 250.476 292.432C257.725 290.634 265.218 290.031 272.661 290.647C277.489 291.058 290.8 296.649 293.09 292.155Z" fill="#F1AF8C"/>
<path d="M228.472 304.244H110.152L78.9407 225.046C78.5176 223.99 78.3602 222.846 78.4823 221.714C78.6043 220.583 79.0021 219.499 79.6407 218.557C80.2793 217.615 81.1393 216.844 82.1452 216.312C83.151 215.78 84.2721 215.502 85.4101 215.504H178.291C182.789 215.502 187.184 216.854 190.903 219.385C194.622 221.916 197.492 225.508 199.14 229.693L228.472 304.244Z" fill="#68E1FD"/>
<path d="M228.472 304.244H110.152L78.9407 225.046C78.5176 223.99 78.3602 222.846 78.4823 221.714C78.6043 220.583 79.0021 219.499 79.6407 218.557C80.2793 217.615 81.1393 216.844 82.1452 216.312C83.151 215.78 84.2721 215.502 85.4101 215.504H178.291C182.789 215.502 187.184 216.854 190.903 219.385C194.622 221.916 197.492 225.508 199.14 229.693L228.472 304.244Z" fill="url(#paint5_linear_37_395)"/>
<path d="M222.461 304.33H110.038L80.3815 229.13C79.9867 228.128 79.8427 227.045 79.962 225.975C80.0813 224.904 80.4602 223.879 81.0659 222.988C81.6716 222.098 82.4856 221.368 83.4373 220.864C84.389 220.36 85.4494 220.095 86.5265 220.094H174.751C179.024 220.097 183.197 221.385 186.729 223.789C190.262 226.193 192.99 229.603 194.56 233.577L222.461 304.33Z" fill="url(#paint6_linear_37_395)"/>
<path d="M237.136 42.9768C239.999 41.2975 242.861 39.5895 246.096 38.9597C249.331 38.3299 253.73 38.7116 255.915 41.1543C253.081 41.3536 250.321 42.1413 247.809 43.4671C245.297 44.793 243.088 46.6278 241.325 48.8547C241.161 49.144 240.901 49.3669 240.59 49.4844C240.324 49.5124 240.056 49.4627 239.818 49.3413C238.501 48.8451 228.634 51.097 228.062 49.9043C228.091 49.9043 235.924 43.7116 237.136 42.9768Z" fill="#68E1FD"/>
<path d="M237.136 42.9768C239.999 41.2975 242.861 39.5895 246.096 38.9597C249.331 38.3299 253.73 38.7116 255.915 41.1543C253.081 41.3536 250.321 42.1413 247.809 43.4671C245.297 44.793 243.088 46.6278 241.325 48.8547C241.161 49.144 240.901 49.3669 240.59 49.4844C240.324 49.5124 240.056 49.4627 239.818 49.3413C238.501 48.8451 228.634 51.097 228.062 49.9043C228.091 49.9043 235.924 43.7116 237.136 42.9768Z" fill="url(#paint7_linear_37_395)"/>
<path d="M215.81 115.744C222.208 115.744 227.394 109.353 227.394 101.469C227.394 93.5853 222.208 87.1943 215.81 87.1943C209.412 87.1943 204.226 93.5853 204.226 101.469C204.226 109.353 209.412 115.744 215.81 115.744Z" fill="#68E1FD"/>
<path d="M218.186 116.278C224.104 116.278 228.902 110.365 228.902 103.072C228.902 95.7783 224.104 89.8657 218.186 89.8657C212.268 89.8657 207.47 95.7783 207.47 103.072C207.47 110.365 212.268 116.278 218.186 116.278Z" fill="#68E1FD"/>
<path d="M218.186 116.278C224.104 116.278 228.902 110.365 228.902 103.072C228.902 95.7783 224.104 89.8657 218.186 89.8657C212.268 89.8657 207.47 95.7783 207.47 103.072C207.47 110.365 212.268 116.278 218.186 116.278Z" fill="url(#paint8_linear_37_395)"/>
<path d="M214.417 76.4691L217.098 125.524C217.098 125.524 218.291 144.035 236.64 144.217C258.682 144.436 265.39 131.621 268.739 121.87C272.088 112.118 275.113 83.4729 268.739 75.5531C262.365 67.6333 226.497 48.1391 214.417 76.4691Z" fill="#F1AF8C"/>
<path d="M228.358 47.013C219.713 46.8603 209.837 50.8965 205.896 59.0549C204.95 60.932 204.436 62.9967 204.389 65.0981C204.343 67.1995 204.767 69.2848 205.629 71.2017C205.945 71.7655 206.195 72.3644 206.373 72.9861C206.459 73.6736 206.459 74.3691 206.373 75.0567C206.298 76.7142 206.632 78.3647 207.346 79.8624C208.06 81.3602 209.132 82.6591 210.467 83.6444C211.984 84.7417 213.825 85.4288 215.037 86.8505L214.57 77.7189C214.462 77.2255 214.554 76.7094 214.825 76.2837C215.097 75.858 215.527 75.5574 216.02 75.4479L221.831 72.738C221.831 72.738 223.625 74.0452 223.844 74.1502C224.809 74.5609 225.85 74.7594 226.898 74.7323C229.175 74.786 231.453 74.6583 233.711 74.3506C238.587 73.654 243.253 71.8697 247.804 70.0949C247.657 71.5056 247.046 72.8278 246.067 73.8544L260.886 76.717C263.056 79.7013 264.806 82.9698 266.086 86.4307C267.111 89.1357 267.784 91.9608 268.09 94.8371C268.487 98.7475 268.121 102.698 267.012 106.469C268.02 105.7 268.902 104.78 269.626 103.74C270.966 104.67 272.449 105.376 274.016 105.829C274.342 105.951 274.695 105.98 275.037 105.915C275.762 105.715 275.915 104.856 275.991 104.169C276.583 98.0145 281.163 92.8142 283.262 86.9364C285.81 79.8181 284.521 71.8124 280.628 65.219C279.475 63.1297 277.907 61.2984 276.02 59.8373C269.197 54.8373 259.502 57.1274 251.716 54.5129C248.014 53.2725 245.037 50.9156 241.497 49.3603C237.566 47.6904 232.642 47.0893 228.358 47.013Z" fill="#3F3D56"/>
<path d="M228.358 47.013C219.713 46.8603 209.837 50.8965 205.896 59.0549C204.95 60.932 204.436 62.9967 204.389 65.0981C204.343 67.1995 204.767 69.2848 205.629 71.2017C205.945 71.7655 206.195 72.3644 206.373 72.9861C206.459 73.6736 206.459 74.3691 206.373 75.0567C206.298 76.7142 206.632 78.3647 207.346 79.8624C208.06 81.3602 209.132 82.6591 210.467 83.6444C211.984 84.7417 213.825 85.4288 215.037 86.8505L214.57 77.7189C214.462 77.2255 214.554 76.7094 214.825 76.2837C215.097 75.858 215.527 75.5574 216.02 75.4479L221.831 72.738C221.831 72.738 223.625 74.0452 223.844 74.1502C224.809 74.5609 225.85 74.7594 226.898 74.7323C229.175 74.786 231.453 74.6583 233.711 74.3506C238.587 73.654 243.253 71.8697 247.804 70.0949C247.657 71.5056 247.046 72.8278 246.067 73.8544L260.886 76.717C263.056 79.7013 264.806 82.9698 266.086 86.4307C267.111 89.1357 267.784 91.9608 268.09 94.8371C268.487 98.7475 268.121 102.698 267.012 106.469C268.02 105.7 268.902 104.78 269.626 103.74C270.966 104.67 272.449 105.376 274.016 105.829C274.342 105.951 274.695 105.98 275.037 105.915C275.762 105.715 275.915 104.856 275.991 104.169C276.583 98.0145 281.163 92.8142 283.262 86.9364C285.81 79.8181 284.521 71.8124 280.628 65.219C279.475 63.1297 277.907 61.2984 276.02 59.8373C269.197 54.8373 259.502 57.1274 251.716 54.5129C248.014 53.2725 245.037 50.9156 241.497 49.3603C237.566 47.6904 232.642 47.0893 228.358 47.013Z" fill="url(#paint9_linear_37_395)"/>
<path d="M279.617 117.356C285.946 117.356 291.077 111.029 291.077 103.224C291.077 95.4197 285.946 89.0928 279.617 89.0928C273.288 89.0928 268.157 95.4197 268.157 103.224C268.157 111.029 273.288 117.356 279.617 117.356Z" fill="#68E1FD"/>
<path d="M279.617 117.356C285.946 117.356 291.077 111.029 291.077 103.224C291.077 95.4197 285.946 89.0928 279.617 89.0928C273.288 89.0928 268.157 95.4197 268.157 103.224C268.157 111.029 273.288 117.356 279.617 117.356Z" fill="url(#paint10_linear_37_395)"/>
<path d="M284.006 117.356C290.335 117.356 295.466 111.029 295.466 103.224C295.466 95.4197 290.335 89.0928 284.006 89.0928C277.677 89.0928 272.546 95.4197 272.546 103.224C272.546 111.029 277.677 117.356 284.006 117.356Z" fill="#68E1FD"/>
<path d="M284.092 90.2188L278.367 90.8295L277.002 90.9727L271.277 62.7954C268.3 51.6504 261.02 43.0817 251.888 39.7611C250.474 39.268 248.97 39.0889 247.48 39.2363L243.577 39.5894L245.485 39.0837L249.302 38.0722C250.495 37.7432 251.729 37.5921 252.966 37.6238C263.157 37.9959 272.823 46.2115 276.325 57.9862L284.092 90.2188Z" fill="#68E1FD"/>
<path d="M284.092 90.2188L278.367 90.8295L277.002 90.9727L271.277 62.7954C268.3 51.6504 261.02 43.0817 251.888 39.7611C250.474 39.268 248.97 39.0889 247.48 39.2363L243.577 39.5894L245.485 39.0837L249.302 38.0722C250.495 37.7432 251.729 37.5921 252.966 37.6238C263.157 37.9959 272.823 46.2115 276.325 57.9862L284.092 90.2188Z" fill="url(#paint11_linear_37_395)"/>
<path d="M284.092 90.2188L278.367 90.8295L272.642 62.5854C269.617 51.326 262.27 42.6905 253.052 39.3413C251.626 38.8301 250.103 38.6475 248.596 38.807L245.485 39.0837L249.302 38.0722C250.495 37.7432 251.729 37.5921 252.966 37.6238C263.157 37.9959 272.823 46.2115 276.325 57.9862L284.092 90.2188Z" fill="#68E1FD"/>
<path opacity="0.45" d="M163.95 4.92383H24.0364C15.7944 4.92383 9.11285 11.6053 9.11285 19.8474V184.14C9.11285 192.382 15.7944 199.064 24.0364 199.064H163.95C172.192 199.064 178.873 192.382 178.873 184.14V19.8474C178.873 11.6053 172.192 4.92383 163.95 4.92383Z" fill="#68E1FD"/>
<path d="M60.3053 180.495C74.3337 180.495 85.7059 169.123 85.7059 155.094C85.7059 141.066 74.3337 129.694 60.3053 129.694C46.2769 129.694 34.9047 141.066 34.9047 155.094C34.9047 169.123 46.2769 180.495 60.3053 180.495Z" fill="url(#paint12_linear_37_395)"/>
<path d="M132.738 23.3301H24.2368V29.4369H132.738V23.3301Z" fill="#68E1FD"/>
<path opacity="0.51" d="M136.011 103.635H27.5097V109.742H136.011V103.635Z" fill="#68E1FD"/>
<path d="M104.637 93.1865H27.5097V99.2933H104.637V93.1865Z" fill="#68E1FD"/>
<path d="M166.822 93.1865H115.19V99.2933H166.822V93.1865Z" fill="#68E1FD"/>
<path d="M166.65 54.5322H87.2612V59.9616H166.65V54.5322Z" fill="#68E1FD"/>
<path opacity="0.51" d="M155.562 64.1597H70.6296V69.589H155.562V64.1597Z" fill="#68E1FD"/>
<path d="M81.2021 54.5322H28.9887V59.9616H81.2021V54.5322Z" fill="#68E1FD"/>
<path d="M166.65 73.5112H51.8893V78.9406H166.65V73.5112Z" fill="#68E1FD"/>
<path opacity="0.51" d="M45.8397 73.5112H28.9887V78.9406H45.8397V73.5112Z" fill="#68E1FD"/>
<path opacity="0.51" d="M166.64 83.1484H90.8967V88.5778H166.64V83.1484Z" fill="#68E1FD"/>
<path d="M81.2021 83.1484H28.9887V88.5778H81.2021V83.1484Z" fill="#68E1FD"/>
<path d="M62.5667 63.9307H28.9887V69.36H62.5667V63.9307Z" fill="#68E1FD"/>
<path d="M65.935 138.396C64.4465 140.219 64.1984 142.766 64.4751 145.076C64.5612 145.494 64.5612 145.926 64.4751 146.345C64.3485 146.697 64.154 147.021 63.9026 147.299C59.8593 152.325 55.3304 156.94 50.3817 161.077C50.2424 161.212 50.0767 161.316 49.895 161.383C49.5711 161.45 49.2339 161.403 48.9409 161.249C47.5096 160.686 45.9733 160.075 44.4752 160.438C43.7964 160.641 43.1752 161.002 42.6627 161.491C42.1502 161.98 41.7609 162.584 41.5268 163.253C41.0639 164.601 40.9879 166.052 41.3073 167.442C42.9358 166.087 44.6311 164.815 46.3932 163.625L48.9027 166.116C49.033 166.215 49.1398 166.341 49.2157 166.487C49.2915 166.632 49.3345 166.792 49.3416 166.955C49.2927 167.151 49.1903 167.33 49.0458 167.47L45.3436 171.841C46.5613 172.328 47.8894 172.472 49.1833 172.257C50.4772 172.041 51.6871 171.475 52.6813 170.619C54.5897 168.806 54.8759 165.419 53.0057 163.596L67.2136 147.671C68.1714 148.379 69.3353 148.754 70.5265 148.736C71.7177 148.719 72.8702 148.311 73.8071 147.576C74.7169 146.807 75.4203 145.822 75.8535 144.713C76.2868 143.603 76.4361 142.403 76.288 141.221C74.5195 142.281 72.8801 143.542 71.4025 144.98L68.54 141.411C69.5514 140.457 73.4731 137.824 70.9254 136.793C69.2461 136.116 67.0228 137.07 65.935 138.396Z" fill="#68E1FD"/>
<path d="M148.177 164.14L149.541 159.799C149.541 159.799 144.15 155.543 143.988 155.81L143.768 152.671L148.702 147.423L146.431 143.482C146.431 143.482 139.751 144.57 139.751 144.875C138.462 143.663 137.074 142.562 135.601 141.583L135.391 134.427L131.001 133.234C131.001 133.234 126.984 138.806 127.251 138.959C127.251 138.959 124.16 139.608 122.681 140.075L117.681 135.82L113.864 138.282C113.864 138.282 115 143.596 115.448 144.713C114.379 145.886 113.044 147.213 113.044 147.213L105.925 148.358L105.315 152.862C105.315 152.862 110.324 155.572 111.297 155.848C111.318 157.307 111.543 158.755 111.965 160.152L108.082 166.125L111.011 169.598C111.011 169.598 114.895 168.234 116.584 167.489C118.158 168.921 120.4 170.619 120.4 170.619L122.194 177.604L126.736 177.795C126.736 177.795 128.921 172.709 129.15 171.592C130.611 171.43 132.084 171.411 133.549 171.535L139.933 174.884L143.129 171.64C142.207 169.578 141.178 167.565 140.047 165.61C140.452 165.117 140.819 164.594 141.144 164.045L148.177 164.14ZM126.994 164.302C125.208 164.304 123.462 163.776 121.976 162.786C120.491 161.795 119.332 160.386 118.647 158.737C117.963 157.087 117.783 155.272 118.13 153.521C118.477 151.769 119.336 150.16 120.598 148.896C121.86 147.633 123.468 146.772 125.22 146.423C126.971 146.074 128.786 146.252 130.436 146.935C132.086 147.618 133.497 148.775 134.489 150.26C135.481 151.744 136.011 153.49 136.011 155.276C136.008 157.667 135.058 159.96 133.368 161.652C131.677 163.344 129.385 164.297 126.994 164.302Z" fill="url(#paint13_linear_37_395)"/>
<path d="M208.253 73.9974C209.942 70.6577 213.606 68.673 217.299 68.0719C220.991 67.4707 224.77 68.0241 228.463 68.5871C224.884 71.4497 214.894 75.7149 214.703 76.4783C214.569 77.8292 214.553 79.1894 214.655 80.5431C214.789 82.5088 214.856 84.5698 214.846 86.5355C213.925 85.6327 212.892 84.8504 211.774 84.2072C210.812 83.8365 209.936 83.275 209.197 82.5565C208.232 81.3724 207.63 79.9347 207.462 78.4163C207.294 76.8979 207.569 75.3634 208.253 73.9974Z" fill="url(#paint14_linear_37_395)"/>
<path d="M256.85 137.48C252.539 137.393 248.264 136.68 244.159 135.362C243.673 135.216 243.265 134.884 243.024 134.437C242.784 133.991 242.73 133.467 242.876 132.981C243.021 132.495 243.354 132.087 243.8 131.846C244.247 131.606 244.771 131.552 245.256 131.698C255.085 134.656 262.48 134.265 267.203 130.534C273.634 125.486 273.214 115.868 273.214 115.772C273.189 115.266 273.366 114.771 273.706 114.395C274.046 114.019 274.521 113.794 275.027 113.768C275.533 113.743 276.029 113.92 276.405 114.26C276.78 114.6 277.006 115.075 277.031 115.581C277.031 116.049 277.537 127.289 269.56 133.549C266.239 136.163 262.002 137.474 256.85 137.48Z" fill="#68E1FD"/>
<path d="M256.85 137.48C252.539 137.393 248.264 136.68 244.159 135.362C243.673 135.216 243.265 134.884 243.024 134.437C242.784 133.991 242.73 133.467 242.876 132.981C243.021 132.495 243.354 132.087 243.8 131.846C244.247 131.606 244.771 131.552 245.256 131.698C255.085 134.656 262.48 134.265 267.203 130.534C273.634 125.486 273.214 115.868 273.214 115.772C273.189 115.266 273.366 114.771 273.706 114.395C274.046 114.019 274.521 113.794 275.027 113.768C275.533 113.743 276.029 113.92 276.405 114.26C276.78 114.6 277.006 115.075 277.031 115.581C277.031 116.049 277.537 127.289 269.56 133.549C266.239 136.163 262.002 137.474 256.85 137.48Z" fill="url(#paint15_linear_37_395)"/>
<path d="M245.151 128.472C246.246 129.023 247.104 129.952 247.566 131.087C247.985 132.709 246.726 134.264 245.428 135.324C244.313 136.318 242.941 136.979 241.468 137.232C239.312 137.49 237.251 136.325 235.457 135.095C234.456 134.484 233.602 133.66 232.957 132.68C231.297 129.761 233.444 126.001 236.258 124.761C239.379 123.415 242.699 126.86 245.151 128.472Z" fill="#68E1FD"/>
<path d="M245.151 128.472C246.246 129.023 247.104 129.952 247.566 131.087C247.985 132.709 246.726 134.264 245.428 135.324C244.313 136.318 242.941 136.979 241.468 137.232C239.312 137.49 237.251 136.325 235.457 135.095C234.456 134.484 233.602 133.66 232.957 132.68C231.297 129.761 233.444 126.001 236.258 124.761C239.379 123.415 242.699 126.86 245.151 128.472Z" fill="url(#paint16_linear_37_395)"/>
<defs>
<linearGradient id="paint0_linear_37_395" x1="263.606" y1="195.944" x2="198.243" y2="198.816" gradientUnits="userSpaceOnUse">
<stop offset="0.01"/>
<stop offset="1" stop-opacity="0"/>
</linearGradient>
<linearGradient id="paint1_linear_37_395" x1="36862.2" y1="54183.1" x2="12369.6" y2="38759.3" gradientUnits="userSpaceOnUse">
<stop offset="0.01"/>
<stop offset="1" stop-opacity="0"/>
</linearGradient>
<linearGradient id="paint2_linear_37_395" x1="34902" y1="5055.03" x2="34904.5" y2="5503.28" gradientUnits="userSpaceOnUse">
<stop offset="0.01"/>
<stop offset="1" stop-opacity="0"/>
</linearGradient>
<linearGradient id="paint3_linear_37_395" x1="5680.53" y1="2804.45" x2="5597.39" y2="3597.07" gradientUnits="userSpaceOnUse">
<stop offset="0.01"/>
<stop offset="1" stop-opacity="0"/>
</linearGradient>
<linearGradient id="paint4_linear_37_395" x1="247.394" y1="159.589" x2="267.594" y2="178.711" gradientUnits="userSpaceOnUse">
<stop offset="0.02" stop-color="white" stop-opacity="0"/>
<stop offset="0.58" stop-color="white" stop-opacity="0.39"/>
<stop offset="1" stop-color="white"/>
</linearGradient>
<linearGradient id="paint5_linear_37_395" x1="36919.8" y1="13083.7" x2="30587" y2="32000" gradientUnits="userSpaceOnUse">
<stop offset="0.01"/>
<stop offset="1" stop-opacity="0"/>
</linearGradient>
<linearGradient id="paint6_linear_37_395" x1="178.243" y1="341.363" x2="118.988" y2="176.516" gradientUnits="userSpaceOnUse">
<stop offset="0.01"/>
<stop offset="0.09" stop-opacity="0.82"/>
<stop offset="1" stop-opacity="0"/>
</linearGradient>
<linearGradient id="paint7_linear_37_395" x1="7107.44" y1="794.648" x2="7117.46" y2="1046.83" gradientUnits="userSpaceOnUse">
<stop offset="0.01"/>
<stop offset="1" stop-opacity="0"/>
</linearGradient>
<linearGradient id="paint8_linear_37_395" x1="5020.91" y1="2375.3" x2="4691.22" y2="3423.35" gradientUnits="userSpaceOnUse">
<stop offset="0.01"/>
<stop offset="1" stop-opacity="0"/>
</linearGradient>
<linearGradient id="paint9_linear_37_395" x1="21973.1" y1="5685" x2="20944.4" y2="6795.44" gradientUnits="userSpaceOnUse">
<stop offset="0.01"/>
<stop offset="1" stop-opacity="0"/>
</linearGradient>
<linearGradient id="paint10_linear_37_395" x1="6813.79" y1="3134.73" x2="6480.51" y2="3188.79" gradientUnits="userSpaceOnUse">
<stop offset="0.01"/>
<stop offset="1" stop-opacity="0"/>
</linearGradient>
<linearGradient id="paint11_linear_37_395" x1="12057.8" y1="4762.03" x2="10647.7" y2="5227.82" gradientUnits="userSpaceOnUse">
<stop offset="0.01"/>
<stop offset="1" stop-opacity="0"/>
</linearGradient>
<linearGradient id="paint12_linear_37_395" x1="64.8568" y1="64.1122" x2="59.1602" y2="177.995" gradientUnits="userSpaceOnUse">
<stop offset="0.02" stop-color="white" stop-opacity="0"/>
<stop offset="0.58" stop-color="white" stop-opacity="0.39"/>
<stop offset="0.68" stop-color="white" stop-opacity="0.68"/>
<stop offset="1" stop-color="white"/>
</linearGradient>
<linearGradient id="paint13_linear_37_395" x1="6868.48" y1="6043.78" x2="5806.36" y2="8566.47" gradientUnits="userSpaceOnUse">
<stop offset="0.02" stop-color="white" stop-opacity="0"/>
<stop offset="0.58" stop-color="white" stop-opacity="0.39"/>
<stop offset="0.68" stop-color="white" stop-opacity="0.68"/>
<stop offset="1" stop-color="white"/>
</linearGradient>
<linearGradient id="paint14_linear_37_395" x1="4873.01" y1="2377.97" x2="4907.52" y2="1824.12" gradientUnits="userSpaceOnUse">
<stop offset="0.01"/>
<stop offset="1" stop-opacity="0"/>
</linearGradient>
<linearGradient id="paint15_linear_37_395" x1="9215.26" y1="3671.83" x2="9403.13" y2="4229.39" gradientUnits="userSpaceOnUse">
<stop offset="0.02" stop-color="white" stop-opacity="0"/>
<stop offset="0.58" stop-color="white" stop-opacity="0.39"/>
<stop offset="0.68" stop-color="white" stop-opacity="0.68"/>
<stop offset="1" stop-color="white"/>
</linearGradient>
<linearGradient id="paint16_linear_37_395" x1="4066.39" y1="2128.46" x2="3924.59" y2="2469.09" gradientUnits="userSpaceOnUse">
<stop offset="0.01"/>
<stop offset="1" stop-opacity="0"/>
</linearGradient>
</defs>
</svg>
