<svg width="437" height="329" viewBox="0 0 437 329" fill="none" xmlns="http://www.w3.org/2000/svg">
<path d="M222.619 198.046V226.278" stroke="#C9C9C9" stroke-width="2.03" stroke-miterlimit="10"/>
<path d="M222.619 237.496C225.72 237.496 228.234 234.985 228.234 231.887C228.234 228.789 225.72 226.278 222.619 226.278C219.517 226.278 217.003 228.789 217.003 231.887C217.003 234.985 219.517 237.496 222.619 237.496Z" stroke="#C9C9C9" stroke-width="2.03" stroke-miterlimit="10"/>
<path d="M329.869 49.5542H115.357V214.23H329.869V49.5542Z" fill="#E6E6E6"/>
<path d="M329.869 49.5542H115.357V73.6063H329.869V49.5542Z" fill="#C9C9C9"/>
<path opacity="0.45" d="M219.571 296.557C319.531 296.557 400.565 291.315 400.565 284.848C400.565 278.381 319.531 273.138 219.571 273.138C119.61 273.138 38.5762 278.381 38.5762 284.848C38.5762 291.315 119.61 296.557 219.571 296.557Z" fill="#E6E6E6"/>
<path d="M128.915 269.057C128.915 269.057 128.915 273.16 132.192 274.579C135.47 275.997 135.153 279.522 131.887 279.337C128.62 279.151 122.273 272.702 122.273 272.702L124.632 266.743L128.915 269.057Z" fill="#68E1FD"/>
<path d="M116.264 225.896C116.264 225.896 135.426 226.747 133.34 239.723C131.253 252.698 122.797 266.743 122.797 266.743L130.16 269.82C130.16 269.82 144.822 253.058 146.209 232.378C147.597 211.698 118.329 216.303 116.264 225.896Z" fill="#24285B"/>
<path opacity="0.08" d="M116.264 225.896C116.264 225.896 135.426 226.747 133.34 239.723C131.253 252.698 122.797 266.743 122.797 266.743L130.16 269.82C130.16 269.82 144.822 253.058 146.209 232.378C147.597 211.698 118.329 216.303 116.264 225.896Z" fill="black"/>
<path d="M144.308 269.94C144.308 269.94 144.308 274.054 147.586 275.473C150.863 276.892 150.546 280.417 147.28 280.231C144.013 280.046 137.655 273.629 137.655 273.629L140.015 267.67L144.308 269.94Z" fill="#68E1FD"/>
<path d="M101.428 268.915H105.754V231.68H101.428V268.915Z" fill="#FFD200"/>
<path opacity="0.46" d="M101.428 268.915H105.754V231.68H101.428V268.915Z" fill="white"/>
<path d="M89.2682 141.43C89.2682 141.43 85.3024 120.128 66.1618 129.764C52.0576 136.868 65.834 193.506 74.0606 222.786C75.4594 227.807 78.4661 232.233 82.6211 235.386C86.7761 238.539 91.8505 240.246 97.0686 240.246H124.064C132.313 240.246 133.788 228.493 125.79 226.463L125.321 226.343C120.667 225.252 115.204 224.423 110.233 223.768C106.033 223.223 102.149 221.248 99.2359 218.177C96.3227 215.106 94.558 211.126 94.239 206.907L89.2682 141.43Z" fill="#FFD200"/>
<path d="M105.754 268.915L121.224 281.104H86.7773L101.428 268.915H105.754Z" fill="#FFD200"/>
<path opacity="0.08" d="M105.754 268.915L121.224 281.104H86.7773L101.428 268.915H105.754Z" fill="black"/>
<path d="M100.357 112.303C101.829 114.623 102.983 117.13 103.787 119.757C103.862 120.075 103.873 120.405 103.82 120.727C103.767 121.05 103.651 121.359 103.479 121.636C103.306 121.914 103.081 122.155 102.815 122.345C102.549 122.536 102.249 122.672 101.93 122.747C100.92 123.048 99.8436 123.051 98.8316 122.755C97.8197 122.458 96.9152 121.876 96.2274 121.077L92.9499 117.956C92.352 117.26 91.9856 116.396 91.9014 115.483C91.8172 114.57 92.0195 113.653 92.4801 112.86C93.955 109.761 98.8603 109.684 100.357 112.303Z" fill="#F4A28C"/>
<path d="M94.6651 116.909L94.0205 133.06L102.957 132.776L99.8326 121.143L94.6651 116.909Z" fill="#F4A28C"/>
<path d="M146.712 205.827C146.712 205.827 155.222 206.635 153.474 211.556C151.726 216.478 145.565 210.662 145.565 210.662L146.712 205.827Z" fill="#F4A28C"/>
<path opacity="0.08" d="M146.712 205.827C146.712 205.827 155.222 206.635 153.474 211.556C151.726 216.478 145.565 210.662 145.565 210.662L146.712 205.827Z" fill="black"/>
<path d="M99.4175 113.046C98.0933 113.806 96.6856 114.41 95.2223 114.846C95.9081 115.247 96.463 115.837 96.8197 116.546C97.1765 117.255 97.3199 118.052 97.2325 118.84C97.1713 119.614 96.8423 120.342 96.302 120.9C95.7617 121.457 95.0439 121.81 94.2718 121.896L91.3985 116.254C90.9611 115.459 90.7465 114.561 90.7773 113.655C90.808 112.748 91.083 111.867 91.5733 111.103C91.9993 110.442 92.4663 109.808 92.9717 109.204C94.2827 107.753 97.2325 107.557 98.0956 105.701C98.1902 105.52 98.3301 105.366 98.5016 105.255C98.6731 105.143 98.8704 105.078 99.0747 105.064C99.2789 105.051 99.4831 105.091 99.6675 105.18C99.852 105.268 100.01 105.403 100.128 105.57C101.22 107.153 102.378 109.936 100.554 112.118C100.229 112.488 99.8451 112.802 99.4175 113.046Z" fill="#24285B"/>
<path d="M97.6695 118.469C97.6695 118.469 96.7518 116.8 95.5501 117.596C94.3483 118.393 95.6593 120.794 97.5056 120.128L97.6695 118.469Z" fill="#F4A28C"/>
<path d="M101.897 114.999L103.995 116.09C104.113 116.151 104.215 116.241 104.289 116.351C104.364 116.461 104.41 116.588 104.423 116.72C104.436 116.853 104.416 116.986 104.364 117.109C104.312 117.231 104.23 117.339 104.126 117.422L102.619 118.6L101.897 114.999Z" fill="#F4A28C"/>
<path d="M88.0227 144.169C88.6387 141.961 89.9005 139.987 91.6464 138.5C93.3924 137.012 95.543 136.079 97.823 135.82C100.103 135.561 102.408 135.988 104.444 137.046C106.48 138.103 108.153 139.744 109.25 141.757C109.545 142.292 109.829 142.849 110.102 143.449C114.265 152.179 113.664 168.549 112.593 179.756C112.27 183.188 113.103 186.63 114.962 189.534C116.821 192.439 119.598 194.64 122.852 195.787L147.051 204.31L145.903 211.48L112.451 204.932C108.311 204.113 104.454 202.238 101.254 199.49C98.0531 196.743 95.618 193.215 94.1844 189.25C89.585 176.504 84.2427 157.308 88.0227 144.169Z" fill="#68E1FD"/>
<path opacity="0.08" d="M88.0227 144.169C88.6387 141.961 89.9005 139.987 91.6464 138.5C93.3924 137.012 95.543 136.079 97.823 135.82C100.103 135.561 102.408 135.988 104.444 137.046C106.48 138.103 108.153 139.744 109.25 141.757C109.545 142.292 109.829 142.849 110.102 143.449C114.265 152.179 113.664 168.549 112.593 179.756C112.27 183.188 113.103 186.63 114.962 189.534C116.821 192.439 119.598 194.64 122.852 195.787L147.051 204.31L145.903 211.48L112.451 204.932C108.311 204.113 104.454 202.238 101.254 199.49C98.0531 196.743 95.618 193.215 94.1844 189.25C89.585 176.504 84.2427 157.308 88.0227 144.169Z" fill="black"/>
<path opacity="0.31" d="M100.63 123.653C99.4942 123.512 98.4257 123.037 97.5602 122.289C97.5602 122.289 98.03 125.203 101.602 127.746L100.63 123.653Z" fill="#CE8172"/>
<path d="M94.0206 133.06L102.957 132.776C102.957 132.776 122.546 136.989 127.342 161.783C132.138 186.577 118.438 208.861 118.438 208.861L90.1968 209.101C90.1968 209.101 52.8552 137.218 94.0206 133.06Z" fill="#68E1FD"/>
<path opacity="0.08" d="M89.4211 143.656C89.4211 143.656 76.0161 150.313 82.7569 180.324C87.695 202.346 96.3803 209.101 96.3803 209.101L111.675 208.621L104.028 170.939L89.4211 143.656Z" fill="black"/>
<path d="M160.445 218.497L177.52 183.303L172.877 181.35L157.254 212.015L129.636 209.145L128.991 212.473L160.445 218.497Z" fill="#FFD200"/>
<path d="M90.1968 209.101C90.1968 209.101 90.5792 225.252 101.526 226.638C112.473 228.024 137.513 219.621 140.638 233.24C143.762 246.86 137.535 268.544 137.535 268.544L145.182 270.672C145.182 270.672 162.324 237.933 152.229 222.382C142.134 206.831 118.46 208.861 118.46 208.861L90.1968 209.101Z" fill="#24285B"/>
<path d="M87.2252 147.891C87.8405 145.68 89.103 143.704 90.8506 142.215C92.5983 140.726 94.7514 139.793 97.0337 139.535C99.3159 139.277 101.623 139.706 103.66 140.767C105.696 141.828 107.369 143.473 108.463 145.49C108.747 146.025 109.032 146.581 109.316 147.181C113.467 155.966 112.866 172.281 111.806 183.489C111.48 186.92 112.312 190.361 114.172 193.265C116.031 196.168 118.81 198.366 122.065 199.509L146.253 208.043L145.106 215.212L111.664 208.665C107.525 207.841 103.668 205.964 100.468 203.214C97.2679 200.465 94.8326 196.937 93.3978 192.972C88.7875 180.236 83.4451 161.041 87.2252 147.891Z" fill="#68E1FD"/>
<path opacity="0.46" d="M87.2252 147.891C87.8405 145.68 89.103 143.704 90.8506 142.215C92.5983 140.726 94.7514 139.793 97.0337 139.535C99.3159 139.277 101.623 139.706 103.66 140.767C105.696 141.828 107.369 143.473 108.463 145.49C108.747 146.025 109.032 146.581 109.316 147.181C113.467 155.966 112.866 172.281 111.806 183.489C111.48 186.92 112.312 190.361 114.172 193.265C116.031 196.168 118.81 198.366 122.065 199.509L146.253 208.043L145.106 215.212L111.664 208.665C107.525 207.841 103.668 205.964 100.468 203.214C97.2679 200.465 94.8326 196.937 93.3978 192.972C88.7875 180.236 83.4451 161.041 87.2252 147.891Z" fill="white"/>
<path d="M146.013 209.538C146.013 209.538 154.753 211.185 153.016 216.085C151.278 220.985 145.106 215.19 145.106 215.19L146.013 209.538Z" fill="#F4A28C"/>
<path d="M298.755 269.94C298.755 269.94 298.755 274.055 295.478 275.473C292.2 276.892 292.517 280.417 295.783 280.231C299.05 280.046 305.397 273.596 305.397 273.596L303.038 267.638L298.755 269.94Z" fill="#68E1FD"/>
<path d="M273.923 270.464C273.923 270.464 270.94 273.291 267.684 271.992C264.429 270.694 262.069 273.324 264.483 275.528C266.898 277.732 275.955 277.776 275.955 277.776L278.566 271.927L273.923 270.464Z" fill="#68E1FD"/>
<path d="M341.636 231.68H337.309V268.915H341.636V231.68Z" fill="#FFD200"/>
<path opacity="0.46" d="M341.636 231.68H337.309V268.915H341.636V231.68Z" fill="white"/>
<path d="M353.795 141.43C353.795 141.43 357.761 120.128 376.902 129.764C391.006 136.868 377.229 193.506 369.003 222.786C367.604 227.807 364.597 232.233 360.442 235.386C356.287 238.539 351.213 240.246 345.995 240.246H319.01C310.762 240.246 309.287 228.493 317.284 226.463L317.754 226.343C322.408 225.252 327.87 224.423 332.841 223.768C337.04 223.221 340.923 221.246 343.836 218.175C346.749 215.104 348.514 211.125 348.835 206.907L353.795 141.43Z" fill="#FFD200"/>
<path d="M337.309 268.915L321.829 281.104H356.286L341.636 268.915H337.309Z" fill="#FFD200"/>
<path opacity="0.08" d="M337.309 268.915L321.829 281.104H356.286L341.636 268.915H337.309Z" fill="black"/>
<path d="M242.841 157.767C236.413 157.771 230.129 155.871 224.783 152.307C219.437 148.743 215.269 143.675 212.807 137.745C210.344 131.814 209.698 125.287 210.951 118.99C212.203 112.692 215.296 106.907 219.841 102.367C224.385 97.826 230.175 94.7336 236.479 93.4808C242.783 92.228 249.317 92.871 255.255 95.3285C261.193 97.7859 266.268 101.947 269.838 107.287C273.408 112.626 275.312 118.902 275.31 125.323C275.298 133.922 271.874 142.166 265.788 148.248C259.702 154.329 251.45 157.752 242.841 157.767ZM242.841 101.609C238.145 101.607 233.554 102.996 229.649 105.6C225.743 108.205 222.699 111.907 220.9 116.24C219.102 120.573 218.63 125.342 219.545 129.942C220.46 134.543 222.72 138.77 226.039 142.087C229.359 145.405 233.589 147.664 238.194 148.58C242.8 149.496 247.574 149.027 251.912 147.233C256.251 145.438 259.959 142.399 262.568 138.499C265.177 134.599 266.57 130.013 266.57 125.323C266.567 119.036 264.066 113.008 259.617 108.562C255.168 104.115 249.134 101.615 242.841 101.609Z" fill="white"/>
<path d="M275.31 125.322H266.57C266.564 119.035 264.061 113.007 259.61 108.561C255.159 104.115 249.124 101.615 242.83 101.609V92.8784C251.441 92.89 259.695 96.3119 265.784 102.394C271.873 108.476 275.298 116.721 275.31 125.322Z" fill="#24285B"/>
<path d="M242.841 157.767V149.037C249.133 149.028 255.166 146.526 259.614 142.081C264.063 137.635 266.564 131.608 266.57 125.323H275.31C275.298 133.922 271.874 142.166 265.788 148.248C259.702 154.329 251.45 157.752 242.841 157.767Z" fill="#FFD200"/>
<path d="M243.562 114.813C244.141 114.813 244.316 115.021 244.316 115.599V116.821C245.328 116.93 246.292 117.311 247.104 117.924C247.916 118.537 248.546 119.359 248.926 120.303C249.232 120.903 249.101 121.23 248.424 121.536L247.2 122.081C246.621 122.365 246.348 122.234 246.02 121.634C245.762 121.012 245.31 120.488 244.732 120.14C244.154 119.793 243.48 119.639 242.808 119.702C240.678 119.702 239.694 120.335 239.694 121.754C239.744 122.192 239.944 122.599 240.261 122.906C240.578 123.212 240.992 123.399 241.432 123.435C242.026 123.567 242.628 123.662 243.234 123.718C244.371 123.768 245.493 123.985 246.566 124.362C247.107 124.538 247.611 124.812 248.052 125.17C248.495 125.636 248.84 126.186 249.067 126.788C249.294 127.39 249.399 128.03 249.374 128.673C249.374 131.401 247.55 133.256 244.316 133.736V135.035C244.316 135.613 244.141 135.821 243.562 135.821H242.174C241.606 135.821 241.399 135.613 241.399 135.035V133.758C240.276 133.679 239.202 133.272 238.31 132.587C237.419 131.902 236.749 130.969 236.384 129.906C236.33 129.794 236.303 129.67 236.304 129.545C236.305 129.421 236.334 129.298 236.39 129.186C236.446 129.074 236.527 128.977 236.626 128.901C236.725 128.826 236.841 128.774 236.963 128.749L238.187 128.302C238.82 128.073 239.094 128.225 239.367 128.847C239.621 129.522 240.09 130.094 240.702 130.475C241.315 130.855 242.036 131.024 242.753 130.954C245.07 130.954 246.217 130.233 246.217 128.771C246.236 128.428 246.138 128.088 245.94 127.807C245.742 127.525 245.454 127.319 245.124 127.221C244.328 126.934 243.491 126.772 242.644 126.741C241.492 126.676 240.357 126.433 239.279 126.021C238.75 125.831 238.259 125.55 237.826 125.192C237.376 124.747 237.023 124.214 236.789 123.626C236.556 123.038 236.448 122.408 236.472 121.776C236.472 119.07 238.176 117.269 241.388 116.843V115.621C241.388 115.043 241.595 114.835 242.164 114.835L243.562 114.813Z" fill="#A5A5A5"/>
<path opacity="0.08" d="M269.137 118.109C269.137 118.109 259.043 116.123 260.834 127.265C262.626 138.407 266.297 173.907 284.596 181.35C302.896 188.792 312.553 199.956 302.349 204.605C292.145 209.254 269.028 190.298 265.478 214.23L327.204 214.885L338.675 183.729L315.066 166.432L292.244 164.5L269.137 118.109Z" fill="black"/>
<path d="M342.706 112.303C341.233 114.613 340.075 117.108 339.265 119.724C339.189 120.042 339.177 120.373 339.229 120.695C339.281 121.018 339.397 121.328 339.57 121.606C339.742 121.884 339.968 122.125 340.235 122.315C340.501 122.505 340.803 122.641 341.122 122.714C342.133 123.016 343.209 123.018 344.221 122.722C345.233 122.426 346.137 121.843 346.825 121.045L350.103 117.924C350.7 117.228 351.067 116.363 351.151 115.45C351.235 114.537 351.033 113.62 350.572 112.827C349.054 109.761 344.203 109.684 342.706 112.303Z" fill="#F4A28C"/>
<path d="M348.398 116.909L349.043 133.06L340.106 132.776L343.231 121.143L348.398 116.909Z" fill="#F4A28C"/>
<path d="M337.965 228.734C337.965 228.734 301.912 235.281 280.062 273.127L272.185 270.094C272.185 270.094 287.251 225.351 319.163 220.985C351.075 216.62 337.965 228.734 337.965 228.734Z" fill="#24285B"/>
<path opacity="0.08" d="M337.965 228.734C337.965 228.734 301.912 235.281 280.062 273.127L272.185 270.094C272.185 270.094 287.251 225.351 319.163 220.985C351.075 216.62 337.965 228.734 337.965 228.734Z" fill="black"/>
<path d="M341.166 114.999L339.068 116.09C338.949 116.15 338.847 116.239 338.771 116.349C338.695 116.458 338.648 116.585 338.634 116.717C338.62 116.85 338.639 116.984 338.69 117.107C338.741 117.23 338.823 117.338 338.926 117.422L340.434 118.6L341.166 114.999Z" fill="#F4A28C"/>
<path d="M344.782 141.998C331.213 146.144 315.164 160.244 304.043 157.952C287.502 154.558 277.593 126.436 277.593 126.436C277.593 126.436 275.31 115.905 270.94 114.999C266.57 114.093 270.328 121.034 270.328 121.034C270.328 121.034 265.357 124.755 270.328 129.622C286.497 206.111 327.936 176.024 347.426 165.831C350.014 164.516 352.478 162.971 354.789 161.215C364.392 153.783 356.395 138.451 344.782 141.998Z" fill="#F4A28C"/>
<path opacity="0.08" d="M344.782 141.998C331.213 146.144 315.164 160.244 304.043 157.952C287.502 154.558 277.593 126.436 277.593 126.436C277.593 126.436 275.31 115.905 270.94 114.999C266.57 114.093 270.328 121.034 270.328 121.034C270.328 121.034 265.357 124.755 270.328 129.622C286.497 206.111 327.936 176.024 347.426 165.831C350.014 164.516 352.478 162.971 354.789 161.215C364.392 153.783 356.395 138.451 344.782 141.998Z" fill="black"/>
<path opacity="0.31" d="M342.433 123.653C343.569 123.512 344.638 123.037 345.503 122.289C345.503 122.289 345.033 125.203 341.461 127.746L342.433 123.653Z" fill="#CE8172"/>
<path d="M349.043 133.06L340.106 132.776C340.106 132.776 320.518 136.989 315.722 161.783C310.925 186.577 324.615 208.861 324.615 208.861L352.867 209.101C352.867 209.101 390.208 137.218 349.043 133.06Z" fill="#68E1FD"/>
<path opacity="0.08" d="M337.309 145.326C337.309 145.326 323.107 157.407 325.019 176.232C326.931 195.056 316.585 188.236 316.585 188.236C316.585 188.236 318.857 197.697 320.299 199.934C321.741 202.172 347.481 172.652 347.481 172.652L337.309 145.326Z" fill="black"/>
<path d="M352.877 209.101C352.877 209.101 352.484 226.955 341.548 228.34C330.612 229.726 305.561 219.61 302.426 233.24C299.29 246.871 305.539 268.544 305.539 268.544L297.892 270.672C297.892 270.672 280.762 237.933 290.845 222.382C300.929 206.831 324.614 208.861 324.614 208.861L352.877 209.101Z" fill="#24285B"/>
<path d="M342.706 112.304L340.106 102.569L356.494 110.427L348.584 122.289L347.491 120.423L347.623 119.441C347.824 117.95 347.497 116.436 346.699 115.161C345.901 113.886 344.682 112.929 343.253 112.456L342.706 112.304Z" fill="#24285B"/>
<path d="M346.06 116.964C346.06 116.964 348.147 116.047 349.338 116.843C350.529 117.64 349.6 121.078 345.492 119.102L346.06 116.964Z" fill="#F4A28C"/>
<path d="M335.31 151.405C338.915 139.815 356.068 141.856 356.843 153.958C356.989 156.872 356.879 159.794 356.515 162.689C353.97 184.514 355.521 235.663 283.143 205.926L284.596 198.145C284.596 198.145 313.438 205.784 325.565 194.063C333.726 186.075 331.093 164.882 335.31 151.405Z" fill="#F4A28C"/>
<path d="M330.667 175.599L356.887 179.276C356.887 179.276 366.719 147.225 348.289 141.769C329.858 136.312 330.667 175.599 330.667 175.599Z" fill="#68E1FD"/>
<path opacity="0.46" d="M330.667 175.599L356.887 179.276C356.887 179.276 366.719 147.225 348.289 141.769C329.858 136.312 330.667 175.599 330.667 175.599Z" fill="white"/>
<path d="M284.596 198.046C284.596 198.046 271.672 197.599 273.671 203.056C275.671 208.512 283.143 205.827 283.143 205.827L284.596 198.046Z" fill="#F4A28C"/>
<path d="M266.581 170.938H222.619V189.96H266.581V170.938Z" fill="#68E1FD"/>
<path d="M195.186 99.5356H133.405V117.149H195.186V99.5356Z" fill="white"/>
<path d="M195.197 99.5356H172.254V117.149H195.197V99.5356Z" fill="#24285B"/>
<path d="M195.186 128.226H133.405V135.232H195.186V128.226Z" fill="#C9C9C9"/>
<path opacity="0.57" d="M195.186 144.093H133.405V151.099H195.186V144.093Z" fill="#C9C9C9"/>
<path opacity="0.58" d="M62.349 271.25C62.349 271.25 53.0409 268.707 51.0198 260.064C51.0198 260.064 65.4298 257.151 65.845 272.069L62.349 271.25Z" fill="#68E1FD"/>
<path opacity="0.73" d="M63.4851 270.355C63.4851 270.355 56.9302 260.086 62.7095 250.494C62.7095 250.494 73.6345 257.445 68.7947 270.377L63.4851 270.355Z" fill="#68E1FD"/>
<path d="M65.1567 270.355C65.1567 270.355 68.5981 259.519 78.9768 257.467C78.9768 257.467 80.9214 264.506 72.2579 270.388L65.1567 270.355Z" fill="#68E1FD"/>
<path d="M58.416 270.093L60.306 282.981L72.1815 283.025L73.9295 270.159L58.416 270.093Z" fill="#24285B"/>
</svg>
