<svg width="497" height="374" viewBox="0 0 497 374" fill="none" xmlns="http://www.w3.org/2000/svg">
<path d="M271.598 37.6123H97.3871V241.758H271.598V37.6123Z" fill="#E6E6E6"/>
<path d="M410.137 50.2537H293.019V159.15H410.137V50.2537Z" fill="#E6E6E6"/>
<path d="M430.974 177.41H347.49V219.254H430.974V177.41Z" fill="#E6E6E6"/>
<path opacity="0.08" d="M243.903 147.662C243.903 147.662 234.957 145.342 232.72 151.669C230.484 157.996 209.722 149.759 207.224 168.541C205.833 179.011 185.915 197.867 160.009 203.624C134.103 209.38 132.364 241.771 132.364 241.771H202.776L249.506 173.354L243.903 147.662Z" fill="black"/>
<path opacity="0.45" d="M258.092 347.739C335.065 347.739 397.463 333.715 397.463 316.415C397.463 299.115 335.065 285.091 258.092 285.091C181.119 285.091 118.721 299.115 118.721 316.415C118.721 333.715 181.119 347.739 258.092 347.739Z" fill="#E6E6E6"/>
<path d="M236.808 175.835C236.808 175.835 175.839 169.384 178.137 201.589C180.436 233.794 214.617 302.372 214.617 302.372H289.502C289.502 302.372 346.334 215.347 318.689 187.36C291.043 159.373 284.719 183.402 236.808 175.835Z" fill="#68E1FD"/>
<path d="M214.505 312.842L260.08 325.123L300.511 304.63L306.649 293.713H265.895H201.061L214.505 312.842Z" fill="#24285B"/>
<path d="M207.398 210.707C213.101 191.64 202.316 170.811 181.914 186.07C167.924 196.528 151.337 229.886 150.479 260.739C148.491 331.686 235.653 255.367 246.487 214.739L235.764 208.412C235.764 208.412 217.686 242.441 197.992 249.809C183.778 255.131 198.962 238.88 207.398 210.707Z" fill="#68E1FD"/>
<path opacity="0.46" d="M207.398 210.707C213.101 191.64 202.316 170.811 181.914 186.07C167.924 196.528 151.337 229.886 150.479 260.739C148.491 331.686 235.653 255.367 246.487 214.739L235.764 208.412C235.764 208.412 217.686 242.441 197.992 249.809C183.778 255.131 198.962 238.88 207.398 210.707Z" fill="white"/>
<path d="M236.808 175.835C236.808 175.835 227.427 190.573 236.622 195.845C245.816 201.117 248.761 195.101 248.761 195.101C248.761 195.101 255.607 203.164 261.733 196.912C267.858 190.66 266.988 178.204 260.751 172.461C254.514 166.717 236.808 175.835 236.808 175.835Z" fill="white"/>
<path d="M238.945 176.282C239.388 179.009 239.674 181.759 239.803 184.519C239.927 188.24 241.132 193.885 247.096 194.977C256.278 196.676 258.713 182.187 258.713 182.187C258.713 182.187 264.491 168.54 254.551 166.742C245.555 165.005 237.119 163.814 238.945 176.282Z" fill="#F4A28C"/>
<path opacity="0.08" d="M274.332 196.726C274.332 196.726 268.641 208.66 283.029 233.136C291.267 247.155 265.883 270.539 265.883 270.539L202.726 276.854L214.617 302.372H289.502C289.502 302.372 322.404 248.929 324.939 221.438C327.473 193.947 274.332 196.726 274.332 196.726Z" fill="black"/>
<path d="M258.092 182.72C258.092 182.72 258.614 178.316 262.453 178.502C266.293 178.688 264.789 186.913 258.092 182.72Z" fill="#F4A28C"/>
<path d="M241.157 180.264C241.157 180.264 242.499 176.046 238.933 174.619C235.367 173.193 233.317 181.318 241.157 180.264Z" fill="#F4A28C"/>
<path d="M368.029 209.702C374.321 209.702 379.422 204.609 379.422 198.326C379.422 192.044 374.321 186.95 368.029 186.95C361.736 186.95 356.635 192.044 356.635 198.326C356.635 204.609 361.736 209.702 368.029 209.702Z" fill="#C9C9C9"/>
<path d="M217.475 289.83L212.194 241.771H293.019L284.955 292.286L286.11 298.762L216.617 299.307L217.475 289.83Z" fill="#FFD200"/>
<path opacity="0.08" d="M360.934 200.088C360.934 200.088 382.69 202.668 387.026 219.254H372.29L360.934 200.088Z" fill="black"/>
<path d="M250.003 312.842C250.003 312.842 265.348 318.201 260.08 325.124C254.812 332.046 246.487 320.546 246.487 320.546L250.003 312.842Z" fill="#68E1FD"/>
<path opacity="0.08" d="M293.019 241.771L277.003 262.86C267.652 275.187 255.02 284.644 240.548 290.152L216.617 299.27L280.706 298.762H286.11L284.955 292.286L293.019 241.771Z" fill="black"/>
<path d="M238.945 176.282C238.945 176.282 224.035 174.148 230.72 163.231C237.404 152.314 238.833 160.489 241.977 152.066C245.12 143.643 247.953 141.968 252.551 145.578C257.148 149.188 252.7 156.743 259.658 154.646C266.616 152.55 271.387 150.528 272.704 156.284C274.021 162.04 272.704 164.807 268.218 166.779C263.733 168.751 270.778 176.505 259.521 179.668C248.264 182.832 242.387 170.538 242.387 170.538L238.945 176.282Z" fill="#24285B"/>
<path d="M250.476 310.175C250.476 310.175 188.487 278.578 183.207 295.387C177.926 312.197 220.643 321.96 248.214 322.977L250.476 310.175Z" fill="#24285B"/>
<path d="M253.408 274.558C257.23 274.558 260.329 271.465 260.329 267.648C260.329 263.832 257.23 260.739 253.408 260.739C249.586 260.739 246.487 263.832 246.487 267.648C246.487 271.465 249.586 274.558 253.408 274.558Z" fill="white"/>
<path d="M265.547 312.643C265.547 312.643 314.986 263.728 325.187 278.144C335.388 292.559 297.604 314.827 271.648 324.156L265.547 312.643Z" fill="#24285B"/>
<path d="M267.485 316.34C267.485 316.34 252.836 329.366 261.273 333.199C269.709 337.033 271.561 324.156 271.561 324.156L267.485 316.34Z" fill="#68E1FD"/>
<path d="M274.332 196.726C273.782 191.228 275.434 185.737 278.926 181.451C282.418 177.165 287.466 174.432 292.969 173.85C304.152 172.61 318.838 173.391 331.897 181.554C357.244 197.421 385.324 210.087 378.354 238.818C371.383 267.549 321.199 279.645 321.199 279.645L314.489 268.728C314.489 268.728 358.822 253.841 350.758 230.382C343.452 209.33 279.103 244.525 274.332 196.726Z" fill="#68E1FD"/>
<path opacity="0.46" d="M274.332 196.726C273.782 191.228 275.434 185.737 278.926 181.451C282.418 177.165 287.466 174.432 292.969 173.85C304.152 172.61 318.838 173.391 331.897 181.554C357.244 197.421 385.324 210.087 378.354 238.818C371.383 267.549 321.199 279.645 321.199 279.645L314.489 268.728C314.489 268.728 358.822 253.841 350.758 230.382C343.452 209.33 279.103 244.525 274.332 196.726Z" fill="white"/>
<path d="M315.595 270.539C315.595 270.539 301.604 279.98 306.686 282.585C311.768 285.19 320.354 278.268 320.354 278.268L315.595 270.539Z" fill="#F4A28C"/>
<path d="M237.641 209.516C237.641 209.516 242.611 197.259 249.506 198.252C256.402 199.244 245.667 214.255 245.667 214.255L237.641 209.516Z" fill="#F4A28C"/>
<path d="M167.464 61.9644H116.907V131.163H167.464V61.9644Z" fill="#C9C9C9"/>
<path d="M345.241 63.5771H306.14V99.6897H345.241V63.5771Z" fill="#C9C9C9"/>
<path opacity="0.44" d="M345.241 109.775H306.14V145.888H345.241V109.775Z" fill="#C9C9C9"/>
<path opacity="0.44" d="M397.153 109.775H358.051V145.888H397.153V109.775Z" fill="#C9C9C9"/>
<path opacity="0.63" d="M309.059 92.8915L316.701 81.1062L325.697 91.6137L334.282 76.5286L342.321 93.1148V97.2831H309.059V92.8915Z" fill="white"/>
<path d="M325.386 78.9972C327.541 78.9972 329.287 77.2532 329.287 75.1019C329.287 72.9505 327.541 71.2065 325.386 71.2065C323.231 71.2065 321.484 72.9505 321.484 75.1019C321.484 77.2532 323.231 78.9972 325.386 78.9972Z" fill="white"/>
<path d="M397.463 63.5771H358.362V99.6897H397.463V63.5771Z" fill="#C9C9C9"/>
<path opacity="0.63" d="M361.282 92.8915L368.923 81.1062L377.906 91.6137L386.504 76.5286L394.543 93.1148V97.2831H361.282V92.8915Z" fill="white"/>
<path d="M377.596 78.9972C379.75 78.9972 381.497 77.2532 381.497 75.1019C381.497 72.9505 379.75 71.2065 377.596 71.2065C375.441 71.2065 373.694 72.9505 373.694 75.1019C373.694 77.2532 375.441 78.9972 377.596 78.9972Z" fill="white"/>
<path d="M142.85 155.8H67.4429V199.009H142.85V155.8Z" fill="#FFD200"/>
<path d="M95.014 188.042C94.6247 188.05 94.2456 187.917 93.9454 187.67L82.7629 178.837C82.559 178.678 82.3938 178.475 82.2797 178.243C82.1657 178.011 82.1057 177.756 82.1044 177.497C82.1051 177.238 82.1634 176.982 82.2751 176.749C82.3868 176.515 82.5492 176.309 82.7505 176.145L93.933 167.151C94.2905 166.865 94.7473 166.732 95.2029 166.782C95.6584 166.832 96.0754 167.061 96.3621 167.418C96.6488 167.775 96.7817 168.231 96.7316 168.686C96.6815 169.14 96.4525 169.557 96.0949 169.843L86.5898 177.472L96.0825 184.916C96.3636 185.138 96.5685 185.442 96.6688 185.785C96.7691 186.129 96.76 186.495 96.6425 186.833C96.5251 187.171 96.3053 187.464 96.0135 187.672C95.7217 187.88 95.3724 187.992 95.014 187.992V188.042Z" fill="#24285B"/>
<path d="M115.267 188.042C115.006 188.044 114.748 187.985 114.513 187.871C114.278 187.757 114.073 187.591 113.912 187.385C113.63 187.026 113.501 186.57 113.554 186.116C113.608 185.663 113.839 185.249 114.198 184.966L123.691 177.522L114.186 169.893C113.822 169.607 113.586 169.188 113.532 168.728C113.477 168.269 113.607 167.806 113.894 167.443C114.18 167.079 114.6 166.844 115.06 166.79C115.52 166.735 115.984 166.865 116.348 167.151L127.53 176.145C127.731 176.309 127.894 176.515 128.006 176.749C128.117 176.983 128.176 177.238 128.176 177.497C128.175 177.756 128.115 178.011 128.001 178.243C127.887 178.475 127.722 178.678 127.518 178.837L116.335 187.67C116.034 187.916 115.656 188.048 115.267 188.042Z" fill="#24285B"/>
<path d="M100.444 188.042C100.196 188.041 99.9511 187.99 99.7231 187.893C99.3076 187.699 98.9858 187.349 98.8276 186.919C98.6693 186.49 98.6875 186.015 98.8782 185.598L107.029 167.784C107.119 167.572 107.251 167.38 107.416 167.22C107.581 167.06 107.777 166.934 107.992 166.851C108.207 166.767 108.436 166.727 108.667 166.734C108.897 166.74 109.124 166.792 109.334 166.887C109.543 166.983 109.732 167.119 109.888 167.288C110.045 167.457 110.165 167.656 110.244 167.872C110.322 168.089 110.356 168.319 110.344 168.549C110.331 168.778 110.273 169.004 110.172 169.211L102.022 187C101.887 187.307 101.667 187.569 101.387 187.754C101.107 187.939 100.779 188.039 100.444 188.042Z" fill="#24285B"/>
<path d="M142.204 85.1752C146.068 85.1752 149.199 82.0482 149.199 78.1909C149.199 74.3335 146.068 71.2065 142.204 71.2065C138.341 71.2065 135.209 74.3335 135.209 78.1909C135.209 82.0482 138.341 85.1752 142.204 85.1752Z" fill="white"/>
<path opacity="0.56" d="M157.102 93.9707H128.189V99.6897H157.102V93.9707Z" fill="white"/>
<path opacity="0.19" d="M157.102 106.91H128.189V112.629H157.102V106.91Z" fill="white"/>
<path opacity="0.46" d="M256.738 61.9644H184.486V104.701H256.738V61.9644Z" fill="white"/>
<path d="M256.738 116.909H184.486V131.163H256.738V116.909Z" fill="white"/>
<path d="M256.738 116.909H235.764V131.163H256.738V116.909Z" fill="#C9C9C9"/>
<path d="M416.026 191.094H388.07V196.155H416.026V191.094Z" fill="#C9C9C9"/>
<path opacity="0.45" d="M416.026 200.497H388.07V205.559H416.026V200.497Z" fill="#C9C9C9"/>
</svg>
