<svg width="428" height="322" viewBox="0 0 428 322" fill="none" xmlns="http://www.w3.org/2000/svg">
<path d="M23.1762 182.949L242.719 309.355L388.945 223.941L169.959 97.7381L23.1762 182.949Z" fill="#4E508B"/>
<path opacity="0.69" d="M274.712 198.126L166.92 262.755L62.1991 201.277L164.598 139.297" fill="url(#paint0_linear_17_174)"/>
<path d="M232.672 164.674V212.609H236.277L237.059 163.435" fill="#808080"/>
<path d="M253.194 146.229L260.417 198.35H256.811L249.257 148.162" fill="#808080"/>
<path d="M180.306 182.682C180.306 182.682 176.946 193.523 176.197 194.623C175.448 195.723 164.427 202.89 164.609 205.101C164.791 207.312 168.953 208.219 171.553 208.038C174.153 207.856 189.101 201.726 190.032 199.921C190.963 198.116 190.963 182.682 190.963 182.682H180.306Z" fill="#5C2D1D"/>
<path d="M198.036 195.371C198.036 195.371 194.676 206.211 193.927 207.312C193.178 208.412 182.157 215.578 182.339 217.789C182.521 220 186.683 220.908 189.283 220.727C191.883 220.545 206.831 214.414 207.762 212.609C208.693 210.804 208.693 195.371 208.693 195.371H198.036Z" fill="#5C2D1D"/>
<path d="M255.152 96.6807C254.2 99.3189 248.786 139.297 248.786 139.297L243.361 137.502L250.444 96.4564" fill="#808080"/>
<path d="M253.194 146.229L253.29 139.788L247.491 141.743L249.256 148.162" fill="#A9CBF8"/>
<path d="M240.087 136.263C240.087 136.263 254.66 141.775 253.194 147.115C251.728 152.455 240.119 165.764 232.672 164.621C225.224 163.478 216.14 157.144 216.14 157.144" fill="#4A42A4"/>
<path d="M240.087 129.684C240.087 129.684 254.649 135.174 253.194 140.589C251.739 146.004 240.119 159.238 232.672 158.095C225.224 156.952 216.14 150.618 216.14 150.618" fill="#A6ACED"/>
<path d="M245.854 79.4847C245.854 79.4847 259.914 82.9346 261.347 90.8917C262.781 98.8489 263.188 113.535 243.211 107.831C223.234 102.128 232.671 87.3778 232.671 87.3778" fill="#A6ACED"/>
<path d="M227.086 96.4671C227.086 96.4671 232.051 116.985 228.37 127.965C224.689 138.944 203.76 147.745 203.76 147.745L194.943 191.91C183.227 195.531 173.158 189.379 173.158 189.379C173.158 189.379 175.598 150.405 179.311 140.514C183.023 130.624 211.817 111.196 211.817 111.196" fill="#895851"/>
<path d="M227.91 122.549C227.91 122.549 199.116 141.978 195.403 151.868C191.69 161.758 189.251 200.732 189.251 200.732C189.251 200.732 199.32 206.884 211.036 203.264L219.853 159.099C219.853 159.099 234.833 154.891 238.503 143.911C242.173 132.931 240.643 116.248 240.643 116.248" fill="#895851"/>
<path d="M239.37 122.966C244.281 111.217 246.41 80.6917 243.361 77.0388C237.058 69.4128 223.769 70.342 223.769 70.342C223.769 70.342 216.044 65.8027 209.592 71.1751C204.777 75.1804 208.201 99.7567 209.592 115.372C218.002 122.977 227.3 125.113 239.37 122.966Z" fill="#C4C4C4"/>
<path d="M218.729 126.48C213.551 131.564 208.029 136.466 203.172 141.882C198.988 146.592 197.34 152.562 195.682 158.49C191.894 172.279 190.203 186.516 188.523 200.668C188.416 201.523 189.786 201.523 189.893 200.668C191.509 187.05 193.103 173.368 196.666 160.081C198.399 153.566 200.122 147.083 204.873 142.01C209.624 136.936 214.738 132.269 219.66 127.43C220.324 126.822 219.35 125.86 218.729 126.48Z" fill="#5C2D1D"/>
<path d="M275.568 160.167L278.243 158.725L155.353 89.5139L75.4136 134.095L76.4836 134.715V193.544C76.4836 193.703 76.5467 193.855 76.6591 193.967C76.7715 194.079 76.9239 194.142 77.0828 194.142C77.2417 194.142 77.3941 194.079 77.5065 193.967C77.6189 193.855 77.682 193.703 77.682 193.544V135.366L195.917 203.296L196.206 203.146V245.517C196.206 245.675 196.269 245.827 196.381 245.939C196.494 246.052 196.646 246.115 196.805 246.115C196.964 246.115 197.116 246.052 197.229 245.939C197.341 245.827 197.404 245.675 197.404 245.517V202.495L274.733 160.626V198.073C274.733 198.231 274.796 198.384 274.909 198.496C275.021 198.608 275.174 198.671 275.332 198.671C275.491 198.671 275.644 198.608 275.756 198.496C275.869 198.384 275.932 198.231 275.932 198.073V160.68C275.935 160.566 275.901 160.455 275.835 160.363C275.77 160.27 275.676 160.202 275.568 160.167Z" fill="#C4C4C4"/>
<path d="M275.568 160.167L278.243 158.725L155.353 89.5139L75.4136 134.095L76.4836 134.715V193.544C76.4836 193.703 76.5467 193.855 76.6591 193.967C76.7715 194.079 76.9239 194.142 77.0828 194.142C77.2417 194.142 77.3941 194.079 77.5065 193.967C77.6189 193.855 77.682 193.703 77.682 193.544V135.366L195.917 203.296L196.206 203.146V245.517C196.206 245.675 196.269 245.827 196.381 245.939C196.494 246.052 196.646 246.115 196.805 246.115C196.964 246.115 197.116 246.052 197.229 245.939C197.341 245.827 197.404 245.675 197.404 245.517V202.495L274.733 160.626V198.073C274.733 198.231 274.796 198.384 274.909 198.496C275.021 198.608 275.174 198.671 275.332 198.671C275.491 198.671 275.644 198.608 275.756 198.496C275.869 198.384 275.932 198.231 275.932 198.073V160.68C275.935 160.566 275.901 160.455 275.835 160.363C275.77 160.27 275.676 160.202 275.568 160.167Z" fill="#BC532A"/>
<path d="M53.6605 101.978L50.2472 100.248L54.0671 96.5312L53.6605 101.978Z" fill="#D64338"/>
<path d="M100.58 27.4056L97.1667 25.6753L95.8292 30.1505L100.58 27.4056Z" fill="#D64338"/>
<path d="M97.1667 25.6753L50.2472 52.7189V100.248L97.1667 72.1257V25.6753Z" fill="#D64338"/>
<path d="M100.58 27.4056L53.6605 54.4492V101.978L100.58 73.856V27.4056Z" fill="#FF6753"/>
<path d="M95.3156 35.7792L58.9249 56.7455V93.6153L95.3156 71.8053V35.7792Z" fill="white"/>
<path d="M95.3156 66.3688C95.3156 66.3688 92.5015 56.7562 88.703 59.5331C84.9045 62.3101 87.9968 72.7238 83.674 70.577C79.3512 68.4302 78.9981 57.6213 73.7123 59.5331C68.4265 61.445 71.69 71.7092 67.7738 70.4809C63.8576 69.2526 65.7087 55.5279 58.9142 56.7562V93.6153L95.2942 71.8053L95.3156 66.3688Z" fill="#C4C4C4"/>
<path opacity="0.32" d="M152.272 131.916L113.655 153.064C120.075 157.069 146.066 170.805 152.304 175.131L192.204 150.02L185.645 134.298L152.272 131.916Z" fill="url(#paint1_linear_17_174)"/>
<path d="M184.158 154.624L212.277 138.528L175.641 117.818L146.911 132.354" fill="#B3B3B3"/>
<path d="M176.882 122.859C176.882 122.859 184.254 155.029 184.158 154.634C184.061 154.239 147.778 135.057 147.5 134.341C147.221 133.625 137.87 101.017 137.87 101.017L176.882 122.859Z" fill="white"/>
<path d="M166.267 116.91L173.832 112.424L182.863 119.815L176.068 122.613L166.267 116.91Z" fill="#FFE0CE"/>
<path d="M170.451 111.815C170.451 111.815 180.477 115.287 179.642 124.419C179.642 124.419 195.275 118.01 198.742 113.951C202.209 109.893 209.581 101.049 209.581 101.049V71.1431C209.581 71.1431 190.674 99.9811 186.576 103.495C183.302 106.293 170.451 111.815 170.451 111.815Z" fill="#C4C4C4"/>
<path d="M222.196 66.23C222.196 68.7507 222.26 71.2606 222.121 73.7706C222.581 74.9241 223.191 75.7252 224.154 75.629C227.204 75.3086 230.831 70.8227 230.831 70.8227L231.366 63.8268L222.196 66.23Z" fill="#F9C7AF"/>
<path d="M237.037 48.8524C235.143 44.8258 231.387 44.0568 227.514 44.7938C226.626 44.1863 225.632 43.7515 224.582 43.5121C221.372 42.7538 217.317 43.7577 215.316 46.4493C214.265 46.3195 213.198 46.4554 212.213 46.8445C209.303 48.0514 208.95 51.1168 209.624 53.7763C209.654 53.8813 209.69 53.9846 209.731 54.086C210.041 58.8282 214.728 60.8042 214.728 60.8042L229.836 68.2166C231.467 67.3406 232.847 66.0653 233.848 64.5104C234.173 63.902 234.383 63.2396 234.469 62.5558C234.578 62.4657 234.678 62.3655 234.769 62.2567C237.733 58.5719 239.113 53.2849 237.037 48.8524Z" fill="#4C4C4C"/>
<path d="M214.364 57.0339C214.749 58.6147 217.467 73.6745 224.368 72.4141C231.27 71.1538 231.708 61.1246 231.708 61.1246C231.708 61.1246 225.449 59.4584 224.946 57.1514C224.443 54.8444 224.7 53.8297 221.629 53.2102C218.558 52.5907 213.722 54.3958 214.364 57.0339Z" fill="#FFE0CE"/>
<path d="M208.329 102.544L207.345 87.8371L202.829 109.113L208.329 102.544Z" fill="#4C4C4C"/>
<path d="M208.853 127.612C208.253 127.679 207.67 127.853 207.131 128.125C205.493 128.904 203.685 129.428 202.059 130.261C199.364 131.81 197.158 134.082 195.692 136.819C195.361 137.524 193.97 140.098 194.686 140.824C195.403 141.55 197.04 140.824 197.04 140.824C197.04 140.824 196.955 142.298 197.479 142.64C198.003 142.982 199.619 141.785 199.619 141.785C199.619 141.785 200.336 143.59 201.331 143.163C202.326 142.736 204.092 140.151 204.092 140.151C204.092 140.151 203.899 142.127 204.777 142.127C205.654 142.127 209.367 137.097 209.367 137.097L217.231 133.059C217.231 133.059 214.909 130.592 214.674 130.368C213.608 129.325 212.356 128.492 210.983 127.911C210.306 127.647 209.577 127.544 208.853 127.612Z" fill="#FFE0CE"/>
<path d="M207.505 134.138C205.73 136.017 204.393 138.263 203.589 140.717C203.493 141.016 203.974 141.145 204.07 140.845C204.842 138.455 206.135 136.267 207.858 134.437C208.083 134.298 207.73 133.914 207.505 134.138Z" fill="#5C2D1D"/>
<path d="M205.205 132.632C202.362 135.15 200.342 138.461 199.405 142.138C199.397 142.169 199.395 142.202 199.399 142.235C199.403 142.267 199.414 142.298 199.43 142.327C199.447 142.355 199.469 142.38 199.495 142.399C199.52 142.419 199.55 142.434 199.582 142.442C199.613 142.451 199.646 142.453 199.679 142.448C199.711 142.444 199.742 142.434 199.771 142.417C199.799 142.401 199.824 142.379 199.844 142.353C199.864 142.327 199.878 142.298 199.887 142.266C200.803 138.675 202.779 135.442 205.558 132.984C205.793 132.76 205.44 132.418 205.205 132.632Z" fill="#5C2D1D"/>
<path d="M202.861 132.109C200.074 134.454 197.983 137.516 196.816 140.963C196.709 141.262 197.201 141.39 197.297 141.091C198.442 137.725 200.488 134.737 203.214 132.45C203.46 132.247 203.107 131.895 202.861 132.109Z" fill="#5C2D1D"/>
<path d="M243.821 102.139C243.821 102.139 240.943 120.296 237.059 124.408C233.174 128.52 216.14 136.007 216.14 136.007C216.14 136.007 211.86 128.627 207.345 126.886C207.345 126.886 224.721 117.273 225.149 115.468" fill="#C4C4C4"/>
<path d="M229.536 90.0159C229.247 93.9251 228.841 97.8129 228.263 101.69C227.771 105.012 227.482 108.803 226.337 111.976C225.064 115.532 220.227 117.647 217.146 119.612C213.9 121.684 210.626 123.706 207.323 125.679C207.169 125.77 207.056 125.918 207.011 126.091C206.966 126.264 206.992 126.448 207.082 126.603C207.173 126.757 207.322 126.869 207.495 126.914C207.669 126.959 207.853 126.934 208.008 126.843C211.86 124.529 215.673 122.158 219.446 119.73C222.004 118.074 225.866 116.376 227.247 113.481C228.723 110.331 228.948 106.069 229.472 102.673C230.114 98.4751 230.542 94.2562 230.885 90.0266C230.959 89.1508 229.601 89.1615 229.536 90.0159Z" fill="#4C4C4C"/>
<path d="M137.902 133.967L112.853 148.472L94.4168 137.844L119.23 123.318L137.902 133.967Z" fill="white"/>
<path d="M200.208 193.373L176.967 179.809V172.973L200.24 186.377L200.208 193.373Z" fill="#F4CC25"/>
<path d="M231.869 168.081V174.97C231.869 174.97 200.154 193.533 200.208 193.373C200.261 193.213 200.208 186.388 200.208 186.388L231.869 168.081Z" fill="#EDCD32"/>
<path d="M231.869 168.081L200.24 186.377L176.967 172.973L208.297 154.624L231.869 168.081Z" fill="#F4DD53"/>
<path d="M182.018 170.015L178.615 169.427L182.414 176.103L182.018 170.015Z" fill="#F4CC25"/>
<path d="M182.414 176.103L176.967 172.973L179.696 171.072L182.414 176.103Z" fill="#E2B80A"/>
<path opacity="0.56" d="M231.869 171.211L200.368 189.336L176.967 176.402" stroke="#F7931E" stroke-width="1.015" stroke-miterlimit="10"/>
<path opacity="0.56" d="M231.644 173.593L200.144 191.718L176.743 178.773" stroke="#F7931E" stroke-width="1.015" stroke-miterlimit="10"/>
<path d="M132.53 122.047L115.988 131.617L103.822 124.6L120.204 115.009L132.53 122.047Z" fill="#F9D2C0"/>
<path d="M200.208 186.036L176.967 172.471V165.635L200.24 179.04L200.208 186.036Z" fill="#F2A755"/>
<path d="M231.869 160.744V167.633C231.869 167.633 200.154 186.196 200.208 186.036C200.261 185.875 200.208 179.05 200.208 179.05L231.869 160.744Z" fill="#F2A755"/>
<path d="M231.869 160.744L200.24 179.04L176.967 165.635L208.297 147.286L231.869 160.744Z" fill="#F2A755"/>
<path d="M182.018 162.677L178.615 162.089L182.414 168.765L182.018 162.677Z" fill="#F7B36F"/>
<path d="M182.414 168.765L176.967 165.635L179.696 163.734L182.414 168.765Z" fill="#DB8835"/>
<path opacity="0.56" d="M231.869 163.873L200.368 181.998L176.967 169.064" stroke="#F7931E" stroke-width="1.015" stroke-miterlimit="10"/>
<path opacity="0.56" d="M231.644 166.244L200.144 184.369L176.743 171.435" stroke="#F7931E" stroke-width="1.015" stroke-miterlimit="10"/>
<path d="M200.208 179.606L176.967 166.041V159.206L200.24 172.621L200.208 179.606Z" fill="#F4CC25"/>
<path d="M231.869 154.314V161.203C231.869 161.203 200.154 179.766 200.208 179.606C200.261 179.446 200.208 172.621 200.208 172.621L231.869 154.314Z" fill="#EDCD32"/>
<path d="M231.869 154.314L200.24 172.621L176.967 159.206L208.297 140.856L231.869 154.314Z" fill="#F4DD53"/>
<path d="M182.018 156.247L178.615 155.66L182.414 162.346L182.018 156.247Z" fill="#F4CC25"/>
<path d="M182.414 162.346L176.967 159.206L179.696 157.304L182.414 162.346Z" fill="#E2B80A"/>
<path opacity="0.56" d="M231.869 157.443L200.368 175.569L176.967 162.634" stroke="#F7931E" stroke-width="1.015" stroke-miterlimit="10"/>
<path opacity="0.56" d="M231.644 159.825L200.144 177.95L176.743 165.016" stroke="#F7931E" stroke-width="1.015" stroke-miterlimit="10"/>
<path d="M326.714 113.674L345.022 103.954L388.945 129.268V224.123L370.851 234.558" fill="#C4C4C4"/>
<path opacity="0.22" d="M326.714 113.674L345.022 103.954L388.945 129.268V224.123L370.851 234.558" fill="#4C4C4C"/>
<path d="M370.851 234.558C369.471 234.441 370.851 139.104 370.851 139.104L326.714 113.674V209.8L370.851 234.558Z" fill="#C4C4C4"/>
<path d="M326.714 131.607L370.637 156.279L388.945 146.966" stroke="#F2F2F2" stroke-width="0.25375" stroke-miterlimit="10"/>
<path d="M326.714 156.279L370.637 180.952L388.945 171.649" stroke="#F2F2F2" stroke-width="0.25375" stroke-miterlimit="10"/>
<path d="M326.714 178.484L370.637 203.167L388.945 193.854" stroke="#F2F2F2" stroke-width="0.25375" stroke-miterlimit="10"/>
<path d="M326.714 200.893L370.637 225.576L388.945 216.262" stroke="#F2F2F2" stroke-width="0.25375" stroke-miterlimit="10"/>
<path d="M370.937 139.04L388.988 129.107L344.936 104.018L326.671 113.834L370.937 139.04Z" fill="#C4C4C4"/>
<path opacity="0.25" d="M370.937 139.04L388.988 129.107L344.936 104.018L326.671 113.834L370.937 139.04Z" fill="white"/>
<path d="M363.745 145.239C365.107 144.682 365.664 142.899 364.989 141.256C364.315 139.613 362.665 138.732 361.303 139.289C359.941 139.846 359.384 141.629 360.059 143.272C360.733 144.915 362.384 145.796 363.745 145.239Z" fill="white"/>
<path d="M332.107 126.565L355.572 139.446C356.021 139.692 356.428 139.008 355.978 138.752L332.513 125.871C332.064 125.625 331.657 126.309 332.107 126.565Z" fill="#F2F2F2"/>
<path d="M363.744 166.816C365.105 166.259 365.662 164.476 364.988 162.833C364.313 161.19 362.663 160.309 361.301 160.866C359.94 161.423 359.383 163.207 360.057 164.85C360.731 166.492 362.382 167.373 363.744 166.816Z" fill="white"/>
<path d="M332.107 148.183L355.572 161C356.021 161.246 356.428 160.562 355.978 160.306L332.513 147.425C332.064 147.179 331.657 147.863 332.107 148.119V148.183Z" fill="#F2F2F2"/>
<path d="M363.741 190.391C365.102 189.834 365.66 188.051 364.985 186.408C364.311 184.765 362.66 183.884 361.299 184.441C359.937 184.998 359.38 186.781 360.054 188.424C360.729 190.067 362.379 190.948 363.741 190.391Z" fill="white"/>
<path d="M332.107 171.681L355.572 184.562C356.021 184.807 356.428 184.124 355.978 183.867L332.513 170.986C332.064 170.741 331.657 171.424 332.107 171.681Z" fill="#F2F2F2"/>
<path d="M363.749 211.799C365.111 211.242 365.668 209.459 364.993 207.816C364.319 206.173 362.669 205.292 361.307 205.849C359.945 206.406 359.388 208.19 360.063 209.833C360.737 211.476 362.388 212.356 363.749 211.799Z" fill="white"/>
<path d="M332.107 193.117L355.572 205.998C356.021 206.243 356.428 205.56 355.978 205.304L332.513 192.423C332.064 192.177 331.657 192.861 332.107 193.117Z" fill="#F2F2F2"/>
<path opacity="0.32" d="M365.801 122.528L354.962 128.819L347.065 123.618L358.536 116.376" fill="url(#paint2_linear_17_174)"/>
<path d="M365.844 110.373C365.512 109.647 364.014 109.102 362.227 109.102C360.44 109.102 358.878 109.679 358.589 110.427C356.449 113.364 354.416 118.149 357.005 121.353C357.633 122.084 358.413 122.668 359.291 123.065C360.169 123.461 361.124 123.661 362.088 123.65H362.398C363.362 123.661 364.317 123.461 365.195 123.065C366.073 122.668 366.853 122.084 367.481 121.353C370.07 118.128 367.962 113.311 365.844 110.373Z" fill="#A6ACED"/>
<path opacity="0.5" d="M362.227 112.264C364.266 112.264 365.919 111.556 365.919 110.683C365.919 109.81 364.266 109.102 362.227 109.102C360.188 109.102 358.536 109.81 358.536 110.683C358.536 111.556 360.188 112.264 362.227 112.264Z" fill="black"/>
<path d="M366.529 97.2895C364.251 101.143 362.852 105.449 362.43 109.903C362.429 104.529 361.935 99.1666 360.954 93.8823C360.954 93.6901 360.633 93.7755 360.665 93.9571C361.763 99.8621 362.251 105.864 362.12 111.869C362.118 111.892 362.122 111.916 362.133 111.938C362.143 111.959 362.158 111.978 362.177 111.992C362.197 112.006 362.219 112.015 362.243 112.017C362.267 112.02 362.291 112.017 362.313 112.008C362.313 112.008 362.313 112.093 362.313 112.136C362.313 112.175 362.328 112.213 362.357 112.241C362.385 112.269 362.423 112.285 362.462 112.285C362.502 112.285 362.54 112.269 362.568 112.241C362.597 112.213 362.612 112.175 362.612 112.136C362.716 106.952 364.157 101.883 366.796 97.4177C366.807 97.3833 366.805 97.3461 366.791 97.313C366.777 97.2799 366.751 97.253 366.718 97.2374C366.686 97.2218 366.648 97.2185 366.614 97.228C366.579 97.2376 366.549 97.2594 366.529 97.2895Z" fill="#2C9135"/>
<path d="M364.196 102.192C364.196 102.192 366.475 94.865 371.376 92.1628C371.111 92.5429 370.928 92.9733 370.838 93.4273C370.748 93.8812 370.752 94.3488 370.851 94.8009C371.311 95.9865 372.039 98.1013 369.728 99.2975C367.417 100.494 366.09 99.2975 366.282 101.615C366.475 103.933 367.352 105.054 365.919 106.176C364.485 107.297 363.169 108.312 362.709 110.694C362.677 110.683 363.233 104.627 364.196 102.192Z" fill="#2C9135"/>
<path d="M362.024 101.423C362.024 101.423 361.071 90.1655 359.092 87.3244C359.252 88.4244 359.057 89.5466 358.536 90.5286C357.68 92.1521 356.749 92.7182 357.252 94.8009C357.754 96.8836 359.766 96.4991 359.573 98.6246C359.381 100.75 357.701 100.344 358.503 103.025C359.246 104.851 360.54 106.4 362.206 107.458" fill="#2C9135"/>
<defs>
<linearGradient id="paint0_linear_17_174" x1="151.705" y1="228.791" x2="196.16" y2="151.307" gradientUnits="userSpaceOnUse">
<stop stop-opacity="0"/>
<stop offset="1" stop-color="#2E3192"/>
</linearGradient>
<linearGradient id="paint1_linear_17_174" x1="145.809" y1="160.049" x2="174.702" y2="125.435" gradientUnits="userSpaceOnUse">
<stop stop-opacity="0"/>
<stop offset="0.99" stop-color="#1A1A1A"/>
</linearGradient>
<linearGradient id="paint2_linear_17_174" x1="357.808" y1="121.759" x2="351.677" y2="127.623" gradientUnits="userSpaceOnUse">
<stop offset="0.01" stop-color="#A91D5C"/>
<stop offset="1" stop-color="#F15A24"/>
</linearGradient>
</defs>
</svg>
